G04 #@! TF.GenerationSoftware,KiCad,Pcbnew,(5.1.5)-3*
G04 #@! TF.CreationDate,2020-05-06T16:42:26+05:30*
G04 #@! TF.ProjectId,Tympan_D,54796d70-616e-45f4-942e-6b696361645f,rev?*
G04 #@! TF.SameCoordinates,PX6d878d0PY72e6100*
G04 #@! TF.FileFunction,Paste,Top*
G04 #@! TF.FilePolarity,Positive*
%FSLAX46Y46*%
G04 Gerber Fmt 4.6, Leading zero omitted, Abs format (unit mm)*
G04 Created by KiCad (PCBNEW (5.1.5)-3) date 2020-05-06 16:42:26*
%MOMM*%
%LPD*%
G04 APERTURE LIST*
%ADD10R,0.600000X0.400000*%
%ADD11R,0.600000X1.000000*%
%ADD12R,1.000000X0.600000*%
%ADD13R,1.000000X1.600000*%
%ADD14R,0.800000X0.750000*%
%ADD15R,0.750000X0.800000*%
%ADD16R,0.200000X0.750000*%
%ADD17R,0.750000X0.200000*%
%ADD18R,1.140000X1.140000*%
%ADD19R,2.800000X2.800000*%
%ADD20R,2.800000X2.200000*%
%ADD21R,0.500000X0.600000*%
%ADD22R,0.600000X0.500000*%
%ADD23R,1.900000X1.900000*%
%ADD24R,1.600000X1.400000*%
%ADD25R,0.400000X1.350000*%
%ADD26R,0.400000X0.600000*%
%ADD27R,1.050000X0.650000*%
%ADD28R,1.000000X0.800000*%
%ADD29R,1.600000X1.200000*%
%ADD30R,0.650000X0.400000*%
%ADD31R,1.000000X0.700000*%
%ADD32R,1.200000X1.000000*%
%ADD33R,1.200000X1.150000*%
%ADD34R,1.200000X1.450000*%
%ADD35R,0.700000X1.000000*%
%ADD36R,0.900000X1.400000*%
%ADD37R,0.650000X1.060000*%
%ADD38R,0.400000X0.500000*%
G04 APERTURE END LIST*
D10*
X21050000Y41400000D03*
X21050000Y40500000D03*
D11*
X36800000Y16300000D03*
X36000000Y16300000D03*
X35200000Y16300000D03*
X34400000Y16300000D03*
X33600000Y16300000D03*
X32800000Y16300000D03*
X32000000Y16300000D03*
X31200000Y16300000D03*
X30400000Y16300000D03*
X29600000Y16300000D03*
X28800000Y16300000D03*
X28000000Y16300000D03*
X27200000Y16300000D03*
X26400000Y16300000D03*
X25600000Y16300000D03*
X24800000Y16300000D03*
X24000000Y16300000D03*
X23200000Y16300000D03*
X22400000Y16300000D03*
X21600000Y16300000D03*
X20800000Y16300000D03*
D12*
X19800000Y15300000D03*
X19800000Y14500000D03*
X19800000Y13700000D03*
X19800000Y12900000D03*
X19800000Y12100000D03*
X19800000Y11300000D03*
X19800000Y10500000D03*
X19800000Y9700000D03*
X19800000Y8900000D03*
X19800000Y8100000D03*
X19800000Y7300000D03*
X19800000Y6500000D03*
X19800000Y5700000D03*
D11*
X20800000Y4700000D03*
X21600000Y4700000D03*
X22400000Y4700000D03*
X23200000Y4700000D03*
X24000000Y4700000D03*
X24800000Y4700000D03*
X25600000Y4700000D03*
X26400000Y4700000D03*
X27200000Y4700000D03*
X28000000Y4700000D03*
X28800000Y4700000D03*
X29600000Y4700000D03*
X30400000Y4700000D03*
X31200000Y4700000D03*
X32000000Y4700000D03*
X32800000Y4700000D03*
X33600000Y4700000D03*
D13*
X11300000Y33050000D03*
X14300000Y33050000D03*
X24050000Y33000000D03*
X21050000Y33000000D03*
D14*
X18050000Y61850000D03*
X19550000Y61850000D03*
X18050000Y63150000D03*
X19550000Y63150000D03*
X19550000Y60550000D03*
X18050000Y60550000D03*
D15*
X20175000Y53750000D03*
X20175000Y55250000D03*
X14800000Y55325000D03*
X14800000Y53825000D03*
D14*
X19550000Y64450000D03*
X18050000Y64450000D03*
D16*
X16544600Y42933000D03*
X16944600Y42933000D03*
X17344600Y42933000D03*
X17744600Y42933000D03*
X18144600Y42933000D03*
X18544600Y42933000D03*
X18944600Y42933000D03*
X19344600Y42933000D03*
X19744600Y42933000D03*
X20144600Y42933000D03*
D17*
X20844600Y43633000D03*
X20844600Y44033000D03*
X20844600Y44433000D03*
X20844600Y44833000D03*
X20844600Y45233000D03*
X20844600Y45633000D03*
X20844600Y46033000D03*
X20844600Y46433000D03*
X20844600Y46833000D03*
X20844600Y47233000D03*
D16*
X20144600Y47933000D03*
X19744600Y47933000D03*
X19344600Y47933000D03*
X18944600Y47933000D03*
X18544600Y47933000D03*
X18144600Y47933000D03*
X17744600Y47933000D03*
X17344600Y47933000D03*
X16944600Y47933000D03*
X16544600Y47933000D03*
D17*
X15844600Y47233000D03*
X15844600Y46833000D03*
X15844600Y46433000D03*
X15844600Y46033000D03*
X15844600Y45633000D03*
X15844600Y45233000D03*
X15844600Y44833000D03*
X15844600Y44433000D03*
X15844600Y44033000D03*
X15844600Y43633000D03*
D18*
X19294600Y46383000D03*
X17394600Y46383000D03*
X19294600Y44483000D03*
X17394600Y44483000D03*
D19*
X9350000Y58400000D03*
X4400000Y62300000D03*
D20*
X12800000Y69700000D03*
X4400000Y71700000D03*
D19*
X25200000Y62300000D03*
D20*
X33600000Y69700000D03*
X25200000Y71700000D03*
D21*
X20350000Y30200000D03*
X20350000Y29100000D03*
X14267900Y44560600D03*
X14267900Y43460600D03*
X14140900Y51532900D03*
X14140900Y50432900D03*
X22350600Y40940700D03*
X22350600Y42040700D03*
X24000000Y40950000D03*
X24000000Y42050000D03*
D22*
X14246400Y41330900D03*
X13146400Y41330900D03*
X14246400Y42308800D03*
X13146400Y42308800D03*
D21*
X13150300Y44560600D03*
X13150300Y43460600D03*
D22*
X14150000Y47800000D03*
X13050000Y47800000D03*
D21*
X15195000Y50432900D03*
X15195000Y51532900D03*
X20600000Y51050000D03*
X20600000Y49950000D03*
X18600000Y52950000D03*
X18600000Y54050000D03*
X17700000Y52950000D03*
X17700000Y54050000D03*
D22*
X11050000Y6400000D03*
X9950000Y6400000D03*
X34450000Y52750000D03*
X35550000Y52750000D03*
X34450000Y53750000D03*
X35550000Y53750000D03*
X2450000Y52750000D03*
X3550000Y52750000D03*
X3550000Y53750000D03*
X2450000Y53750000D03*
D10*
X15800000Y33250000D03*
X15800000Y32350000D03*
X19600000Y33250000D03*
X19600000Y32350000D03*
D21*
X17900000Y27750000D03*
X17900000Y26650000D03*
D22*
X19550000Y26100000D03*
X20650000Y26100000D03*
D21*
X16050000Y27750000D03*
X16050000Y26650000D03*
X16950000Y27750000D03*
X16950000Y26650000D03*
X16275000Y28725000D03*
X16275000Y29825000D03*
X17275000Y28725000D03*
X17275000Y29825000D03*
D23*
X14450000Y1400000D03*
D24*
X16450000Y3850000D03*
D25*
X11950000Y4075000D03*
X12600000Y4075000D03*
X14550000Y4075000D03*
X13900000Y4075000D03*
X13250000Y4075000D03*
D24*
X10050000Y3850000D03*
D23*
X12050000Y1400000D03*
D26*
X20300000Y28000000D03*
X19400000Y28000000D03*
D10*
X12550000Y6250000D03*
X12550000Y7150000D03*
X13550000Y6250000D03*
X13550000Y7150000D03*
D27*
X32900000Y20400000D03*
X37050000Y20400000D03*
X32900000Y18250000D03*
X37050000Y18250000D03*
D21*
X25650000Y27400000D03*
X25650000Y26300000D03*
X26325000Y19025000D03*
X26325000Y17925000D03*
X25200000Y19050000D03*
X25200000Y17950000D03*
D28*
X19700000Y2550000D03*
X21200000Y2550000D03*
X21200000Y1450000D03*
X19700000Y1450000D03*
D26*
X28075000Y17925000D03*
X27175000Y17925000D03*
X23450000Y17950000D03*
X24350000Y17950000D03*
X27175000Y18925000D03*
X28075000Y18925000D03*
X24350000Y18975000D03*
X23450000Y18975000D03*
D22*
X19550000Y27050000D03*
X20650000Y27050000D03*
D21*
X19000000Y29100000D03*
X19000000Y30200000D03*
D29*
X4270000Y18410000D03*
X1070000Y18410000D03*
X4270000Y15910000D03*
X1070000Y15910000D03*
X1070000Y20910000D03*
X4270000Y20910000D03*
D22*
X9950000Y8500000D03*
X11050000Y8500000D03*
X9950000Y9400000D03*
X11050000Y9400000D03*
X9950000Y10300000D03*
X11050000Y10300000D03*
X15800000Y5650000D03*
X16900000Y5650000D03*
D14*
X9550000Y7450000D03*
X11050000Y7450000D03*
D30*
X22650000Y52400000D03*
X22650000Y51100000D03*
X22650000Y51750000D03*
X24550000Y51100000D03*
X24550000Y52400000D03*
D31*
X27710000Y31050000D03*
X27710000Y29950000D03*
X27710000Y28850000D03*
X27710000Y27750000D03*
X27710000Y26650000D03*
X27710000Y25550000D03*
X27710000Y24450000D03*
X27710000Y23350000D03*
D32*
X28760000Y22075000D03*
D33*
X31350000Y22275000D03*
D34*
X29200000Y32675000D03*
D35*
X30350000Y32900000D03*
D36*
X31500000Y32700000D03*
D10*
X3750000Y5225000D03*
X3750000Y6125000D03*
D26*
X3750000Y10975000D03*
X4650000Y10975000D03*
D10*
X4725000Y5225000D03*
X4725000Y6125000D03*
D37*
X3762500Y7412500D03*
X4712500Y7412500D03*
X5662500Y7412500D03*
X5662500Y9612500D03*
X3762500Y9612500D03*
D38*
X8000000Y4310000D03*
X8000000Y3110000D03*
X7300000Y4310000D03*
X7300000Y3110000D03*
D10*
X16300000Y40500000D03*
X16300000Y41400000D03*
X18200000Y41400000D03*
X18200000Y40500000D03*
X19150000Y41400000D03*
X19150000Y40500000D03*
X20100000Y40500000D03*
X20100000Y41400000D03*
X17250000Y40500000D03*
X17250000Y41400000D03*
D26*
X22479300Y44810700D03*
X23379300Y44810700D03*
X23379300Y43947100D03*
X22479300Y43947100D03*
D14*
X7250000Y9000000D03*
X8750000Y9000000D03*
M02*
