M48
; DRILL file {KiCad (5.1.5)-3} date 05/06/20 16:42:33
; FORMAT={-:-/ absolute / metric / decimal}
; #@! TF.CreationDate,2020-05-06T16:42:33+05:30
; #@! TF.GenerationSoftware,Kicad,Pcbnew,(5.1.5)-3
; #@! TF.FileFunction,Plated,3,4,Blind
FMAT,2
METRIC
T1C0.102
%
G90
G05
T1
X6.325Y22.25
X11.025Y21.4
X11.157Y22.968
X11.25Y24.125
X11.25Y22.375
X11.25Y21.875
X11.725Y25.275
X12.7Y28.3
X12.725Y27.325
X12.75Y26.275
X12.775Y25.275
X13.7Y26.35
X13.725Y33.3
X13.8Y29.425
X14.75Y26.3
X14.75Y25.275
X14.775Y29.375
X15.7Y28.3
X15.725Y32.3
X15.775Y27.3
X16.725Y31.3
X16.75Y25.325
X16.806Y29.2
X17.7Y31.3
X17.725Y25.325
X17.725Y24.325
X17.75Y33.325
X17.75Y23.35
X18.7Y26.35
X18.725Y25.325
X18.75Y28.3
X18.805Y27.25
X19.75Y24.325
X20.7Y24.3
X20.725Y29.325
X20.75Y27.3
X21.55Y30.5
X21.725Y31.325
X21.725Y29.3
X21.725Y26.3
X22.675Y29.35
X22.7Y30.45
X22.7Y24.35
X22.725Y31.325
X22.725Y26.3
T0
M30
