G04 #@! TF.GenerationSoftware,KiCad,Pcbnew,(5.1.5)-3*
G04 #@! TF.CreationDate,2020-08-10T10:15:20+05:30*
G04 #@! TF.ProjectId,D_Tympan_DFMI_1.0,445f5479-6d70-4616-9e5f-44464d495f31,rev?*
G04 #@! TF.SameCoordinates,Original*
G04 #@! TF.FileFunction,Paste,Top*
G04 #@! TF.FilePolarity,Positive*
%FSLAX46Y46*%
G04 Gerber Fmt 4.6, Leading zero omitted, Abs format (unit mm)*
G04 Created by KiCad (PCBNEW (5.1.5)-3) date 2020-08-10 10:15:20*
%MOMM*%
%LPD*%
G04 APERTURE LIST*
%ADD10R,2.800000X2.800000*%
%ADD11R,2.800000X2.200000*%
%ADD12R,0.400000X0.600000*%
%ADD13R,0.400000X0.500000*%
%ADD14R,1.600000X1.200000*%
%ADD15R,0.500000X0.600000*%
%ADD16R,0.800000X0.750000*%
%ADD17R,0.600000X0.400000*%
%ADD18R,0.600000X1.000000*%
%ADD19R,1.000000X0.600000*%
%ADD20R,1.000000X1.600000*%
%ADD21R,0.750000X0.800000*%
%ADD22R,0.200000X0.750000*%
%ADD23R,0.750000X0.200000*%
%ADD24R,1.140000X1.140000*%
%ADD25R,0.600000X0.500000*%
%ADD26R,1.900000X1.900000*%
%ADD27R,1.600000X1.400000*%
%ADD28R,0.400000X1.350000*%
%ADD29R,1.050000X0.650000*%
%ADD30R,1.000000X0.800000*%
%ADD31R,0.650000X0.400000*%
%ADD32R,1.000000X0.700000*%
%ADD33R,1.200000X1.000000*%
%ADD34R,1.200000X1.150000*%
%ADD35R,1.200000X1.450000*%
%ADD36R,0.700000X1.000000*%
%ADD37R,0.900000X1.400000*%
%ADD38R,0.650000X1.060000*%
G04 APERTURE END LIST*
D10*
X140050000Y-58180000D03*
D11*
X148450000Y-50780000D03*
X140050000Y-48780000D03*
D12*
X119284420Y-115062180D03*
X120184420Y-115062180D03*
D13*
X122178420Y-115649480D03*
X122178420Y-114449480D03*
X122878420Y-115649480D03*
X122878420Y-114449480D03*
D12*
X118600000Y-109505000D03*
X119500000Y-109505000D03*
D14*
X119120000Y-102070000D03*
X115920000Y-102070000D03*
X119120000Y-104570000D03*
X115920000Y-104570000D03*
X115920000Y-99570000D03*
X119120000Y-99570000D03*
D15*
X133470000Y-64280000D03*
X133470000Y-63180000D03*
D16*
X133260000Y-58320000D03*
X134760000Y-58320000D03*
D17*
X137270000Y-117490000D03*
X137270000Y-118390000D03*
X135900000Y-79080000D03*
X135900000Y-79980000D03*
D18*
X151650000Y-104180000D03*
X150850000Y-104180000D03*
X150050000Y-104180000D03*
X149250000Y-104180000D03*
X148450000Y-104180000D03*
X147650000Y-104180000D03*
X146850000Y-104180000D03*
X146050000Y-104180000D03*
X145250000Y-104180000D03*
X144450000Y-104180000D03*
X143650000Y-104180000D03*
X142850000Y-104180000D03*
X142050000Y-104180000D03*
X141250000Y-104180000D03*
X140450000Y-104180000D03*
X139650000Y-104180000D03*
X138850000Y-104180000D03*
X138050000Y-104180000D03*
X137250000Y-104180000D03*
X136450000Y-104180000D03*
X135650000Y-104180000D03*
D19*
X134650000Y-105180000D03*
X134650000Y-105980000D03*
X134650000Y-106780000D03*
X134650000Y-107580000D03*
X134650000Y-108380000D03*
X134650000Y-109180000D03*
X134650000Y-109980000D03*
X134650000Y-110780000D03*
X134650000Y-111580000D03*
X134650000Y-112380000D03*
X134650000Y-113180000D03*
X134650000Y-113980000D03*
X134650000Y-114780000D03*
D18*
X135650000Y-115780000D03*
X136450000Y-115780000D03*
X137250000Y-115780000D03*
X138050000Y-115780000D03*
X138850000Y-115780000D03*
X139650000Y-115780000D03*
X140450000Y-115780000D03*
X141250000Y-115780000D03*
X142050000Y-115780000D03*
X142850000Y-115780000D03*
X143650000Y-115780000D03*
X144450000Y-115780000D03*
X145250000Y-115780000D03*
X146050000Y-115780000D03*
X146850000Y-115780000D03*
X147650000Y-115780000D03*
X148450000Y-115780000D03*
D20*
X126150000Y-87430000D03*
X129150000Y-87430000D03*
X138900000Y-87480000D03*
X135900000Y-87480000D03*
D16*
X133270000Y-56680000D03*
X134770000Y-56680000D03*
X134780000Y-59900000D03*
X133280000Y-59900000D03*
D21*
X138650000Y-64640000D03*
X138650000Y-63140000D03*
X130600000Y-63140000D03*
X130600000Y-64640000D03*
D16*
X134790000Y-55130000D03*
X133290000Y-55130000D03*
D22*
X131394600Y-77547000D03*
X131794600Y-77547000D03*
X132194600Y-77547000D03*
X132594600Y-77547000D03*
X132994600Y-77547000D03*
X133394600Y-77547000D03*
X133794600Y-77547000D03*
X134194600Y-77547000D03*
X134594600Y-77547000D03*
X134994600Y-77547000D03*
D23*
X135694600Y-76847000D03*
X135694600Y-76447000D03*
X135694600Y-76047000D03*
X135694600Y-75647000D03*
X135694600Y-75247000D03*
X135694600Y-74847000D03*
X135694600Y-74447000D03*
X135694600Y-74047000D03*
X135694600Y-73647000D03*
X135694600Y-73247000D03*
D22*
X134994600Y-72547000D03*
X134594600Y-72547000D03*
X134194600Y-72547000D03*
X133794600Y-72547000D03*
X133394600Y-72547000D03*
X132994600Y-72547000D03*
X132594600Y-72547000D03*
X132194600Y-72547000D03*
X131794600Y-72547000D03*
X131394600Y-72547000D03*
D23*
X130694600Y-73247000D03*
X130694600Y-73647000D03*
X130694600Y-74047000D03*
X130694600Y-74447000D03*
X130694600Y-74847000D03*
X130694600Y-75247000D03*
X130694600Y-75647000D03*
X130694600Y-76047000D03*
X130694600Y-76447000D03*
X130694600Y-76847000D03*
D24*
X134144600Y-74097000D03*
X132244600Y-74097000D03*
X134144600Y-75997000D03*
X132244600Y-75997000D03*
D10*
X124200000Y-62080000D03*
X119250000Y-58180000D03*
D11*
X127650000Y-50780000D03*
X119250000Y-48780000D03*
D15*
X135200000Y-90280000D03*
X135200000Y-91380000D03*
X129117900Y-75919400D03*
X129117900Y-77019400D03*
X128060000Y-67980000D03*
X128060000Y-69080000D03*
X138010000Y-80840000D03*
X138010000Y-79740000D03*
X139330000Y-80760000D03*
X139330000Y-79660000D03*
D25*
X129096400Y-79149100D03*
X127996400Y-79149100D03*
X129096400Y-78171200D03*
X127996400Y-78171200D03*
D15*
X128000300Y-75919400D03*
X128000300Y-77019400D03*
D25*
X129000000Y-72680000D03*
X127900000Y-72680000D03*
D15*
X129570000Y-69150000D03*
X129570000Y-68050000D03*
X135430000Y-68380000D03*
X135430000Y-67280000D03*
X134820000Y-64210000D03*
X134820000Y-63110000D03*
D25*
X125900000Y-114080000D03*
X124800000Y-114080000D03*
X149300000Y-67730000D03*
X150400000Y-67730000D03*
X149300000Y-66730000D03*
X150400000Y-66730000D03*
X117300000Y-67730000D03*
X118400000Y-67730000D03*
X118400000Y-66730000D03*
X117300000Y-66730000D03*
D15*
X121573380Y-75640200D03*
X121573380Y-74540200D03*
X121596240Y-78002220D03*
X121596240Y-79102220D03*
X121563220Y-80209480D03*
X121563220Y-81309480D03*
X121639420Y-83257480D03*
X121639420Y-84357480D03*
D17*
X130650000Y-87230000D03*
X130650000Y-88130000D03*
D12*
X137300000Y-71980000D03*
X138200000Y-71980000D03*
D17*
X134450000Y-87230000D03*
X134450000Y-88130000D03*
D15*
X132750000Y-92730000D03*
X132750000Y-93830000D03*
D25*
X134400000Y-94380000D03*
X135500000Y-94380000D03*
D15*
X130900000Y-92730000D03*
X130900000Y-93830000D03*
X131800000Y-92730000D03*
X131800000Y-93830000D03*
X131125000Y-91755000D03*
X131125000Y-90655000D03*
X132125000Y-91755000D03*
X132125000Y-90655000D03*
D26*
X129300000Y-119080000D03*
D27*
X131300000Y-116630000D03*
D28*
X126800000Y-116405000D03*
X127450000Y-116405000D03*
X129400000Y-116405000D03*
X128750000Y-116405000D03*
X128100000Y-116405000D03*
D27*
X124900000Y-116630000D03*
D26*
X126900000Y-119080000D03*
D12*
X135150000Y-92480000D03*
X134250000Y-92480000D03*
D17*
X127400000Y-114230000D03*
X127400000Y-113330000D03*
X128400000Y-114230000D03*
X128400000Y-113330000D03*
D29*
X147750000Y-100080000D03*
X151900000Y-100080000D03*
X147750000Y-102230000D03*
X151900000Y-102230000D03*
D15*
X140500000Y-93080000D03*
X140500000Y-94180000D03*
X141175000Y-101455000D03*
X141175000Y-102555000D03*
X140050000Y-101430000D03*
X140050000Y-102530000D03*
D30*
X134200000Y-117330000D03*
X135700000Y-117330000D03*
X135700000Y-118430000D03*
X134200000Y-118430000D03*
D12*
X142925000Y-102555000D03*
X142025000Y-102555000D03*
X138300000Y-102530000D03*
X139200000Y-102530000D03*
X142025000Y-101555000D03*
X142925000Y-101555000D03*
X139200000Y-101505000D03*
X138300000Y-101505000D03*
D17*
X138330000Y-117550000D03*
X138330000Y-118450000D03*
X139370000Y-117580000D03*
X139370000Y-118480000D03*
D25*
X134400000Y-93430000D03*
X135500000Y-93430000D03*
D15*
X133850000Y-91380000D03*
X133850000Y-90280000D03*
D25*
X124800000Y-111980000D03*
X125900000Y-111980000D03*
X124800000Y-111080000D03*
X125900000Y-111080000D03*
X124800000Y-110180000D03*
X125900000Y-110180000D03*
X130650000Y-114830000D03*
X131750000Y-114830000D03*
D16*
X124400000Y-113030000D03*
X125900000Y-113030000D03*
D31*
X140122960Y-67031020D03*
X140122960Y-68331020D03*
X140122960Y-67681020D03*
X142022960Y-68331020D03*
X142022960Y-67031020D03*
D32*
X142560000Y-89430000D03*
X142560000Y-90530000D03*
X142560000Y-91630000D03*
X142560000Y-92730000D03*
X142560000Y-93830000D03*
X142560000Y-94930000D03*
X142560000Y-96030000D03*
X142560000Y-97130000D03*
D33*
X143610000Y-98405000D03*
D34*
X146200000Y-98205000D03*
D35*
X144050000Y-87805000D03*
D36*
X145200000Y-87580000D03*
D37*
X146350000Y-87780000D03*
D12*
X122937780Y-112694900D03*
X122037780Y-112694900D03*
D38*
X118612500Y-113067500D03*
X119562500Y-113067500D03*
X120512500Y-113067500D03*
X120512500Y-110867500D03*
X118612500Y-110867500D03*
D17*
X131150000Y-79980000D03*
X131150000Y-79080000D03*
X133050000Y-79080000D03*
X133050000Y-79980000D03*
X134000000Y-79080000D03*
X134000000Y-79980000D03*
X134950000Y-79980000D03*
X134950000Y-79080000D03*
X132100000Y-79980000D03*
X132100000Y-79080000D03*
D12*
X139896520Y-75539780D03*
X140796520Y-75539780D03*
X138870000Y-76450000D03*
X137970000Y-76450000D03*
D16*
X122100000Y-111480000D03*
X123600000Y-111480000D03*
M02*
