M48
; DRILL file {KiCad (5.1.5)-3} date 08/10/20 10:15:24
; FORMAT={-:-/ absolute / metric / decimal}
; #@! TF.CreationDate,2020-08-10T10:15:24+05:30
; #@! TF.GenerationSoftware,Kicad,Pcbnew,(5.1.5)-3
; #@! TF.FileFunction,Plated,1,4,PTH
FMAT,2
METRIC
T1C0.150
T2C0.400
T3C0.800
T4C1.000
%
G90
G05
T1
X151.48Y-66.12
T2
X116.575Y-66.309
X116.58Y-62.73
X116.82Y-96.45
X117.1Y-86.81
X117.42Y-110.54
X118.08Y-92.75
X118.424Y-68.799
X118.79Y-90.3
X119.3Y-61.781
X119.34Y-66.1
X119.63Y-68.814
X120.588Y-85.588
X120.64Y-86.83
X120.95Y-103.62
X121.07Y-99.47
X121.44Y-113.72
X121.89Y-85.58
X121.97Y-90.92
X122.73Y-93.27
X122.77Y-102.36
X122.9Y-116.89
X123.19Y-69.39
X123.22Y-85.2
X123.24Y-91.66
X123.34Y-80.14
X123.824Y-100.66
X123.83Y-114.44
X123.91Y-78.07
X124.4Y-70.45
X124.46Y-66.9
X124.59Y-83.01
X124.68Y-101.54
X124.751Y-109.169
X125.21Y-105.07
X125.22Y-77.01
X125.29Y-92.63
X125.29Y-96.3
X125.45Y-99.71
X125.76Y-91.29
X125.84Y-85.16
X125.86Y-74.31
X125.88Y-94.23
X125.91Y-81.99
X125.93Y-89.29
X125.93Y-90.08
X126.11Y-92.07
X126.15Y-93.27
X126.15Y-99.17
X126.17Y-95.04
X126.229Y-97.47
X126.28Y-98.32
X126.29Y-56.69
X126.43Y-72.79
X126.75Y-74.19
X126.86Y-76.32
X126.91Y-85.43
X127.41Y-64.82
X127.61Y-74.98
X127.99Y-81.2
X128.04Y-83.74
X128.17Y-63.2
X128.18Y-52.79
X128.51Y-99.16
X128.81Y-100.06
X128.98Y-71.387
X129.01Y-83.72
X129.09Y-85.28
X129.67Y-72.1
X130.05Y-78.99
X130.08Y-85.3
X130.56Y-69.14
X130.63Y-77.69
X130.68Y-58.5
X130.68Y-112.76
X130.97Y-66.46
X131.04Y-82.97
X131.35Y-111.67
X131.42Y-70.7
X131.48Y-98.46
X131.68Y-105.1
X131.94Y-82.89
X131.96Y-56.75
X132.04Y-106.48
X132.14Y-81.97
X132.24Y-84.73
X132.31Y-109.36
X132.38Y-70.22
X132.48Y-103.55
X132.51Y-68.78
X132.82Y-117.86
X132.87Y-118.77
X132.92Y-110.55
X133.082Y-81.026
X133.146Y-83.109
X133.31Y-85.51
X133.98Y-80.93
X134.29Y-116.15
X134.68Y-102.474
X134.7Y-98.64
X134.75Y-61.65
X134.84Y-83.72
X135.06Y-100.42
X135.15Y-85.37
X135.69Y-119.53
X135.744Y-69.97
X135.9Y-81.08
X135.94Y-85.49
X136.427Y-83.8
X136.53Y-100.44
X136.61Y-102.332
X136.73Y-68.82
X136.95Y-76.84
X136.97Y-113.51
X137.01Y-79.4
X137.019Y-73.139
X137.31Y-119.07
X137.321Y-70.45
X137.34Y-101.9
X137.68Y-98.58
X137.76Y-78.45
X137.86Y-82.15
X138.04Y-74.382
X138.12Y-106.62
X138.2Y-73.36
X138.56Y-99.79
X138.68Y-98.45
X138.693Y-67.092
X138.89Y-92.99
X138.99Y-91.16
X139.14Y-90.38
X139.28Y-100.22
X139.54Y-119.86
X139.66Y-91.81
X139.74Y-77.72
X139.79Y-76.46
X139.821Y-74.188
X140.0Y-51.47
X140.23Y-100.47
X140.4Y-89.78
X140.542Y-87.681
X140.57Y-117.88
X140.79Y-76.44
X140.85Y-78.48
X141.06Y-96.06
X141.09Y-97.18
X141.26Y-111.71
X141.28Y-90.53
X141.39Y-93.84
X141.43Y-89.66
X141.45Y-117.98
X141.5Y-100.56
X141.65Y-85.73
X141.71Y-88.35
X141.96Y-83.78
X141.995Y-69.718
X142.61Y-72.12
X142.65Y-117.75
X142.83Y-114.32
X142.92Y-67.05
X143.34Y-73.17
X144.017Y-85.598
X144.09Y-90.12
X145.16Y-92.76
X145.17Y-83.9
X145.452Y-78.092
X145.518Y-79.512
X145.87Y-106.64
X146.22Y-100.1
X146.244Y-82.979
X146.354Y-70.866
X146.36Y-66.83
X146.364Y-85.547
X146.41Y-75.83
X148.515Y-87.318
X151.07Y-69.42
T3
X116.65Y-107.68
X118.65Y-107.68
X120.65Y-107.68
T4
X151.05Y-71.78
X151.05Y-74.32
X151.05Y-76.86
X151.05Y-79.4
X151.05Y-81.94
X151.05Y-84.48
X116.628Y-71.78
X116.628Y-74.32
X116.628Y-76.86
X116.628Y-79.4
X116.628Y-81.94
X116.628Y-84.48
X120.15Y-89.05
X120.15Y-91.59
X120.15Y-94.13
X124.8Y-119.08
X131.4Y-119.08
X119.168Y-71.78
X119.168Y-74.32
X119.168Y-76.86
X119.168Y-79.4
X119.168Y-81.94
X119.168Y-84.48
X148.35Y-71.773
X148.35Y-74.313
X148.35Y-76.853
X148.35Y-79.393
X148.35Y-81.933
X148.35Y-84.473
T0
M30
