G04 #@! TF.GenerationSoftware,KiCad,Pcbnew,(5.1.5)-3*
G04 #@! TF.CreationDate,2020-08-10T10:15:20+05:30*
G04 #@! TF.ProjectId,D_Tympan_DFMI_1.0,445f5479-6d70-4616-9e5f-44464d495f31,rev?*
G04 #@! TF.SameCoordinates,Original*
G04 #@! TF.FileFunction,Soldermask,Top*
G04 #@! TF.FilePolarity,Negative*
%FSLAX46Y46*%
G04 Gerber Fmt 4.6, Leading zero omitted, Abs format (unit mm)*
G04 Created by KiCad (PCBNEW (5.1.5)-3) date 2020-08-10 10:15:20*
%MOMM*%
%LPD*%
G04 APERTURE LIST*
%ADD10C,0.100000*%
G04 APERTURE END LIST*
D10*
G36*
X130300000Y-120080000D02*
G01*
X128300000Y-120080000D01*
X128300000Y-118080000D01*
X130300000Y-118080000D01*
X130300000Y-120080000D01*
G37*
G36*
X127900000Y-120080000D02*
G01*
X125900000Y-120080000D01*
X125900000Y-118080000D01*
X127900000Y-118080000D01*
X127900000Y-120080000D01*
G37*
G36*
X125018767Y-118358822D02*
G01*
X125155258Y-118415359D01*
X125236967Y-118469955D01*
X125278099Y-118497438D01*
X125382562Y-118601901D01*
X125410045Y-118643033D01*
X125464641Y-118724742D01*
X125521178Y-118861233D01*
X125550000Y-119006131D01*
X125550000Y-119153869D01*
X125521178Y-119298767D01*
X125464641Y-119435258D01*
X125410045Y-119516967D01*
X125382562Y-119558099D01*
X125278099Y-119662562D01*
X125236967Y-119690045D01*
X125155258Y-119744641D01*
X125018767Y-119801178D01*
X124873869Y-119830000D01*
X124726131Y-119830000D01*
X124581233Y-119801178D01*
X124444742Y-119744641D01*
X124363033Y-119690045D01*
X124321901Y-119662562D01*
X124217438Y-119558099D01*
X124189955Y-119516967D01*
X124135359Y-119435258D01*
X124078822Y-119298767D01*
X124050000Y-119153869D01*
X124050000Y-119006131D01*
X124078822Y-118861233D01*
X124135359Y-118724742D01*
X124189955Y-118643033D01*
X124217438Y-118601901D01*
X124321901Y-118497438D01*
X124363033Y-118469955D01*
X124444742Y-118415359D01*
X124581233Y-118358822D01*
X124726131Y-118330000D01*
X124873869Y-118330000D01*
X125018767Y-118358822D01*
G37*
G36*
X131618767Y-118358822D02*
G01*
X131755258Y-118415359D01*
X131836967Y-118469955D01*
X131878099Y-118497438D01*
X131982562Y-118601901D01*
X132010045Y-118643033D01*
X132064641Y-118724742D01*
X132121178Y-118861233D01*
X132150000Y-119006131D01*
X132150000Y-119153869D01*
X132121178Y-119298767D01*
X132064641Y-119435258D01*
X132010045Y-119516967D01*
X131982562Y-119558099D01*
X131878099Y-119662562D01*
X131836967Y-119690045D01*
X131755258Y-119744641D01*
X131618767Y-119801178D01*
X131473869Y-119830000D01*
X131326131Y-119830000D01*
X131181233Y-119801178D01*
X131044742Y-119744641D01*
X130963033Y-119690045D01*
X130921901Y-119662562D01*
X130817438Y-119558099D01*
X130789955Y-119516967D01*
X130735359Y-119435258D01*
X130678822Y-119298767D01*
X130650000Y-119153869D01*
X130650000Y-119006131D01*
X130678822Y-118861233D01*
X130735359Y-118724742D01*
X130789955Y-118643033D01*
X130817438Y-118601901D01*
X130921901Y-118497438D01*
X130963033Y-118469955D01*
X131044742Y-118415359D01*
X131181233Y-118358822D01*
X131326131Y-118330000D01*
X131473869Y-118330000D01*
X131618767Y-118358822D01*
G37*
G36*
X134750000Y-118880000D02*
G01*
X133650000Y-118880000D01*
X133650000Y-117980000D01*
X134750000Y-117980000D01*
X134750000Y-118880000D01*
G37*
G36*
X136250000Y-118880000D02*
G01*
X135150000Y-118880000D01*
X135150000Y-117980000D01*
X136250000Y-117980000D01*
X136250000Y-118880000D01*
G37*
G36*
X139720000Y-118730000D02*
G01*
X139020000Y-118730000D01*
X139020000Y-118230000D01*
X139720000Y-118230000D01*
X139720000Y-118730000D01*
G37*
G36*
X138680000Y-118700000D02*
G01*
X137980000Y-118700000D01*
X137980000Y-118200000D01*
X138680000Y-118200000D01*
X138680000Y-118700000D01*
G37*
G36*
X137620000Y-118640000D02*
G01*
X136920000Y-118640000D01*
X136920000Y-118140000D01*
X137620000Y-118140000D01*
X137620000Y-118640000D01*
G37*
G36*
X139720000Y-117830000D02*
G01*
X139020000Y-117830000D01*
X139020000Y-117330000D01*
X139720000Y-117330000D01*
X139720000Y-117830000D01*
G37*
G36*
X138680000Y-117800000D02*
G01*
X137980000Y-117800000D01*
X137980000Y-117300000D01*
X138680000Y-117300000D01*
X138680000Y-117800000D01*
G37*
G36*
X134750000Y-117780000D02*
G01*
X133650000Y-117780000D01*
X133650000Y-116880000D01*
X134750000Y-116880000D01*
X134750000Y-117780000D01*
G37*
G36*
X136250000Y-117780000D02*
G01*
X135150000Y-117780000D01*
X135150000Y-116880000D01*
X136250000Y-116880000D01*
X136250000Y-117780000D01*
G37*
G36*
X137620000Y-117740000D02*
G01*
X136920000Y-117740000D01*
X136920000Y-117240000D01*
X137620000Y-117240000D01*
X137620000Y-117740000D01*
G37*
G36*
X132150000Y-117380000D02*
G01*
X130450000Y-117380000D01*
X130450000Y-115880000D01*
X132150000Y-115880000D01*
X132150000Y-117380000D01*
G37*
G36*
X125750000Y-117380000D02*
G01*
X124050000Y-117380000D01*
X124050000Y-115880000D01*
X125750000Y-115880000D01*
X125750000Y-117380000D01*
G37*
G36*
X129000000Y-117130000D02*
G01*
X128500000Y-117130000D01*
X128500000Y-115680000D01*
X129000000Y-115680000D01*
X129000000Y-117130000D01*
G37*
G36*
X127700000Y-117130000D02*
G01*
X127200000Y-117130000D01*
X127200000Y-115680000D01*
X127700000Y-115680000D01*
X127700000Y-117130000D01*
G37*
G36*
X128350000Y-117130000D02*
G01*
X127850000Y-117130000D01*
X127850000Y-115680000D01*
X128350000Y-115680000D01*
X128350000Y-117130000D01*
G37*
G36*
X129650000Y-117130000D02*
G01*
X129150000Y-117130000D01*
X129150000Y-115680000D01*
X129650000Y-115680000D01*
X129650000Y-117130000D01*
G37*
G36*
X127050000Y-117130000D02*
G01*
X126550000Y-117130000D01*
X126550000Y-115680000D01*
X127050000Y-115680000D01*
X127050000Y-117130000D01*
G37*
G36*
X146400000Y-116330000D02*
G01*
X145700000Y-116330000D01*
X145700000Y-115230000D01*
X146400000Y-115230000D01*
X146400000Y-116330000D01*
G37*
G36*
X136000000Y-116330000D02*
G01*
X135300000Y-116330000D01*
X135300000Y-115230000D01*
X136000000Y-115230000D01*
X136000000Y-116330000D01*
G37*
G36*
X136800000Y-116330000D02*
G01*
X136100000Y-116330000D01*
X136100000Y-115230000D01*
X136800000Y-115230000D01*
X136800000Y-116330000D01*
G37*
G36*
X137600000Y-116330000D02*
G01*
X136900000Y-116330000D01*
X136900000Y-115230000D01*
X137600000Y-115230000D01*
X137600000Y-116330000D01*
G37*
G36*
X139200000Y-116330000D02*
G01*
X138500000Y-116330000D01*
X138500000Y-115230000D01*
X139200000Y-115230000D01*
X139200000Y-116330000D01*
G37*
G36*
X140000000Y-116330000D02*
G01*
X139300000Y-116330000D01*
X139300000Y-115230000D01*
X140000000Y-115230000D01*
X140000000Y-116330000D01*
G37*
G36*
X141600000Y-116330000D02*
G01*
X140900000Y-116330000D01*
X140900000Y-115230000D01*
X141600000Y-115230000D01*
X141600000Y-116330000D01*
G37*
G36*
X140800000Y-116330000D02*
G01*
X140100000Y-116330000D01*
X140100000Y-115230000D01*
X140800000Y-115230000D01*
X140800000Y-116330000D01*
G37*
G36*
X142400000Y-116330000D02*
G01*
X141700000Y-116330000D01*
X141700000Y-115230000D01*
X142400000Y-115230000D01*
X142400000Y-116330000D01*
G37*
G36*
X143200000Y-116330000D02*
G01*
X142500000Y-116330000D01*
X142500000Y-115230000D01*
X143200000Y-115230000D01*
X143200000Y-116330000D01*
G37*
G36*
X144000000Y-116330000D02*
G01*
X143300000Y-116330000D01*
X143300000Y-115230000D01*
X144000000Y-115230000D01*
X144000000Y-116330000D01*
G37*
G36*
X138400000Y-116330000D02*
G01*
X137700000Y-116330000D01*
X137700000Y-115230000D01*
X138400000Y-115230000D01*
X138400000Y-116330000D01*
G37*
G36*
X144800000Y-116330000D02*
G01*
X144100000Y-116330000D01*
X144100000Y-115230000D01*
X144800000Y-115230000D01*
X144800000Y-116330000D01*
G37*
G36*
X145600000Y-116330000D02*
G01*
X144900000Y-116330000D01*
X144900000Y-115230000D01*
X145600000Y-115230000D01*
X145600000Y-116330000D01*
G37*
G36*
X147200000Y-116330000D02*
G01*
X146500000Y-116330000D01*
X146500000Y-115230000D01*
X147200000Y-115230000D01*
X147200000Y-116330000D01*
G37*
G36*
X148000000Y-116330000D02*
G01*
X147300000Y-116330000D01*
X147300000Y-115230000D01*
X148000000Y-115230000D01*
X148000000Y-116330000D01*
G37*
G36*
X148800000Y-116330000D02*
G01*
X148100000Y-116330000D01*
X148100000Y-115230000D01*
X148800000Y-115230000D01*
X148800000Y-116330000D01*
G37*
G36*
X123128420Y-115949480D02*
G01*
X122628420Y-115949480D01*
X122628420Y-115349480D01*
X123128420Y-115349480D01*
X123128420Y-115949480D01*
G37*
G36*
X122428420Y-115949480D02*
G01*
X121928420Y-115949480D01*
X121928420Y-115349480D01*
X122428420Y-115349480D01*
X122428420Y-115949480D01*
G37*
G36*
X120434420Y-115412180D02*
G01*
X119934420Y-115412180D01*
X119934420Y-114712180D01*
X120434420Y-114712180D01*
X120434420Y-115412180D01*
G37*
G36*
X119534420Y-115412180D02*
G01*
X119034420Y-115412180D01*
X119034420Y-114712180D01*
X119534420Y-114712180D01*
X119534420Y-115412180D01*
G37*
G36*
X135200000Y-115130000D02*
G01*
X134100000Y-115130000D01*
X134100000Y-114430000D01*
X135200000Y-114430000D01*
X135200000Y-115130000D01*
G37*
G36*
X131000000Y-115130000D02*
G01*
X130300000Y-115130000D01*
X130300000Y-114530000D01*
X131000000Y-114530000D01*
X131000000Y-115130000D01*
G37*
G36*
X132100000Y-115130000D02*
G01*
X131400000Y-115130000D01*
X131400000Y-114530000D01*
X132100000Y-114530000D01*
X132100000Y-115130000D01*
G37*
G36*
X123128420Y-114749480D02*
G01*
X122628420Y-114749480D01*
X122628420Y-114149480D01*
X123128420Y-114149480D01*
X123128420Y-114749480D01*
G37*
G36*
X122428420Y-114749480D02*
G01*
X121928420Y-114749480D01*
X121928420Y-114149480D01*
X122428420Y-114149480D01*
X122428420Y-114749480D01*
G37*
G36*
X127750000Y-114480000D02*
G01*
X127050000Y-114480000D01*
X127050000Y-113980000D01*
X127750000Y-113980000D01*
X127750000Y-114480000D01*
G37*
G36*
X128750000Y-114480000D02*
G01*
X128050000Y-114480000D01*
X128050000Y-113980000D01*
X128750000Y-113980000D01*
X128750000Y-114480000D01*
G37*
G36*
X125150000Y-114380000D02*
G01*
X124450000Y-114380000D01*
X124450000Y-113780000D01*
X125150000Y-113780000D01*
X125150000Y-114380000D01*
G37*
G36*
X126250000Y-114380000D02*
G01*
X125550000Y-114380000D01*
X125550000Y-113780000D01*
X126250000Y-113780000D01*
X126250000Y-114380000D01*
G37*
G36*
X135200000Y-114330000D02*
G01*
X134100000Y-114330000D01*
X134100000Y-113630000D01*
X135200000Y-113630000D01*
X135200000Y-114330000D01*
G37*
G36*
X118987500Y-113647500D02*
G01*
X118237500Y-113647500D01*
X118237500Y-112487500D01*
X118987500Y-112487500D01*
X118987500Y-113647500D01*
G37*
G36*
X119937500Y-113647500D02*
G01*
X119187500Y-113647500D01*
X119187500Y-112487500D01*
X119937500Y-112487500D01*
X119937500Y-113647500D01*
G37*
G36*
X120887500Y-113647500D02*
G01*
X120137500Y-113647500D01*
X120137500Y-112487500D01*
X120887500Y-112487500D01*
X120887500Y-113647500D01*
G37*
G36*
X128750000Y-113580000D02*
G01*
X128050000Y-113580000D01*
X128050000Y-113080000D01*
X128750000Y-113080000D01*
X128750000Y-113580000D01*
G37*
G36*
X127750000Y-113580000D02*
G01*
X127050000Y-113580000D01*
X127050000Y-113080000D01*
X127750000Y-113080000D01*
X127750000Y-113580000D01*
G37*
G36*
X135200000Y-113530000D02*
G01*
X134100000Y-113530000D01*
X134100000Y-112830000D01*
X135200000Y-112830000D01*
X135200000Y-113530000D01*
G37*
G36*
X126350000Y-113455000D02*
G01*
X125450000Y-113455000D01*
X125450000Y-112605000D01*
X126350000Y-112605000D01*
X126350000Y-113455000D01*
G37*
G36*
X124850000Y-113455000D02*
G01*
X123950000Y-113455000D01*
X123950000Y-112605000D01*
X124850000Y-112605000D01*
X124850000Y-113455000D01*
G37*
G36*
X123187780Y-113044900D02*
G01*
X122687780Y-113044900D01*
X122687780Y-112344900D01*
X123187780Y-112344900D01*
X123187780Y-113044900D01*
G37*
G36*
X122287780Y-113044900D02*
G01*
X121787780Y-113044900D01*
X121787780Y-112344900D01*
X122287780Y-112344900D01*
X122287780Y-113044900D01*
G37*
G36*
X135200000Y-112730000D02*
G01*
X134100000Y-112730000D01*
X134100000Y-112030000D01*
X135200000Y-112030000D01*
X135200000Y-112730000D01*
G37*
G36*
X126250000Y-112280000D02*
G01*
X125550000Y-112280000D01*
X125550000Y-111680000D01*
X126250000Y-111680000D01*
X126250000Y-112280000D01*
G37*
G36*
X125150000Y-112280000D02*
G01*
X124450000Y-112280000D01*
X124450000Y-111680000D01*
X125150000Y-111680000D01*
X125150000Y-112280000D01*
G37*
G36*
X135200000Y-111930000D02*
G01*
X134100000Y-111930000D01*
X134100000Y-111230000D01*
X135200000Y-111230000D01*
X135200000Y-111930000D01*
G37*
G36*
X122550000Y-111905000D02*
G01*
X121650000Y-111905000D01*
X121650000Y-111055000D01*
X122550000Y-111055000D01*
X122550000Y-111905000D01*
G37*
G36*
X124050000Y-111905000D02*
G01*
X123150000Y-111905000D01*
X123150000Y-111055000D01*
X124050000Y-111055000D01*
X124050000Y-111905000D01*
G37*
G36*
X118987500Y-111447500D02*
G01*
X118237500Y-111447500D01*
X118237500Y-110287500D01*
X118987500Y-110287500D01*
X118987500Y-111447500D01*
G37*
G36*
X120887500Y-111447500D02*
G01*
X120137500Y-111447500D01*
X120137500Y-110287500D01*
X120887500Y-110287500D01*
X120887500Y-111447500D01*
G37*
G36*
X125150000Y-111380000D02*
G01*
X124450000Y-111380000D01*
X124450000Y-110780000D01*
X125150000Y-110780000D01*
X125150000Y-111380000D01*
G37*
G36*
X126250000Y-111380000D02*
G01*
X125550000Y-111380000D01*
X125550000Y-110780000D01*
X126250000Y-110780000D01*
X126250000Y-111380000D01*
G37*
G36*
X135200000Y-111130000D02*
G01*
X134100000Y-111130000D01*
X134100000Y-110430000D01*
X135200000Y-110430000D01*
X135200000Y-111130000D01*
G37*
G36*
X125150000Y-110480000D02*
G01*
X124450000Y-110480000D01*
X124450000Y-109880000D01*
X125150000Y-109880000D01*
X125150000Y-110480000D01*
G37*
G36*
X126250000Y-110480000D02*
G01*
X125550000Y-110480000D01*
X125550000Y-109880000D01*
X126250000Y-109880000D01*
X126250000Y-110480000D01*
G37*
G36*
X135200000Y-110330000D02*
G01*
X134100000Y-110330000D01*
X134100000Y-109630000D01*
X135200000Y-109630000D01*
X135200000Y-110330000D01*
G37*
G36*
X119750000Y-109855000D02*
G01*
X119250000Y-109855000D01*
X119250000Y-109155000D01*
X119750000Y-109155000D01*
X119750000Y-109855000D01*
G37*
G36*
X118850000Y-109855000D02*
G01*
X118350000Y-109855000D01*
X118350000Y-109155000D01*
X118850000Y-109155000D01*
X118850000Y-109855000D01*
G37*
G36*
X135200000Y-109530000D02*
G01*
X134100000Y-109530000D01*
X134100000Y-108830000D01*
X135200000Y-108830000D01*
X135200000Y-109530000D01*
G37*
G36*
X135200000Y-108730000D02*
G01*
X134100000Y-108730000D01*
X134100000Y-108030000D01*
X135200000Y-108030000D01*
X135200000Y-108730000D01*
G37*
G36*
X121375000Y-108405000D02*
G01*
X119925000Y-108405000D01*
X119925000Y-106955000D01*
X121375000Y-106955000D01*
X121375000Y-108405000D01*
G37*
G36*
X118861475Y-106982861D02*
G01*
X118993416Y-107037513D01*
X119112161Y-107116856D01*
X119213144Y-107217839D01*
X119292487Y-107336584D01*
X119347139Y-107468525D01*
X119375000Y-107608594D01*
X119375000Y-107751406D01*
X119347139Y-107891475D01*
X119292487Y-108023416D01*
X119213144Y-108142161D01*
X119112161Y-108243144D01*
X118993416Y-108322487D01*
X118861475Y-108377139D01*
X118721406Y-108405000D01*
X118578594Y-108405000D01*
X118438525Y-108377139D01*
X118306584Y-108322487D01*
X118187839Y-108243144D01*
X118086856Y-108142161D01*
X118007513Y-108023416D01*
X117952861Y-107891475D01*
X117925000Y-107751406D01*
X117925000Y-107608594D01*
X117952861Y-107468525D01*
X118007513Y-107336584D01*
X118086856Y-107217839D01*
X118187839Y-107116856D01*
X118306584Y-107037513D01*
X118438525Y-106982861D01*
X118578594Y-106955000D01*
X118721406Y-106955000D01*
X118861475Y-106982861D01*
G37*
G36*
X116861475Y-106982861D02*
G01*
X116993416Y-107037513D01*
X117112161Y-107116856D01*
X117213144Y-107217839D01*
X117292487Y-107336584D01*
X117347139Y-107468525D01*
X117375000Y-107608594D01*
X117375000Y-107751406D01*
X117347139Y-107891475D01*
X117292487Y-108023416D01*
X117213144Y-108142161D01*
X117112161Y-108243144D01*
X116993416Y-108322487D01*
X116861475Y-108377139D01*
X116721406Y-108405000D01*
X116578594Y-108405000D01*
X116438525Y-108377139D01*
X116306584Y-108322487D01*
X116187839Y-108243144D01*
X116086856Y-108142161D01*
X116007513Y-108023416D01*
X115952861Y-107891475D01*
X115925000Y-107751406D01*
X115925000Y-107608594D01*
X115952861Y-107468525D01*
X116007513Y-107336584D01*
X116086856Y-107217839D01*
X116187839Y-107116856D01*
X116306584Y-107037513D01*
X116438525Y-106982861D01*
X116578594Y-106955000D01*
X116721406Y-106955000D01*
X116861475Y-106982861D01*
G37*
G36*
X135200000Y-107930000D02*
G01*
X134100000Y-107930000D01*
X134100000Y-107230000D01*
X135200000Y-107230000D01*
X135200000Y-107930000D01*
G37*
G36*
X135200000Y-107130000D02*
G01*
X134100000Y-107130000D01*
X134100000Y-106430000D01*
X135200000Y-106430000D01*
X135200000Y-107130000D01*
G37*
G36*
X135200000Y-106330000D02*
G01*
X134100000Y-106330000D01*
X134100000Y-105630000D01*
X135200000Y-105630000D01*
X135200000Y-106330000D01*
G37*
G36*
X135200000Y-105530000D02*
G01*
X134100000Y-105530000D01*
X134100000Y-104830000D01*
X135200000Y-104830000D01*
X135200000Y-105530000D01*
G37*
G36*
X116770000Y-105220000D02*
G01*
X115070000Y-105220000D01*
X115070000Y-103920000D01*
X116770000Y-103920000D01*
X116770000Y-105220000D01*
G37*
G36*
X119970000Y-105220000D02*
G01*
X118270000Y-105220000D01*
X118270000Y-103920000D01*
X119970000Y-103920000D01*
X119970000Y-105220000D01*
G37*
G36*
X148800000Y-104730000D02*
G01*
X148100000Y-104730000D01*
X148100000Y-103630000D01*
X148800000Y-103630000D01*
X148800000Y-104730000D01*
G37*
G36*
X152000000Y-104730000D02*
G01*
X151300000Y-104730000D01*
X151300000Y-103630000D01*
X152000000Y-103630000D01*
X152000000Y-104730000D01*
G37*
G36*
X151200000Y-104730000D02*
G01*
X150500000Y-104730000D01*
X150500000Y-103630000D01*
X151200000Y-103630000D01*
X151200000Y-104730000D01*
G37*
G36*
X150400000Y-104730000D02*
G01*
X149700000Y-104730000D01*
X149700000Y-103630000D01*
X150400000Y-103630000D01*
X150400000Y-104730000D01*
G37*
G36*
X149600000Y-104730000D02*
G01*
X148900000Y-104730000D01*
X148900000Y-103630000D01*
X149600000Y-103630000D01*
X149600000Y-104730000D01*
G37*
G36*
X148000000Y-104730000D02*
G01*
X147300000Y-104730000D01*
X147300000Y-103630000D01*
X148000000Y-103630000D01*
X148000000Y-104730000D01*
G37*
G36*
X147200000Y-104730000D02*
G01*
X146500000Y-104730000D01*
X146500000Y-103630000D01*
X147200000Y-103630000D01*
X147200000Y-104730000D01*
G37*
G36*
X146400000Y-104730000D02*
G01*
X145700000Y-104730000D01*
X145700000Y-103630000D01*
X146400000Y-103630000D01*
X146400000Y-104730000D01*
G37*
G36*
X145600000Y-104730000D02*
G01*
X144900000Y-104730000D01*
X144900000Y-103630000D01*
X145600000Y-103630000D01*
X145600000Y-104730000D01*
G37*
G36*
X144800000Y-104730000D02*
G01*
X144100000Y-104730000D01*
X144100000Y-103630000D01*
X144800000Y-103630000D01*
X144800000Y-104730000D01*
G37*
G36*
X143200000Y-104730000D02*
G01*
X142500000Y-104730000D01*
X142500000Y-103630000D01*
X143200000Y-103630000D01*
X143200000Y-104730000D01*
G37*
G36*
X142400000Y-104730000D02*
G01*
X141700000Y-104730000D01*
X141700000Y-103630000D01*
X142400000Y-103630000D01*
X142400000Y-104730000D01*
G37*
G36*
X141600000Y-104730000D02*
G01*
X140900000Y-104730000D01*
X140900000Y-103630000D01*
X141600000Y-103630000D01*
X141600000Y-104730000D01*
G37*
G36*
X140800000Y-104730000D02*
G01*
X140100000Y-104730000D01*
X140100000Y-103630000D01*
X140800000Y-103630000D01*
X140800000Y-104730000D01*
G37*
G36*
X140000000Y-104730000D02*
G01*
X139300000Y-104730000D01*
X139300000Y-103630000D01*
X140000000Y-103630000D01*
X140000000Y-104730000D01*
G37*
G36*
X139200000Y-104730000D02*
G01*
X138500000Y-104730000D01*
X138500000Y-103630000D01*
X139200000Y-103630000D01*
X139200000Y-104730000D01*
G37*
G36*
X138400000Y-104730000D02*
G01*
X137700000Y-104730000D01*
X137700000Y-103630000D01*
X138400000Y-103630000D01*
X138400000Y-104730000D01*
G37*
G36*
X137600000Y-104730000D02*
G01*
X136900000Y-104730000D01*
X136900000Y-103630000D01*
X137600000Y-103630000D01*
X137600000Y-104730000D01*
G37*
G36*
X136800000Y-104730000D02*
G01*
X136100000Y-104730000D01*
X136100000Y-103630000D01*
X136800000Y-103630000D01*
X136800000Y-104730000D01*
G37*
G36*
X136000000Y-104730000D02*
G01*
X135300000Y-104730000D01*
X135300000Y-103630000D01*
X136000000Y-103630000D01*
X136000000Y-104730000D01*
G37*
G36*
X144000000Y-104730000D02*
G01*
X143300000Y-104730000D01*
X143300000Y-103630000D01*
X144000000Y-103630000D01*
X144000000Y-104730000D01*
G37*
G36*
X143175000Y-102905000D02*
G01*
X142675000Y-102905000D01*
X142675000Y-102205000D01*
X143175000Y-102205000D01*
X143175000Y-102905000D01*
G37*
G36*
X141475000Y-102905000D02*
G01*
X140875000Y-102905000D01*
X140875000Y-102205000D01*
X141475000Y-102205000D01*
X141475000Y-102905000D01*
G37*
G36*
X142275000Y-102905000D02*
G01*
X141775000Y-102905000D01*
X141775000Y-102205000D01*
X142275000Y-102205000D01*
X142275000Y-102905000D01*
G37*
G36*
X139450000Y-102880000D02*
G01*
X138950000Y-102880000D01*
X138950000Y-102180000D01*
X139450000Y-102180000D01*
X139450000Y-102880000D01*
G37*
G36*
X138550000Y-102880000D02*
G01*
X138050000Y-102880000D01*
X138050000Y-102180000D01*
X138550000Y-102180000D01*
X138550000Y-102880000D01*
G37*
G36*
X140350000Y-102880000D02*
G01*
X139750000Y-102880000D01*
X139750000Y-102180000D01*
X140350000Y-102180000D01*
X140350000Y-102880000D01*
G37*
G36*
X119970000Y-102720000D02*
G01*
X118270000Y-102720000D01*
X118270000Y-101420000D01*
X119970000Y-101420000D01*
X119970000Y-102720000D01*
G37*
G36*
X116770000Y-102720000D02*
G01*
X115070000Y-102720000D01*
X115070000Y-101420000D01*
X116770000Y-101420000D01*
X116770000Y-102720000D01*
G37*
G36*
X152475000Y-102605000D02*
G01*
X151325000Y-102605000D01*
X151325000Y-101855000D01*
X152475000Y-101855000D01*
X152475000Y-102605000D01*
G37*
G36*
X148325000Y-102605000D02*
G01*
X147175000Y-102605000D01*
X147175000Y-101855000D01*
X148325000Y-101855000D01*
X148325000Y-102605000D01*
G37*
G36*
X143175000Y-101905000D02*
G01*
X142675000Y-101905000D01*
X142675000Y-101205000D01*
X143175000Y-101205000D01*
X143175000Y-101905000D01*
G37*
G36*
X142275000Y-101905000D02*
G01*
X141775000Y-101905000D01*
X141775000Y-101205000D01*
X142275000Y-101205000D01*
X142275000Y-101905000D01*
G37*
G36*
X139450000Y-101855000D02*
G01*
X138950000Y-101855000D01*
X138950000Y-101155000D01*
X139450000Y-101155000D01*
X139450000Y-101855000D01*
G37*
G36*
X138550000Y-101855000D02*
G01*
X138050000Y-101855000D01*
X138050000Y-101155000D01*
X138550000Y-101155000D01*
X138550000Y-101855000D01*
G37*
G36*
X141475000Y-101805000D02*
G01*
X140875000Y-101805000D01*
X140875000Y-101105000D01*
X141475000Y-101105000D01*
X141475000Y-101805000D01*
G37*
G36*
X140350000Y-101780000D02*
G01*
X139750000Y-101780000D01*
X139750000Y-101080000D01*
X140350000Y-101080000D01*
X140350000Y-101780000D01*
G37*
G36*
X148325000Y-100455000D02*
G01*
X147175000Y-100455000D01*
X147175000Y-99705000D01*
X148325000Y-99705000D01*
X148325000Y-100455000D01*
G37*
G36*
X152475000Y-100455000D02*
G01*
X151325000Y-100455000D01*
X151325000Y-99705000D01*
X152475000Y-99705000D01*
X152475000Y-100455000D01*
G37*
G36*
X116770000Y-100220000D02*
G01*
X115070000Y-100220000D01*
X115070000Y-98920000D01*
X116770000Y-98920000D01*
X116770000Y-100220000D01*
G37*
G36*
X119970000Y-100220000D02*
G01*
X118270000Y-100220000D01*
X118270000Y-98920000D01*
X119970000Y-98920000D01*
X119970000Y-100220000D01*
G37*
G36*
X144260000Y-98955000D02*
G01*
X142960000Y-98955000D01*
X142960000Y-97855000D01*
X144260000Y-97855000D01*
X144260000Y-98955000D01*
G37*
G36*
X146850000Y-98830000D02*
G01*
X145550000Y-98830000D01*
X145550000Y-97580000D01*
X146850000Y-97580000D01*
X146850000Y-98830000D01*
G37*
G36*
X143110000Y-97530000D02*
G01*
X142010000Y-97530000D01*
X142010000Y-96730000D01*
X143110000Y-96730000D01*
X143110000Y-97530000D01*
G37*
G36*
X143110000Y-96430000D02*
G01*
X142010000Y-96430000D01*
X142010000Y-95630000D01*
X143110000Y-95630000D01*
X143110000Y-96430000D01*
G37*
G36*
X143110000Y-95330000D02*
G01*
X142010000Y-95330000D01*
X142010000Y-94530000D01*
X143110000Y-94530000D01*
X143110000Y-95330000D01*
G37*
G36*
X121050000Y-95030000D02*
G01*
X119250000Y-95030000D01*
X119250000Y-93230000D01*
X121050000Y-93230000D01*
X121050000Y-95030000D01*
G37*
G36*
X134750000Y-94680000D02*
G01*
X134050000Y-94680000D01*
X134050000Y-94080000D01*
X134750000Y-94080000D01*
X134750000Y-94680000D01*
G37*
G36*
X135850000Y-94680000D02*
G01*
X135150000Y-94680000D01*
X135150000Y-94080000D01*
X135850000Y-94080000D01*
X135850000Y-94680000D01*
G37*
G36*
X140800000Y-94530000D02*
G01*
X140200000Y-94530000D01*
X140200000Y-93830000D01*
X140800000Y-93830000D01*
X140800000Y-94530000D01*
G37*
G36*
X143110000Y-94230000D02*
G01*
X142010000Y-94230000D01*
X142010000Y-93430000D01*
X143110000Y-93430000D01*
X143110000Y-94230000D01*
G37*
G36*
X131200000Y-94180000D02*
G01*
X130600000Y-94180000D01*
X130600000Y-93480000D01*
X131200000Y-93480000D01*
X131200000Y-94180000D01*
G37*
G36*
X132100000Y-94180000D02*
G01*
X131500000Y-94180000D01*
X131500000Y-93480000D01*
X132100000Y-93480000D01*
X132100000Y-94180000D01*
G37*
G36*
X133050000Y-94180000D02*
G01*
X132450000Y-94180000D01*
X132450000Y-93480000D01*
X133050000Y-93480000D01*
X133050000Y-94180000D01*
G37*
G36*
X135850000Y-93730000D02*
G01*
X135150000Y-93730000D01*
X135150000Y-93130000D01*
X135850000Y-93130000D01*
X135850000Y-93730000D01*
G37*
G36*
X134750000Y-93730000D02*
G01*
X134050000Y-93730000D01*
X134050000Y-93130000D01*
X134750000Y-93130000D01*
X134750000Y-93730000D01*
G37*
G36*
X140800000Y-93430000D02*
G01*
X140200000Y-93430000D01*
X140200000Y-92730000D01*
X140800000Y-92730000D01*
X140800000Y-93430000D01*
G37*
G36*
X143110000Y-93130000D02*
G01*
X142010000Y-93130000D01*
X142010000Y-92330000D01*
X143110000Y-92330000D01*
X143110000Y-93130000D01*
G37*
G36*
X133050000Y-93080000D02*
G01*
X132450000Y-93080000D01*
X132450000Y-92380000D01*
X133050000Y-92380000D01*
X133050000Y-93080000D01*
G37*
G36*
X132100000Y-93080000D02*
G01*
X131500000Y-93080000D01*
X131500000Y-92380000D01*
X132100000Y-92380000D01*
X132100000Y-93080000D01*
G37*
G36*
X131200000Y-93080000D02*
G01*
X130600000Y-93080000D01*
X130600000Y-92380000D01*
X131200000Y-92380000D01*
X131200000Y-93080000D01*
G37*
G36*
X135400000Y-92830000D02*
G01*
X134900000Y-92830000D01*
X134900000Y-92130000D01*
X135400000Y-92130000D01*
X135400000Y-92830000D01*
G37*
G36*
X134500000Y-92830000D02*
G01*
X134000000Y-92830000D01*
X134000000Y-92130000D01*
X134500000Y-92130000D01*
X134500000Y-92830000D01*
G37*
G36*
X120412520Y-90724586D02*
G01*
X120576310Y-90792430D01*
X120723717Y-90890924D01*
X120849076Y-91016283D01*
X120947570Y-91163690D01*
X121015414Y-91327480D01*
X121050000Y-91501358D01*
X121050000Y-91678642D01*
X121015414Y-91852520D01*
X120947570Y-92016310D01*
X120849076Y-92163717D01*
X120723717Y-92289076D01*
X120576310Y-92387570D01*
X120412520Y-92455414D01*
X120238642Y-92490000D01*
X120061358Y-92490000D01*
X119887480Y-92455414D01*
X119723690Y-92387570D01*
X119576283Y-92289076D01*
X119450924Y-92163717D01*
X119352430Y-92016310D01*
X119284586Y-91852520D01*
X119250000Y-91678642D01*
X119250000Y-91501358D01*
X119284586Y-91327480D01*
X119352430Y-91163690D01*
X119450924Y-91016283D01*
X119576283Y-90890924D01*
X119723690Y-90792430D01*
X119887480Y-90724586D01*
X120061358Y-90690000D01*
X120238642Y-90690000D01*
X120412520Y-90724586D01*
G37*
G36*
X132425000Y-92105000D02*
G01*
X131825000Y-92105000D01*
X131825000Y-91405000D01*
X132425000Y-91405000D01*
X132425000Y-92105000D01*
G37*
G36*
X131425000Y-92105000D02*
G01*
X130825000Y-92105000D01*
X130825000Y-91405000D01*
X131425000Y-91405000D01*
X131425000Y-92105000D01*
G37*
G36*
X143110000Y-92030000D02*
G01*
X142010000Y-92030000D01*
X142010000Y-91230000D01*
X143110000Y-91230000D01*
X143110000Y-92030000D01*
G37*
G36*
X135500000Y-91730000D02*
G01*
X134900000Y-91730000D01*
X134900000Y-91030000D01*
X135500000Y-91030000D01*
X135500000Y-91730000D01*
G37*
G36*
X134150000Y-91730000D02*
G01*
X133550000Y-91730000D01*
X133550000Y-91030000D01*
X134150000Y-91030000D01*
X134150000Y-91730000D01*
G37*
G36*
X132425000Y-91005000D02*
G01*
X131825000Y-91005000D01*
X131825000Y-90305000D01*
X132425000Y-90305000D01*
X132425000Y-91005000D01*
G37*
G36*
X131425000Y-91005000D02*
G01*
X130825000Y-91005000D01*
X130825000Y-90305000D01*
X131425000Y-90305000D01*
X131425000Y-91005000D01*
G37*
G36*
X143110000Y-90930000D02*
G01*
X142010000Y-90930000D01*
X142010000Y-90130000D01*
X143110000Y-90130000D01*
X143110000Y-90930000D01*
G37*
G36*
X135500000Y-90630000D02*
G01*
X134900000Y-90630000D01*
X134900000Y-89930000D01*
X135500000Y-89930000D01*
X135500000Y-90630000D01*
G37*
G36*
X134150000Y-90630000D02*
G01*
X133550000Y-90630000D01*
X133550000Y-89930000D01*
X134150000Y-89930000D01*
X134150000Y-90630000D01*
G37*
G36*
X120412520Y-88184586D02*
G01*
X120576310Y-88252430D01*
X120723717Y-88350924D01*
X120849076Y-88476283D01*
X120947570Y-88623690D01*
X121015414Y-88787480D01*
X121050000Y-88961358D01*
X121050000Y-89138642D01*
X121015414Y-89312520D01*
X120947570Y-89476310D01*
X120849076Y-89623717D01*
X120723717Y-89749076D01*
X120576310Y-89847570D01*
X120412520Y-89915414D01*
X120238642Y-89950000D01*
X120061358Y-89950000D01*
X119887480Y-89915414D01*
X119723690Y-89847570D01*
X119576283Y-89749076D01*
X119450924Y-89623717D01*
X119352430Y-89476310D01*
X119284586Y-89312520D01*
X119250000Y-89138642D01*
X119250000Y-88961358D01*
X119284586Y-88787480D01*
X119352430Y-88623690D01*
X119450924Y-88476283D01*
X119576283Y-88350924D01*
X119723690Y-88252430D01*
X119887480Y-88184586D01*
X120061358Y-88150000D01*
X120238642Y-88150000D01*
X120412520Y-88184586D01*
G37*
G36*
X143110000Y-89830000D02*
G01*
X142010000Y-89830000D01*
X142010000Y-89030000D01*
X143110000Y-89030000D01*
X143110000Y-89830000D01*
G37*
G36*
X144700000Y-88580000D02*
G01*
X143400000Y-88580000D01*
X143400000Y-87030000D01*
X144700000Y-87030000D01*
X144700000Y-88580000D01*
G37*
G36*
X146850000Y-88530000D02*
G01*
X145850000Y-88530000D01*
X145850000Y-87030000D01*
X146850000Y-87030000D01*
X146850000Y-88530000D01*
G37*
G36*
X134800000Y-88380000D02*
G01*
X134100000Y-88380000D01*
X134100000Y-87880000D01*
X134800000Y-87880000D01*
X134800000Y-88380000D01*
G37*
G36*
X131000000Y-88380000D02*
G01*
X130300000Y-88380000D01*
X130300000Y-87880000D01*
X131000000Y-87880000D01*
X131000000Y-88380000D01*
G37*
G36*
X136450000Y-88330000D02*
G01*
X135350000Y-88330000D01*
X135350000Y-86630000D01*
X136450000Y-86630000D01*
X136450000Y-88330000D01*
G37*
G36*
X139450000Y-88330000D02*
G01*
X138350000Y-88330000D01*
X138350000Y-86630000D01*
X139450000Y-86630000D01*
X139450000Y-88330000D01*
G37*
G36*
X126700000Y-88280000D02*
G01*
X125600000Y-88280000D01*
X125600000Y-86580000D01*
X126700000Y-86580000D01*
X126700000Y-88280000D01*
G37*
G36*
X129700000Y-88280000D02*
G01*
X128600000Y-88280000D01*
X128600000Y-86580000D01*
X129700000Y-86580000D01*
X129700000Y-88280000D01*
G37*
G36*
X145600000Y-88130000D02*
G01*
X144800000Y-88130000D01*
X144800000Y-87030000D01*
X145600000Y-87030000D01*
X145600000Y-88130000D01*
G37*
G36*
X134800000Y-87480000D02*
G01*
X134100000Y-87480000D01*
X134100000Y-86980000D01*
X134800000Y-86980000D01*
X134800000Y-87480000D01*
G37*
G36*
X131000000Y-87480000D02*
G01*
X130300000Y-87480000D01*
X130300000Y-86980000D01*
X131000000Y-86980000D01*
X131000000Y-87480000D01*
G37*
G36*
X119430520Y-83614586D02*
G01*
X119594310Y-83682430D01*
X119741717Y-83780924D01*
X119867076Y-83906283D01*
X119965570Y-84053690D01*
X120033414Y-84217480D01*
X120068000Y-84391358D01*
X120068000Y-84568642D01*
X120033414Y-84742520D01*
X119965570Y-84906310D01*
X119867076Y-85053717D01*
X119741717Y-85179076D01*
X119594310Y-85277570D01*
X119430520Y-85345414D01*
X119256642Y-85380000D01*
X119079358Y-85380000D01*
X118905480Y-85345414D01*
X118741690Y-85277570D01*
X118594283Y-85179076D01*
X118468924Y-85053717D01*
X118370430Y-84906310D01*
X118302586Y-84742520D01*
X118268000Y-84568642D01*
X118268000Y-84391358D01*
X118302586Y-84217480D01*
X118370430Y-84053690D01*
X118468924Y-83906283D01*
X118594283Y-83780924D01*
X118741690Y-83682430D01*
X118905480Y-83614586D01*
X119079358Y-83580000D01*
X119256642Y-83580000D01*
X119430520Y-83614586D01*
G37*
G36*
X116890520Y-83614586D02*
G01*
X117054310Y-83682430D01*
X117201717Y-83780924D01*
X117327076Y-83906283D01*
X117425570Y-84053690D01*
X117493414Y-84217480D01*
X117528000Y-84391358D01*
X117528000Y-84568642D01*
X117493414Y-84742520D01*
X117425570Y-84906310D01*
X117327076Y-85053717D01*
X117201717Y-85179076D01*
X117054310Y-85277570D01*
X116890520Y-85345414D01*
X116716642Y-85380000D01*
X116539358Y-85380000D01*
X116365480Y-85345414D01*
X116201690Y-85277570D01*
X116054283Y-85179076D01*
X115928924Y-85053717D01*
X115830430Y-84906310D01*
X115762586Y-84742520D01*
X115728000Y-84568642D01*
X115728000Y-84391358D01*
X115762586Y-84217480D01*
X115830430Y-84053690D01*
X115928924Y-83906283D01*
X116054283Y-83780924D01*
X116201690Y-83682430D01*
X116365480Y-83614586D01*
X116539358Y-83580000D01*
X116716642Y-83580000D01*
X116890520Y-83614586D01*
G37*
G36*
X151312520Y-83614586D02*
G01*
X151476310Y-83682430D01*
X151623717Y-83780924D01*
X151749076Y-83906283D01*
X151847570Y-84053690D01*
X151915414Y-84217480D01*
X151950000Y-84391358D01*
X151950000Y-84568642D01*
X151915414Y-84742520D01*
X151847570Y-84906310D01*
X151749076Y-85053717D01*
X151623717Y-85179076D01*
X151476310Y-85277570D01*
X151312520Y-85345414D01*
X151138642Y-85380000D01*
X150961358Y-85380000D01*
X150787480Y-85345414D01*
X150623690Y-85277570D01*
X150476283Y-85179076D01*
X150350924Y-85053717D01*
X150252430Y-84906310D01*
X150184586Y-84742520D01*
X150150000Y-84568642D01*
X150150000Y-84391358D01*
X150184586Y-84217480D01*
X150252430Y-84053690D01*
X150350924Y-83906283D01*
X150476283Y-83780924D01*
X150623690Y-83682430D01*
X150787480Y-83614586D01*
X150961358Y-83580000D01*
X151138642Y-83580000D01*
X151312520Y-83614586D01*
G37*
G36*
X148612520Y-83607586D02*
G01*
X148776310Y-83675430D01*
X148923717Y-83773924D01*
X149049076Y-83899283D01*
X149147570Y-84046690D01*
X149215414Y-84210480D01*
X149250000Y-84384358D01*
X149250000Y-84561642D01*
X149215414Y-84735520D01*
X149147570Y-84899310D01*
X149049076Y-85046717D01*
X148923717Y-85172076D01*
X148776310Y-85270570D01*
X148612520Y-85338414D01*
X148438642Y-85373000D01*
X148261358Y-85373000D01*
X148087480Y-85338414D01*
X147923690Y-85270570D01*
X147776283Y-85172076D01*
X147650924Y-85046717D01*
X147552430Y-84899310D01*
X147484586Y-84735520D01*
X147450000Y-84561642D01*
X147450000Y-84384358D01*
X147484586Y-84210480D01*
X147552430Y-84046690D01*
X147650924Y-83899283D01*
X147776283Y-83773924D01*
X147923690Y-83675430D01*
X148087480Y-83607586D01*
X148261358Y-83573000D01*
X148438642Y-83573000D01*
X148612520Y-83607586D01*
G37*
G36*
X121939420Y-84707480D02*
G01*
X121339420Y-84707480D01*
X121339420Y-84007480D01*
X121939420Y-84007480D01*
X121939420Y-84707480D01*
G37*
G36*
X121939420Y-83607480D02*
G01*
X121339420Y-83607480D01*
X121339420Y-82907480D01*
X121939420Y-82907480D01*
X121939420Y-83607480D01*
G37*
G36*
X116890520Y-81074586D02*
G01*
X117054310Y-81142430D01*
X117201717Y-81240924D01*
X117327076Y-81366283D01*
X117425570Y-81513690D01*
X117493414Y-81677480D01*
X117528000Y-81851358D01*
X117528000Y-82028642D01*
X117493414Y-82202520D01*
X117425570Y-82366310D01*
X117327076Y-82513717D01*
X117201717Y-82639076D01*
X117054310Y-82737570D01*
X116890520Y-82805414D01*
X116716642Y-82840000D01*
X116539358Y-82840000D01*
X116365480Y-82805414D01*
X116201690Y-82737570D01*
X116054283Y-82639076D01*
X115928924Y-82513717D01*
X115830430Y-82366310D01*
X115762586Y-82202520D01*
X115728000Y-82028642D01*
X115728000Y-81851358D01*
X115762586Y-81677480D01*
X115830430Y-81513690D01*
X115928924Y-81366283D01*
X116054283Y-81240924D01*
X116201690Y-81142430D01*
X116365480Y-81074586D01*
X116539358Y-81040000D01*
X116716642Y-81040000D01*
X116890520Y-81074586D01*
G37*
G36*
X119430520Y-81074586D02*
G01*
X119594310Y-81142430D01*
X119741717Y-81240924D01*
X119867076Y-81366283D01*
X119965570Y-81513690D01*
X120033414Y-81677480D01*
X120068000Y-81851358D01*
X120068000Y-82028642D01*
X120033414Y-82202520D01*
X119965570Y-82366310D01*
X119867076Y-82513717D01*
X119741717Y-82639076D01*
X119594310Y-82737570D01*
X119430520Y-82805414D01*
X119256642Y-82840000D01*
X119079358Y-82840000D01*
X118905480Y-82805414D01*
X118741690Y-82737570D01*
X118594283Y-82639076D01*
X118468924Y-82513717D01*
X118370430Y-82366310D01*
X118302586Y-82202520D01*
X118268000Y-82028642D01*
X118268000Y-81851358D01*
X118302586Y-81677480D01*
X118370430Y-81513690D01*
X118468924Y-81366283D01*
X118594283Y-81240924D01*
X118741690Y-81142430D01*
X118905480Y-81074586D01*
X119079358Y-81040000D01*
X119256642Y-81040000D01*
X119430520Y-81074586D01*
G37*
G36*
X151312520Y-81074586D02*
G01*
X151476310Y-81142430D01*
X151623717Y-81240924D01*
X151749076Y-81366283D01*
X151847570Y-81513690D01*
X151915414Y-81677480D01*
X151950000Y-81851358D01*
X151950000Y-82028642D01*
X151915414Y-82202520D01*
X151847570Y-82366310D01*
X151749076Y-82513717D01*
X151623717Y-82639076D01*
X151476310Y-82737570D01*
X151312520Y-82805414D01*
X151138642Y-82840000D01*
X150961358Y-82840000D01*
X150787480Y-82805414D01*
X150623690Y-82737570D01*
X150476283Y-82639076D01*
X150350924Y-82513717D01*
X150252430Y-82366310D01*
X150184586Y-82202520D01*
X150150000Y-82028642D01*
X150150000Y-81851358D01*
X150184586Y-81677480D01*
X150252430Y-81513690D01*
X150350924Y-81366283D01*
X150476283Y-81240924D01*
X150623690Y-81142430D01*
X150787480Y-81074586D01*
X150961358Y-81040000D01*
X151138642Y-81040000D01*
X151312520Y-81074586D01*
G37*
G36*
X148612520Y-81067586D02*
G01*
X148776310Y-81135430D01*
X148923717Y-81233924D01*
X149049076Y-81359283D01*
X149147570Y-81506690D01*
X149215414Y-81670480D01*
X149250000Y-81844358D01*
X149250000Y-82021642D01*
X149215414Y-82195520D01*
X149147570Y-82359310D01*
X149049076Y-82506717D01*
X148923717Y-82632076D01*
X148776310Y-82730570D01*
X148612520Y-82798414D01*
X148438642Y-82833000D01*
X148261358Y-82833000D01*
X148087480Y-82798414D01*
X147923690Y-82730570D01*
X147776283Y-82632076D01*
X147650924Y-82506717D01*
X147552430Y-82359310D01*
X147484586Y-82195520D01*
X147450000Y-82021642D01*
X147450000Y-81844358D01*
X147484586Y-81670480D01*
X147552430Y-81506690D01*
X147650924Y-81359283D01*
X147776283Y-81233924D01*
X147923690Y-81135430D01*
X148087480Y-81067586D01*
X148261358Y-81033000D01*
X148438642Y-81033000D01*
X148612520Y-81067586D01*
G37*
G36*
X121863220Y-81659480D02*
G01*
X121263220Y-81659480D01*
X121263220Y-80959480D01*
X121863220Y-80959480D01*
X121863220Y-81659480D01*
G37*
G36*
X138310000Y-81190000D02*
G01*
X137710000Y-81190000D01*
X137710000Y-80490000D01*
X138310000Y-80490000D01*
X138310000Y-81190000D01*
G37*
G36*
X139630000Y-81110000D02*
G01*
X139030000Y-81110000D01*
X139030000Y-80410000D01*
X139630000Y-80410000D01*
X139630000Y-81110000D01*
G37*
G36*
X121863220Y-80559480D02*
G01*
X121263220Y-80559480D01*
X121263220Y-79859480D01*
X121863220Y-79859480D01*
X121863220Y-80559480D01*
G37*
G36*
X119430520Y-78534586D02*
G01*
X119594310Y-78602430D01*
X119741717Y-78700924D01*
X119867076Y-78826283D01*
X119965570Y-78973690D01*
X120033414Y-79137480D01*
X120068000Y-79311358D01*
X120068000Y-79488642D01*
X120033414Y-79662520D01*
X119965570Y-79826310D01*
X119867076Y-79973717D01*
X119741717Y-80099076D01*
X119594310Y-80197570D01*
X119430520Y-80265414D01*
X119256642Y-80300000D01*
X119079358Y-80300000D01*
X118905480Y-80265414D01*
X118741690Y-80197570D01*
X118594283Y-80099076D01*
X118468924Y-79973717D01*
X118370430Y-79826310D01*
X118302586Y-79662520D01*
X118268000Y-79488642D01*
X118268000Y-79311358D01*
X118302586Y-79137480D01*
X118370430Y-78973690D01*
X118468924Y-78826283D01*
X118594283Y-78700924D01*
X118741690Y-78602430D01*
X118905480Y-78534586D01*
X119079358Y-78500000D01*
X119256642Y-78500000D01*
X119430520Y-78534586D01*
G37*
G36*
X116890520Y-78534586D02*
G01*
X117054310Y-78602430D01*
X117201717Y-78700924D01*
X117327076Y-78826283D01*
X117425570Y-78973690D01*
X117493414Y-79137480D01*
X117528000Y-79311358D01*
X117528000Y-79488642D01*
X117493414Y-79662520D01*
X117425570Y-79826310D01*
X117327076Y-79973717D01*
X117201717Y-80099076D01*
X117054310Y-80197570D01*
X116890520Y-80265414D01*
X116716642Y-80300000D01*
X116539358Y-80300000D01*
X116365480Y-80265414D01*
X116201690Y-80197570D01*
X116054283Y-80099076D01*
X115928924Y-79973717D01*
X115830430Y-79826310D01*
X115762586Y-79662520D01*
X115728000Y-79488642D01*
X115728000Y-79311358D01*
X115762586Y-79137480D01*
X115830430Y-78973690D01*
X115928924Y-78826283D01*
X116054283Y-78700924D01*
X116201690Y-78602430D01*
X116365480Y-78534586D01*
X116539358Y-78500000D01*
X116716642Y-78500000D01*
X116890520Y-78534586D01*
G37*
G36*
X151312520Y-78534586D02*
G01*
X151476310Y-78602430D01*
X151623717Y-78700924D01*
X151749076Y-78826283D01*
X151847570Y-78973690D01*
X151915414Y-79137480D01*
X151950000Y-79311358D01*
X151950000Y-79488642D01*
X151915414Y-79662520D01*
X151847570Y-79826310D01*
X151749076Y-79973717D01*
X151623717Y-80099076D01*
X151476310Y-80197570D01*
X151312520Y-80265414D01*
X151138642Y-80300000D01*
X150961358Y-80300000D01*
X150787480Y-80265414D01*
X150623690Y-80197570D01*
X150476283Y-80099076D01*
X150350924Y-79973717D01*
X150252430Y-79826310D01*
X150184586Y-79662520D01*
X150150000Y-79488642D01*
X150150000Y-79311358D01*
X150184586Y-79137480D01*
X150252430Y-78973690D01*
X150350924Y-78826283D01*
X150476283Y-78700924D01*
X150623690Y-78602430D01*
X150787480Y-78534586D01*
X150961358Y-78500000D01*
X151138642Y-78500000D01*
X151312520Y-78534586D01*
G37*
G36*
X148612520Y-78527586D02*
G01*
X148776310Y-78595430D01*
X148923717Y-78693924D01*
X149049076Y-78819283D01*
X149147570Y-78966690D01*
X149215414Y-79130480D01*
X149250000Y-79304358D01*
X149250000Y-79481642D01*
X149215414Y-79655520D01*
X149147570Y-79819310D01*
X149049076Y-79966717D01*
X148923717Y-80092076D01*
X148776310Y-80190570D01*
X148612520Y-80258414D01*
X148438642Y-80293000D01*
X148261358Y-80293000D01*
X148087480Y-80258414D01*
X147923690Y-80190570D01*
X147776283Y-80092076D01*
X147650924Y-79966717D01*
X147552430Y-79819310D01*
X147484586Y-79655520D01*
X147450000Y-79481642D01*
X147450000Y-79304358D01*
X147484586Y-79130480D01*
X147552430Y-78966690D01*
X147650924Y-78819283D01*
X147776283Y-78693924D01*
X147923690Y-78595430D01*
X148087480Y-78527586D01*
X148261358Y-78493000D01*
X148438642Y-78493000D01*
X148612520Y-78527586D01*
G37*
G36*
X135300000Y-80230000D02*
G01*
X134600000Y-80230000D01*
X134600000Y-79730000D01*
X135300000Y-79730000D01*
X135300000Y-80230000D01*
G37*
G36*
X132450000Y-80230000D02*
G01*
X131750000Y-80230000D01*
X131750000Y-79730000D01*
X132450000Y-79730000D01*
X132450000Y-80230000D01*
G37*
G36*
X134350000Y-80230000D02*
G01*
X133650000Y-80230000D01*
X133650000Y-79730000D01*
X134350000Y-79730000D01*
X134350000Y-80230000D01*
G37*
G36*
X133400000Y-80230000D02*
G01*
X132700000Y-80230000D01*
X132700000Y-79730000D01*
X133400000Y-79730000D01*
X133400000Y-80230000D01*
G37*
G36*
X131500000Y-80230000D02*
G01*
X130800000Y-80230000D01*
X130800000Y-79730000D01*
X131500000Y-79730000D01*
X131500000Y-80230000D01*
G37*
G36*
X136250000Y-80230000D02*
G01*
X135550000Y-80230000D01*
X135550000Y-79730000D01*
X136250000Y-79730000D01*
X136250000Y-80230000D01*
G37*
G36*
X138310000Y-80090000D02*
G01*
X137710000Y-80090000D01*
X137710000Y-79390000D01*
X138310000Y-79390000D01*
X138310000Y-80090000D01*
G37*
G36*
X139630000Y-80010000D02*
G01*
X139030000Y-80010000D01*
X139030000Y-79310000D01*
X139630000Y-79310000D01*
X139630000Y-80010000D01*
G37*
G36*
X121896240Y-79452220D02*
G01*
X121296240Y-79452220D01*
X121296240Y-78752220D01*
X121896240Y-78752220D01*
X121896240Y-79452220D01*
G37*
G36*
X129446400Y-79449100D02*
G01*
X128746400Y-79449100D01*
X128746400Y-78849100D01*
X129446400Y-78849100D01*
X129446400Y-79449100D01*
G37*
G36*
X128346400Y-79449100D02*
G01*
X127646400Y-79449100D01*
X127646400Y-78849100D01*
X128346400Y-78849100D01*
X128346400Y-79449100D01*
G37*
G36*
X133400000Y-79330000D02*
G01*
X132700000Y-79330000D01*
X132700000Y-78830000D01*
X133400000Y-78830000D01*
X133400000Y-79330000D01*
G37*
G36*
X131500000Y-79330000D02*
G01*
X130800000Y-79330000D01*
X130800000Y-78830000D01*
X131500000Y-78830000D01*
X131500000Y-79330000D01*
G37*
G36*
X134350000Y-79330000D02*
G01*
X133650000Y-79330000D01*
X133650000Y-78830000D01*
X134350000Y-78830000D01*
X134350000Y-79330000D01*
G37*
G36*
X132450000Y-79330000D02*
G01*
X131750000Y-79330000D01*
X131750000Y-78830000D01*
X132450000Y-78830000D01*
X132450000Y-79330000D01*
G37*
G36*
X135300000Y-79330000D02*
G01*
X134600000Y-79330000D01*
X134600000Y-78830000D01*
X135300000Y-78830000D01*
X135300000Y-79330000D01*
G37*
G36*
X136250000Y-79330000D02*
G01*
X135550000Y-79330000D01*
X135550000Y-78830000D01*
X136250000Y-78830000D01*
X136250000Y-79330000D01*
G37*
G36*
X128346400Y-78471200D02*
G01*
X127646400Y-78471200D01*
X127646400Y-77871200D01*
X128346400Y-77871200D01*
X128346400Y-78471200D01*
G37*
G36*
X129446400Y-78471200D02*
G01*
X128746400Y-78471200D01*
X128746400Y-77871200D01*
X129446400Y-77871200D01*
X129446400Y-78471200D01*
G37*
G36*
X121896240Y-78352220D02*
G01*
X121296240Y-78352220D01*
X121296240Y-77652220D01*
X121896240Y-77652220D01*
X121896240Y-78352220D01*
G37*
G36*
X132344600Y-77972000D02*
G01*
X132044600Y-77972000D01*
X132044600Y-77122000D01*
X132344600Y-77122000D01*
X132344600Y-77972000D01*
G37*
G36*
X135144600Y-77972000D02*
G01*
X134844600Y-77972000D01*
X134844600Y-77122000D01*
X135144600Y-77122000D01*
X135144600Y-77972000D01*
G37*
G36*
X131944600Y-77972000D02*
G01*
X131644600Y-77972000D01*
X131644600Y-77122000D01*
X131944600Y-77122000D01*
X131944600Y-77972000D01*
G37*
G36*
X131544600Y-77972000D02*
G01*
X131244600Y-77972000D01*
X131244600Y-77122000D01*
X131544600Y-77122000D01*
X131544600Y-77972000D01*
G37*
G36*
X134344600Y-77972000D02*
G01*
X134044600Y-77972000D01*
X134044600Y-77122000D01*
X134344600Y-77122000D01*
X134344600Y-77972000D01*
G37*
G36*
X133944600Y-77972000D02*
G01*
X133644600Y-77972000D01*
X133644600Y-77122000D01*
X133944600Y-77122000D01*
X133944600Y-77972000D01*
G37*
G36*
X133544600Y-77972000D02*
G01*
X133244600Y-77972000D01*
X133244600Y-77122000D01*
X133544600Y-77122000D01*
X133544600Y-77972000D01*
G37*
G36*
X132744600Y-77972000D02*
G01*
X132444600Y-77972000D01*
X132444600Y-77122000D01*
X132744600Y-77122000D01*
X132744600Y-77972000D01*
G37*
G36*
X133144600Y-77972000D02*
G01*
X132844600Y-77972000D01*
X132844600Y-77122000D01*
X133144600Y-77122000D01*
X133144600Y-77972000D01*
G37*
G36*
X134744600Y-77972000D02*
G01*
X134444600Y-77972000D01*
X134444600Y-77122000D01*
X134744600Y-77122000D01*
X134744600Y-77972000D01*
G37*
G36*
X116890520Y-75994586D02*
G01*
X117054310Y-76062430D01*
X117201717Y-76160924D01*
X117327076Y-76286283D01*
X117425570Y-76433690D01*
X117493414Y-76597480D01*
X117528000Y-76771358D01*
X117528000Y-76948642D01*
X117493414Y-77122520D01*
X117425570Y-77286310D01*
X117327076Y-77433717D01*
X117201717Y-77559076D01*
X117054310Y-77657570D01*
X116890520Y-77725414D01*
X116716642Y-77760000D01*
X116539358Y-77760000D01*
X116365480Y-77725414D01*
X116201690Y-77657570D01*
X116054283Y-77559076D01*
X115928924Y-77433717D01*
X115830430Y-77286310D01*
X115762586Y-77122520D01*
X115728000Y-76948642D01*
X115728000Y-76771358D01*
X115762586Y-76597480D01*
X115830430Y-76433690D01*
X115928924Y-76286283D01*
X116054283Y-76160924D01*
X116201690Y-76062430D01*
X116365480Y-75994586D01*
X116539358Y-75960000D01*
X116716642Y-75960000D01*
X116890520Y-75994586D01*
G37*
G36*
X119430520Y-75994586D02*
G01*
X119594310Y-76062430D01*
X119741717Y-76160924D01*
X119867076Y-76286283D01*
X119965570Y-76433690D01*
X120033414Y-76597480D01*
X120068000Y-76771358D01*
X120068000Y-76948642D01*
X120033414Y-77122520D01*
X119965570Y-77286310D01*
X119867076Y-77433717D01*
X119741717Y-77559076D01*
X119594310Y-77657570D01*
X119430520Y-77725414D01*
X119256642Y-77760000D01*
X119079358Y-77760000D01*
X118905480Y-77725414D01*
X118741690Y-77657570D01*
X118594283Y-77559076D01*
X118468924Y-77433717D01*
X118370430Y-77286310D01*
X118302586Y-77122520D01*
X118268000Y-76948642D01*
X118268000Y-76771358D01*
X118302586Y-76597480D01*
X118370430Y-76433690D01*
X118468924Y-76286283D01*
X118594283Y-76160924D01*
X118741690Y-76062430D01*
X118905480Y-75994586D01*
X119079358Y-75960000D01*
X119256642Y-75960000D01*
X119430520Y-75994586D01*
G37*
G36*
X151312520Y-75994586D02*
G01*
X151476310Y-76062430D01*
X151623717Y-76160924D01*
X151749076Y-76286283D01*
X151847570Y-76433690D01*
X151915414Y-76597480D01*
X151950000Y-76771358D01*
X151950000Y-76948642D01*
X151915414Y-77122520D01*
X151847570Y-77286310D01*
X151749076Y-77433717D01*
X151623717Y-77559076D01*
X151476310Y-77657570D01*
X151312520Y-77725414D01*
X151138642Y-77760000D01*
X150961358Y-77760000D01*
X150787480Y-77725414D01*
X150623690Y-77657570D01*
X150476283Y-77559076D01*
X150350924Y-77433717D01*
X150252430Y-77286310D01*
X150184586Y-77122520D01*
X150150000Y-76948642D01*
X150150000Y-76771358D01*
X150184586Y-76597480D01*
X150252430Y-76433690D01*
X150350924Y-76286283D01*
X150476283Y-76160924D01*
X150623690Y-76062430D01*
X150787480Y-75994586D01*
X150961358Y-75960000D01*
X151138642Y-75960000D01*
X151312520Y-75994586D01*
G37*
G36*
X148612520Y-75987586D02*
G01*
X148776310Y-76055430D01*
X148923717Y-76153924D01*
X149049076Y-76279283D01*
X149147570Y-76426690D01*
X149215414Y-76590480D01*
X149250000Y-76764358D01*
X149250000Y-76941642D01*
X149215414Y-77115520D01*
X149147570Y-77279310D01*
X149049076Y-77426717D01*
X148923717Y-77552076D01*
X148776310Y-77650570D01*
X148612520Y-77718414D01*
X148438642Y-77753000D01*
X148261358Y-77753000D01*
X148087480Y-77718414D01*
X147923690Y-77650570D01*
X147776283Y-77552076D01*
X147650924Y-77426717D01*
X147552430Y-77279310D01*
X147484586Y-77115520D01*
X147450000Y-76941642D01*
X147450000Y-76764358D01*
X147484586Y-76590480D01*
X147552430Y-76426690D01*
X147650924Y-76279283D01*
X147776283Y-76153924D01*
X147923690Y-76055430D01*
X148087480Y-75987586D01*
X148261358Y-75953000D01*
X148438642Y-75953000D01*
X148612520Y-75987586D01*
G37*
G36*
X129417900Y-77369400D02*
G01*
X128817900Y-77369400D01*
X128817900Y-76669400D01*
X129417900Y-76669400D01*
X129417900Y-77369400D01*
G37*
G36*
X128300300Y-77369400D02*
G01*
X127700300Y-77369400D01*
X127700300Y-76669400D01*
X128300300Y-76669400D01*
X128300300Y-77369400D01*
G37*
G36*
X131119600Y-76997000D02*
G01*
X130269600Y-76997000D01*
X130269600Y-76697000D01*
X131119600Y-76697000D01*
X131119600Y-76997000D01*
G37*
G36*
X135144600Y-76997000D02*
G01*
X131244600Y-76997000D01*
X131244600Y-73097000D01*
X135144600Y-73097000D01*
X135144600Y-76997000D01*
G37*
G36*
X136119600Y-76997000D02*
G01*
X135269600Y-76997000D01*
X135269600Y-76697000D01*
X136119600Y-76697000D01*
X136119600Y-76997000D01*
G37*
G36*
X139120000Y-76800000D02*
G01*
X138620000Y-76800000D01*
X138620000Y-76100000D01*
X139120000Y-76100000D01*
X139120000Y-76800000D01*
G37*
G36*
X138220000Y-76800000D02*
G01*
X137720000Y-76800000D01*
X137720000Y-76100000D01*
X138220000Y-76100000D01*
X138220000Y-76800000D01*
G37*
G36*
X136119600Y-76597000D02*
G01*
X135269600Y-76597000D01*
X135269600Y-76297000D01*
X136119600Y-76297000D01*
X136119600Y-76597000D01*
G37*
G36*
X131119600Y-76597000D02*
G01*
X130269600Y-76597000D01*
X130269600Y-76297000D01*
X131119600Y-76297000D01*
X131119600Y-76597000D01*
G37*
G36*
X129417900Y-76269400D02*
G01*
X128817900Y-76269400D01*
X128817900Y-75569400D01*
X129417900Y-75569400D01*
X129417900Y-76269400D01*
G37*
G36*
X128300300Y-76269400D02*
G01*
X127700300Y-76269400D01*
X127700300Y-75569400D01*
X128300300Y-75569400D01*
X128300300Y-76269400D01*
G37*
G36*
X131119600Y-76197000D02*
G01*
X130269600Y-76197000D01*
X130269600Y-75897000D01*
X131119600Y-75897000D01*
X131119600Y-76197000D01*
G37*
G36*
X136119600Y-76197000D02*
G01*
X135269600Y-76197000D01*
X135269600Y-75897000D01*
X136119600Y-75897000D01*
X136119600Y-76197000D01*
G37*
G36*
X121873380Y-75990200D02*
G01*
X121273380Y-75990200D01*
X121273380Y-75290200D01*
X121873380Y-75290200D01*
X121873380Y-75990200D01*
G37*
G36*
X141046520Y-75889780D02*
G01*
X140546520Y-75889780D01*
X140546520Y-75189780D01*
X141046520Y-75189780D01*
X141046520Y-75889780D01*
G37*
G36*
X140146520Y-75889780D02*
G01*
X139646520Y-75889780D01*
X139646520Y-75189780D01*
X140146520Y-75189780D01*
X140146520Y-75889780D01*
G37*
G36*
X131119600Y-75797000D02*
G01*
X130269600Y-75797000D01*
X130269600Y-75497000D01*
X131119600Y-75497000D01*
X131119600Y-75797000D01*
G37*
G36*
X136119600Y-75797000D02*
G01*
X135269600Y-75797000D01*
X135269600Y-75497000D01*
X136119600Y-75497000D01*
X136119600Y-75797000D01*
G37*
G36*
X131119600Y-75397000D02*
G01*
X130269600Y-75397000D01*
X130269600Y-75097000D01*
X131119600Y-75097000D01*
X131119600Y-75397000D01*
G37*
G36*
X136119600Y-75397000D02*
G01*
X135269600Y-75397000D01*
X135269600Y-75097000D01*
X136119600Y-75097000D01*
X136119600Y-75397000D01*
G37*
G36*
X151312520Y-73454586D02*
G01*
X151476310Y-73522430D01*
X151623717Y-73620924D01*
X151749076Y-73746283D01*
X151847570Y-73893690D01*
X151915414Y-74057480D01*
X151950000Y-74231358D01*
X151950000Y-74408642D01*
X151915414Y-74582520D01*
X151847570Y-74746310D01*
X151749076Y-74893717D01*
X151623717Y-75019076D01*
X151476310Y-75117570D01*
X151312520Y-75185414D01*
X151138642Y-75220000D01*
X150961358Y-75220000D01*
X150787480Y-75185414D01*
X150623690Y-75117570D01*
X150476283Y-75019076D01*
X150350924Y-74893717D01*
X150252430Y-74746310D01*
X150184586Y-74582520D01*
X150150000Y-74408642D01*
X150150000Y-74231358D01*
X150184586Y-74057480D01*
X150252430Y-73893690D01*
X150350924Y-73746283D01*
X150476283Y-73620924D01*
X150623690Y-73522430D01*
X150787480Y-73454586D01*
X150961358Y-73420000D01*
X151138642Y-73420000D01*
X151312520Y-73454586D01*
G37*
G36*
X119430520Y-73454586D02*
G01*
X119594310Y-73522430D01*
X119741717Y-73620924D01*
X119867076Y-73746283D01*
X119965570Y-73893690D01*
X120033414Y-74057480D01*
X120068000Y-74231358D01*
X120068000Y-74408642D01*
X120033414Y-74582520D01*
X119965570Y-74746310D01*
X119867076Y-74893717D01*
X119741717Y-75019076D01*
X119594310Y-75117570D01*
X119430520Y-75185414D01*
X119256642Y-75220000D01*
X119079358Y-75220000D01*
X118905480Y-75185414D01*
X118741690Y-75117570D01*
X118594283Y-75019076D01*
X118468924Y-74893717D01*
X118370430Y-74746310D01*
X118302586Y-74582520D01*
X118268000Y-74408642D01*
X118268000Y-74231358D01*
X118302586Y-74057480D01*
X118370430Y-73893690D01*
X118468924Y-73746283D01*
X118594283Y-73620924D01*
X118741690Y-73522430D01*
X118905480Y-73454586D01*
X119079358Y-73420000D01*
X119256642Y-73420000D01*
X119430520Y-73454586D01*
G37*
G36*
X116890520Y-73454586D02*
G01*
X117054310Y-73522430D01*
X117201717Y-73620924D01*
X117327076Y-73746283D01*
X117425570Y-73893690D01*
X117493414Y-74057480D01*
X117528000Y-74231358D01*
X117528000Y-74408642D01*
X117493414Y-74582520D01*
X117425570Y-74746310D01*
X117327076Y-74893717D01*
X117201717Y-75019076D01*
X117054310Y-75117570D01*
X116890520Y-75185414D01*
X116716642Y-75220000D01*
X116539358Y-75220000D01*
X116365480Y-75185414D01*
X116201690Y-75117570D01*
X116054283Y-75019076D01*
X115928924Y-74893717D01*
X115830430Y-74746310D01*
X115762586Y-74582520D01*
X115728000Y-74408642D01*
X115728000Y-74231358D01*
X115762586Y-74057480D01*
X115830430Y-73893690D01*
X115928924Y-73746283D01*
X116054283Y-73620924D01*
X116201690Y-73522430D01*
X116365480Y-73454586D01*
X116539358Y-73420000D01*
X116716642Y-73420000D01*
X116890520Y-73454586D01*
G37*
G36*
X148612520Y-73447586D02*
G01*
X148776310Y-73515430D01*
X148923717Y-73613924D01*
X149049076Y-73739283D01*
X149147570Y-73886690D01*
X149215414Y-74050480D01*
X149250000Y-74224358D01*
X149250000Y-74401642D01*
X149215414Y-74575520D01*
X149147570Y-74739310D01*
X149049076Y-74886717D01*
X148923717Y-75012076D01*
X148776310Y-75110570D01*
X148612520Y-75178414D01*
X148438642Y-75213000D01*
X148261358Y-75213000D01*
X148087480Y-75178414D01*
X147923690Y-75110570D01*
X147776283Y-75012076D01*
X147650924Y-74886717D01*
X147552430Y-74739310D01*
X147484586Y-74575520D01*
X147450000Y-74401642D01*
X147450000Y-74224358D01*
X147484586Y-74050480D01*
X147552430Y-73886690D01*
X147650924Y-73739283D01*
X147776283Y-73613924D01*
X147923690Y-73515430D01*
X148087480Y-73447586D01*
X148261358Y-73413000D01*
X148438642Y-73413000D01*
X148612520Y-73447586D01*
G37*
G36*
X131119600Y-74997000D02*
G01*
X130269600Y-74997000D01*
X130269600Y-74697000D01*
X131119600Y-74697000D01*
X131119600Y-74997000D01*
G37*
G36*
X136119600Y-74997000D02*
G01*
X135269600Y-74997000D01*
X135269600Y-74697000D01*
X136119600Y-74697000D01*
X136119600Y-74997000D01*
G37*
G36*
X121873380Y-74890200D02*
G01*
X121273380Y-74890200D01*
X121273380Y-74190200D01*
X121873380Y-74190200D01*
X121873380Y-74890200D01*
G37*
G36*
X136119600Y-74597000D02*
G01*
X135269600Y-74597000D01*
X135269600Y-74297000D01*
X136119600Y-74297000D01*
X136119600Y-74597000D01*
G37*
G36*
X131119600Y-74597000D02*
G01*
X130269600Y-74597000D01*
X130269600Y-74297000D01*
X131119600Y-74297000D01*
X131119600Y-74597000D01*
G37*
G36*
X136119600Y-74197000D02*
G01*
X135269600Y-74197000D01*
X135269600Y-73897000D01*
X136119600Y-73897000D01*
X136119600Y-74197000D01*
G37*
G36*
X131119600Y-74197000D02*
G01*
X130269600Y-74197000D01*
X130269600Y-73897000D01*
X131119600Y-73897000D01*
X131119600Y-74197000D01*
G37*
G36*
X136119600Y-73797000D02*
G01*
X135269600Y-73797000D01*
X135269600Y-73497000D01*
X136119600Y-73497000D01*
X136119600Y-73797000D01*
G37*
G36*
X131119600Y-73797000D02*
G01*
X130269600Y-73797000D01*
X130269600Y-73497000D01*
X131119600Y-73497000D01*
X131119600Y-73797000D01*
G37*
G36*
X136119600Y-73397000D02*
G01*
X135269600Y-73397000D01*
X135269600Y-73097000D01*
X136119600Y-73097000D01*
X136119600Y-73397000D01*
G37*
G36*
X131119600Y-73397000D02*
G01*
X130269600Y-73397000D01*
X130269600Y-73097000D01*
X131119600Y-73097000D01*
X131119600Y-73397000D01*
G37*
G36*
X128250000Y-72980000D02*
G01*
X127550000Y-72980000D01*
X127550000Y-72380000D01*
X128250000Y-72380000D01*
X128250000Y-72980000D01*
G37*
G36*
X129350000Y-72980000D02*
G01*
X128650000Y-72980000D01*
X128650000Y-72380000D01*
X129350000Y-72380000D01*
X129350000Y-72980000D01*
G37*
G36*
X131944600Y-72972000D02*
G01*
X131644600Y-72972000D01*
X131644600Y-72122000D01*
X131944600Y-72122000D01*
X131944600Y-72972000D01*
G37*
G36*
X133944600Y-72972000D02*
G01*
X133644600Y-72972000D01*
X133644600Y-72122000D01*
X133944600Y-72122000D01*
X133944600Y-72972000D01*
G37*
G36*
X133544600Y-72972000D02*
G01*
X133244600Y-72972000D01*
X133244600Y-72122000D01*
X133544600Y-72122000D01*
X133544600Y-72972000D01*
G37*
G36*
X133144600Y-72972000D02*
G01*
X132844600Y-72972000D01*
X132844600Y-72122000D01*
X133144600Y-72122000D01*
X133144600Y-72972000D01*
G37*
G36*
X132744600Y-72972000D02*
G01*
X132444600Y-72972000D01*
X132444600Y-72122000D01*
X132744600Y-72122000D01*
X132744600Y-72972000D01*
G37*
G36*
X134744600Y-72972000D02*
G01*
X134444600Y-72972000D01*
X134444600Y-72122000D01*
X134744600Y-72122000D01*
X134744600Y-72972000D01*
G37*
G36*
X132344600Y-72972000D02*
G01*
X132044600Y-72972000D01*
X132044600Y-72122000D01*
X132344600Y-72122000D01*
X132344600Y-72972000D01*
G37*
G36*
X131544600Y-72972000D02*
G01*
X131244600Y-72972000D01*
X131244600Y-72122000D01*
X131544600Y-72122000D01*
X131544600Y-72972000D01*
G37*
G36*
X134344600Y-72972000D02*
G01*
X134044600Y-72972000D01*
X134044600Y-72122000D01*
X134344600Y-72122000D01*
X134344600Y-72972000D01*
G37*
G36*
X135144600Y-72972000D02*
G01*
X134844600Y-72972000D01*
X134844600Y-72122000D01*
X135144600Y-72122000D01*
X135144600Y-72972000D01*
G37*
G36*
X117528000Y-72680000D02*
G01*
X115728000Y-72680000D01*
X115728000Y-70880000D01*
X117528000Y-70880000D01*
X117528000Y-72680000D01*
G37*
G36*
X151950000Y-72680000D02*
G01*
X150150000Y-72680000D01*
X150150000Y-70880000D01*
X151950000Y-70880000D01*
X151950000Y-72680000D01*
G37*
G36*
X120068000Y-72680000D02*
G01*
X118268000Y-72680000D01*
X118268000Y-70880000D01*
X120068000Y-70880000D01*
X120068000Y-72680000D01*
G37*
G36*
X149250000Y-72673000D02*
G01*
X147450000Y-72673000D01*
X147450000Y-70873000D01*
X149250000Y-70873000D01*
X149250000Y-72673000D01*
G37*
G36*
X137550000Y-72330000D02*
G01*
X137050000Y-72330000D01*
X137050000Y-71630000D01*
X137550000Y-71630000D01*
X137550000Y-72330000D01*
G37*
G36*
X138450000Y-72330000D02*
G01*
X137950000Y-72330000D01*
X137950000Y-71630000D01*
X138450000Y-71630000D01*
X138450000Y-72330000D01*
G37*
G36*
X129870000Y-69500000D02*
G01*
X129270000Y-69500000D01*
X129270000Y-68800000D01*
X129870000Y-68800000D01*
X129870000Y-69500000D01*
G37*
G36*
X128360000Y-69430000D02*
G01*
X127760000Y-69430000D01*
X127760000Y-68730000D01*
X128360000Y-68730000D01*
X128360000Y-69430000D01*
G37*
G36*
X135730000Y-68730000D02*
G01*
X135130000Y-68730000D01*
X135130000Y-68030000D01*
X135730000Y-68030000D01*
X135730000Y-68730000D01*
G37*
G36*
X140497960Y-68581020D02*
G01*
X139747960Y-68581020D01*
X139747960Y-68081020D01*
X140497960Y-68081020D01*
X140497960Y-68581020D01*
G37*
G36*
X142397960Y-68581020D02*
G01*
X141647960Y-68581020D01*
X141647960Y-68081020D01*
X142397960Y-68081020D01*
X142397960Y-68581020D01*
G37*
G36*
X129870000Y-68400000D02*
G01*
X129270000Y-68400000D01*
X129270000Y-67700000D01*
X129870000Y-67700000D01*
X129870000Y-68400000D01*
G37*
G36*
X128360000Y-68330000D02*
G01*
X127760000Y-68330000D01*
X127760000Y-67630000D01*
X128360000Y-67630000D01*
X128360000Y-68330000D01*
G37*
G36*
X118750000Y-68030000D02*
G01*
X118050000Y-68030000D01*
X118050000Y-67430000D01*
X118750000Y-67430000D01*
X118750000Y-68030000D01*
G37*
G36*
X149650000Y-68030000D02*
G01*
X148950000Y-68030000D01*
X148950000Y-67430000D01*
X149650000Y-67430000D01*
X149650000Y-68030000D01*
G37*
G36*
X117650000Y-68030000D02*
G01*
X116950000Y-68030000D01*
X116950000Y-67430000D01*
X117650000Y-67430000D01*
X117650000Y-68030000D01*
G37*
G36*
X150750000Y-68030000D02*
G01*
X150050000Y-68030000D01*
X150050000Y-67430000D01*
X150750000Y-67430000D01*
X150750000Y-68030000D01*
G37*
G36*
X140497960Y-67931020D02*
G01*
X139747960Y-67931020D01*
X139747960Y-67431020D01*
X140497960Y-67431020D01*
X140497960Y-67931020D01*
G37*
G36*
X135730000Y-67630000D02*
G01*
X135130000Y-67630000D01*
X135130000Y-66930000D01*
X135730000Y-66930000D01*
X135730000Y-67630000D01*
G37*
G36*
X140497960Y-67281020D02*
G01*
X139747960Y-67281020D01*
X139747960Y-66781020D01*
X140497960Y-66781020D01*
X140497960Y-67281020D01*
G37*
G36*
X142397960Y-67281020D02*
G01*
X141647960Y-67281020D01*
X141647960Y-66781020D01*
X142397960Y-66781020D01*
X142397960Y-67281020D01*
G37*
G36*
X150750000Y-67030000D02*
G01*
X150050000Y-67030000D01*
X150050000Y-66430000D01*
X150750000Y-66430000D01*
X150750000Y-67030000D01*
G37*
G36*
X149650000Y-67030000D02*
G01*
X148950000Y-67030000D01*
X148950000Y-66430000D01*
X149650000Y-66430000D01*
X149650000Y-67030000D01*
G37*
G36*
X118750000Y-67030000D02*
G01*
X118050000Y-67030000D01*
X118050000Y-66430000D01*
X118750000Y-66430000D01*
X118750000Y-67030000D01*
G37*
G36*
X117650000Y-67030000D02*
G01*
X116950000Y-67030000D01*
X116950000Y-66430000D01*
X117650000Y-66430000D01*
X117650000Y-67030000D01*
G37*
G36*
X131025000Y-65090000D02*
G01*
X130175000Y-65090000D01*
X130175000Y-64190000D01*
X131025000Y-64190000D01*
X131025000Y-65090000D01*
G37*
G36*
X139075000Y-65090000D02*
G01*
X138225000Y-65090000D01*
X138225000Y-64190000D01*
X139075000Y-64190000D01*
X139075000Y-65090000D01*
G37*
G36*
X133770000Y-64630000D02*
G01*
X133170000Y-64630000D01*
X133170000Y-63930000D01*
X133770000Y-63930000D01*
X133770000Y-64630000D01*
G37*
G36*
X135120000Y-64560000D02*
G01*
X134520000Y-64560000D01*
X134520000Y-63860000D01*
X135120000Y-63860000D01*
X135120000Y-64560000D01*
G37*
G36*
X131025000Y-63590000D02*
G01*
X130175000Y-63590000D01*
X130175000Y-62690000D01*
X131025000Y-62690000D01*
X131025000Y-63590000D01*
G37*
G36*
X139075000Y-63590000D02*
G01*
X138225000Y-63590000D01*
X138225000Y-62690000D01*
X139075000Y-62690000D01*
X139075000Y-63590000D01*
G37*
G36*
X133770000Y-63530000D02*
G01*
X133170000Y-63530000D01*
X133170000Y-62830000D01*
X133770000Y-62830000D01*
X133770000Y-63530000D01*
G37*
G36*
X125650000Y-63530000D02*
G01*
X122750000Y-63530000D01*
X122750000Y-60630000D01*
X125650000Y-60630000D01*
X125650000Y-63530000D01*
G37*
G36*
X135120000Y-63460000D02*
G01*
X134520000Y-63460000D01*
X134520000Y-62760000D01*
X135120000Y-62760000D01*
X135120000Y-63460000D01*
G37*
G36*
X135230000Y-60325000D02*
G01*
X134330000Y-60325000D01*
X134330000Y-59475000D01*
X135230000Y-59475000D01*
X135230000Y-60325000D01*
G37*
G36*
X133730000Y-60325000D02*
G01*
X132830000Y-60325000D01*
X132830000Y-59475000D01*
X133730000Y-59475000D01*
X133730000Y-60325000D01*
G37*
G36*
X141500000Y-59630000D02*
G01*
X138600000Y-59630000D01*
X138600000Y-56730000D01*
X141500000Y-56730000D01*
X141500000Y-59630000D01*
G37*
G36*
X120700000Y-59630000D02*
G01*
X117800000Y-59630000D01*
X117800000Y-56730000D01*
X120700000Y-56730000D01*
X120700000Y-59630000D01*
G37*
G36*
X135210000Y-58745000D02*
G01*
X134310000Y-58745000D01*
X134310000Y-57895000D01*
X135210000Y-57895000D01*
X135210000Y-58745000D01*
G37*
G36*
X133710000Y-58745000D02*
G01*
X132810000Y-58745000D01*
X132810000Y-57895000D01*
X133710000Y-57895000D01*
X133710000Y-58745000D01*
G37*
G36*
X144512520Y-56014586D02*
G01*
X144676310Y-56082430D01*
X144823717Y-56180924D01*
X144949076Y-56306283D01*
X145047570Y-56453690D01*
X145115414Y-56617480D01*
X145150000Y-56791358D01*
X145150000Y-56968642D01*
X145115414Y-57142520D01*
X145047570Y-57306310D01*
X144949076Y-57453717D01*
X144823717Y-57579076D01*
X144676310Y-57677570D01*
X144512520Y-57745414D01*
X144338642Y-57780000D01*
X144161358Y-57780000D01*
X143987480Y-57745414D01*
X143823690Y-57677570D01*
X143676283Y-57579076D01*
X143550924Y-57453717D01*
X143452430Y-57306310D01*
X143384586Y-57142520D01*
X143350000Y-56968642D01*
X143350000Y-56791358D01*
X143384586Y-56617480D01*
X143452430Y-56453690D01*
X143550924Y-56306283D01*
X143676283Y-56180924D01*
X143823690Y-56082430D01*
X143987480Y-56014586D01*
X144161358Y-55980000D01*
X144338642Y-55980000D01*
X144512520Y-56014586D01*
G37*
G36*
X123712520Y-56014586D02*
G01*
X123876310Y-56082430D01*
X124023717Y-56180924D01*
X124149076Y-56306283D01*
X124247570Y-56453690D01*
X124315414Y-56617480D01*
X124350000Y-56791358D01*
X124350000Y-56968642D01*
X124315414Y-57142520D01*
X124247570Y-57306310D01*
X124149076Y-57453717D01*
X124023717Y-57579076D01*
X123876310Y-57677570D01*
X123712520Y-57745414D01*
X123538642Y-57780000D01*
X123361358Y-57780000D01*
X123187480Y-57745414D01*
X123023690Y-57677570D01*
X122876283Y-57579076D01*
X122750924Y-57453717D01*
X122652430Y-57306310D01*
X122584586Y-57142520D01*
X122550000Y-56968642D01*
X122550000Y-56791358D01*
X122584586Y-56617480D01*
X122652430Y-56453690D01*
X122750924Y-56306283D01*
X122876283Y-56180924D01*
X123023690Y-56082430D01*
X123187480Y-56014586D01*
X123361358Y-55980000D01*
X123538642Y-55980000D01*
X123712520Y-56014586D01*
G37*
G36*
X133720000Y-57105000D02*
G01*
X132820000Y-57105000D01*
X132820000Y-56255000D01*
X133720000Y-56255000D01*
X133720000Y-57105000D01*
G37*
G36*
X135220000Y-57105000D02*
G01*
X134320000Y-57105000D01*
X134320000Y-56255000D01*
X135220000Y-56255000D01*
X135220000Y-57105000D01*
G37*
G36*
X133740000Y-55555000D02*
G01*
X132840000Y-55555000D01*
X132840000Y-54705000D01*
X133740000Y-54705000D01*
X133740000Y-55555000D01*
G37*
G36*
X135240000Y-55555000D02*
G01*
X134340000Y-55555000D01*
X134340000Y-54705000D01*
X135240000Y-54705000D01*
X135240000Y-55555000D01*
G37*
G36*
X129100000Y-51930000D02*
G01*
X126200000Y-51930000D01*
X126200000Y-49630000D01*
X129100000Y-49630000D01*
X129100000Y-51930000D01*
G37*
G36*
X149900000Y-51930000D02*
G01*
X147000000Y-51930000D01*
X147000000Y-49630000D01*
X149900000Y-49630000D01*
X149900000Y-51930000D01*
G37*
G36*
X144512520Y-49014586D02*
G01*
X144676310Y-49082430D01*
X144823717Y-49180924D01*
X144949076Y-49306283D01*
X145047570Y-49453690D01*
X145115414Y-49617480D01*
X145150000Y-49791358D01*
X145150000Y-49968642D01*
X145115414Y-50142520D01*
X145047570Y-50306310D01*
X144949076Y-50453717D01*
X144823717Y-50579076D01*
X144676310Y-50677570D01*
X144512520Y-50745414D01*
X144338642Y-50780000D01*
X144161358Y-50780000D01*
X143987480Y-50745414D01*
X143823690Y-50677570D01*
X143676283Y-50579076D01*
X143550924Y-50453717D01*
X143452430Y-50306310D01*
X143384586Y-50142520D01*
X143350000Y-49968642D01*
X143350000Y-49791358D01*
X143384586Y-49617480D01*
X143452430Y-49453690D01*
X143550924Y-49306283D01*
X143676283Y-49180924D01*
X143823690Y-49082430D01*
X143987480Y-49014586D01*
X144161358Y-48980000D01*
X144338642Y-48980000D01*
X144512520Y-49014586D01*
G37*
G36*
X123712520Y-49014586D02*
G01*
X123876310Y-49082430D01*
X124023717Y-49180924D01*
X124149076Y-49306283D01*
X124247570Y-49453690D01*
X124315414Y-49617480D01*
X124350000Y-49791358D01*
X124350000Y-49968642D01*
X124315414Y-50142520D01*
X124247570Y-50306310D01*
X124149076Y-50453717D01*
X124023717Y-50579076D01*
X123876310Y-50677570D01*
X123712520Y-50745414D01*
X123538642Y-50780000D01*
X123361358Y-50780000D01*
X123187480Y-50745414D01*
X123023690Y-50677570D01*
X122876283Y-50579076D01*
X122750924Y-50453717D01*
X122652430Y-50306310D01*
X122584586Y-50142520D01*
X122550000Y-49968642D01*
X122550000Y-49791358D01*
X122584586Y-49617480D01*
X122652430Y-49453690D01*
X122750924Y-49306283D01*
X122876283Y-49180924D01*
X123023690Y-49082430D01*
X123187480Y-49014586D01*
X123361358Y-48980000D01*
X123538642Y-48980000D01*
X123712520Y-49014586D01*
G37*
G36*
X141500000Y-49930000D02*
G01*
X138600000Y-49930000D01*
X138600000Y-47630000D01*
X141500000Y-47630000D01*
X141500000Y-49930000D01*
G37*
G36*
X120700000Y-49930000D02*
G01*
X117800000Y-49930000D01*
X117800000Y-47630000D01*
X120700000Y-47630000D01*
X120700000Y-49930000D01*
G37*
M02*
