G04 #@! TF.GenerationSoftware,KiCad,Pcbnew,(5.1.5)-3*
G04 #@! TF.CreationDate,2020-08-10T10:15:20+05:30*
G04 #@! TF.ProjectId,D_Tympan_DFMI_1.0,445f5479-6d70-4616-9e5f-44464d495f31,rev?*
G04 #@! TF.SameCoordinates,Original*
G04 #@! TF.FileFunction,Legend,Top*
G04 #@! TF.FilePolarity,Positive*
%FSLAX46Y46*%
G04 Gerber Fmt 4.6, Leading zero omitted, Abs format (unit mm)*
G04 Created by KiCad (PCBNEW (5.1.5)-3) date 2020-08-10 10:15:20*
%MOMM*%
%LPD*%
G04 APERTURE LIST*
%ADD10C,0.127000*%
%ADD11C,0.200000*%
%ADD12C,0.050000*%
%ADD13C,0.150000*%
%ADD14C,0.177800*%
%ADD15C,0.300000*%
%ADD16C,0.120000*%
%ADD17C,0.100000*%
%ADD18C,0.010000*%
G04 APERTURE END LIST*
D10*
X150702238Y-58250238D02*
X151337238Y-58250238D01*
X151337238Y-58401428D01*
X151307000Y-58492142D01*
X151246523Y-58552619D01*
X151186047Y-58582857D01*
X151065095Y-58613095D01*
X150974380Y-58613095D01*
X150853428Y-58582857D01*
X150792952Y-58552619D01*
X150732476Y-58492142D01*
X150702238Y-58401428D01*
X150702238Y-58250238D01*
X150702238Y-58885238D02*
X151337238Y-58885238D01*
X150702238Y-59157380D02*
X151034857Y-59157380D01*
X151095333Y-59127142D01*
X151125571Y-59066666D01*
X151125571Y-58975952D01*
X151095333Y-58915476D01*
X151065095Y-58885238D01*
X151125571Y-59399285D02*
X150702238Y-59520238D01*
X151004619Y-59641190D01*
X150702238Y-59762142D01*
X151125571Y-59883095D01*
X150702238Y-60397142D02*
X151034857Y-60397142D01*
X151095333Y-60366904D01*
X151125571Y-60306428D01*
X151125571Y-60185476D01*
X151095333Y-60125000D01*
X150732476Y-60397142D02*
X150702238Y-60336666D01*
X150702238Y-60185476D01*
X150732476Y-60125000D01*
X150792952Y-60094761D01*
X150853428Y-60094761D01*
X150913904Y-60125000D01*
X150944142Y-60185476D01*
X150944142Y-60336666D01*
X150974380Y-60397142D01*
X151125571Y-60699523D02*
X150702238Y-60699523D01*
X151065095Y-60699523D02*
X151095333Y-60729761D01*
X151125571Y-60790238D01*
X151125571Y-60880952D01*
X151095333Y-60941428D01*
X151034857Y-60971666D01*
X150702238Y-60971666D01*
X150702238Y-61274047D02*
X151125571Y-61274047D01*
X151337238Y-61274047D02*
X151307000Y-61243809D01*
X151276761Y-61274047D01*
X151307000Y-61304285D01*
X151337238Y-61274047D01*
X151276761Y-61274047D01*
X150702238Y-62392857D02*
X150702238Y-62030000D01*
X150702238Y-62211428D02*
X151337238Y-62211428D01*
X151246523Y-62150952D01*
X151186047Y-62090476D01*
X151155809Y-62030000D01*
X150762714Y-62665000D02*
X150732476Y-62695238D01*
X150702238Y-62665000D01*
X150732476Y-62634761D01*
X150762714Y-62665000D01*
X150702238Y-62665000D01*
X151337238Y-63088333D02*
X151337238Y-63148809D01*
X151307000Y-63209285D01*
X151276761Y-63239523D01*
X151216285Y-63269761D01*
X151095333Y-63300000D01*
X150944142Y-63300000D01*
X150823190Y-63269761D01*
X150762714Y-63239523D01*
X150732476Y-63209285D01*
X150702238Y-63148809D01*
X150702238Y-63088333D01*
X150732476Y-63027857D01*
X150762714Y-62997619D01*
X150823190Y-62967380D01*
X150944142Y-62937142D01*
X151095333Y-62937142D01*
X151216285Y-62967380D01*
X151276761Y-62997619D01*
X151307000Y-63027857D01*
X151337238Y-63088333D01*
X150257738Y-58083928D02*
X149743690Y-58083928D01*
X149683214Y-58114166D01*
X149652976Y-58144404D01*
X149622738Y-58204880D01*
X149622738Y-58325833D01*
X149652976Y-58386309D01*
X149683214Y-58416547D01*
X149743690Y-58446785D01*
X150257738Y-58446785D01*
X150257738Y-58658452D02*
X150257738Y-59021309D01*
X149622738Y-58839880D02*
X150257738Y-58839880D01*
X149652976Y-59202738D02*
X149622738Y-59293452D01*
X149622738Y-59444642D01*
X149652976Y-59505119D01*
X149683214Y-59535357D01*
X149743690Y-59565595D01*
X149804166Y-59565595D01*
X149864642Y-59535357D01*
X149894880Y-59505119D01*
X149925119Y-59444642D01*
X149955357Y-59323690D01*
X149985595Y-59263214D01*
X150015833Y-59232976D01*
X150076309Y-59202738D01*
X150136785Y-59202738D01*
X150197261Y-59232976D01*
X150227500Y-59263214D01*
X150257738Y-59323690D01*
X150257738Y-59474880D01*
X150227500Y-59565595D01*
X149804166Y-59807500D02*
X149804166Y-60109880D01*
X149622738Y-59747023D02*
X150257738Y-59958690D01*
X149622738Y-60170357D01*
X149804166Y-60351785D02*
X149804166Y-60654166D01*
X149622738Y-60291309D02*
X150257738Y-60502976D01*
X149622738Y-60714642D01*
X149622738Y-60926309D02*
X150257738Y-60926309D01*
X149955357Y-60926309D02*
X149955357Y-61289166D01*
X149622738Y-61289166D02*
X150257738Y-61289166D01*
X149622738Y-62377738D02*
X149622738Y-62075357D01*
X150257738Y-62075357D01*
X149622738Y-62861547D02*
X149955357Y-62861547D01*
X150015833Y-62831309D01*
X150046071Y-62770833D01*
X150046071Y-62649880D01*
X150015833Y-62589404D01*
X149652976Y-62861547D02*
X149622738Y-62801071D01*
X149622738Y-62649880D01*
X149652976Y-62589404D01*
X149713452Y-62559166D01*
X149773928Y-62559166D01*
X149834404Y-62589404D01*
X149864642Y-62649880D01*
X149864642Y-62801071D01*
X149894880Y-62861547D01*
X149622738Y-63163928D02*
X150257738Y-63163928D01*
X150015833Y-63163928D02*
X150046071Y-63224404D01*
X150046071Y-63345357D01*
X150015833Y-63405833D01*
X149985595Y-63436071D01*
X149925119Y-63466309D01*
X149743690Y-63466309D01*
X149683214Y-63436071D01*
X149652976Y-63405833D01*
X149622738Y-63345357D01*
X149622738Y-63224404D01*
X149652976Y-63163928D01*
X148543238Y-60034285D02*
X149178238Y-60034285D01*
X148543238Y-60336666D02*
X149178238Y-60336666D01*
X148573476Y-60608809D02*
X148543238Y-60699523D01*
X148543238Y-60850714D01*
X148573476Y-60911190D01*
X148603714Y-60941428D01*
X148664190Y-60971666D01*
X148724666Y-60971666D01*
X148785142Y-60941428D01*
X148815380Y-60911190D01*
X148845619Y-60850714D01*
X148875857Y-60729761D01*
X148906095Y-60669285D01*
X148936333Y-60639047D01*
X148996809Y-60608809D01*
X149057285Y-60608809D01*
X149117761Y-60639047D01*
X149148000Y-60669285D01*
X149178238Y-60729761D01*
X149178238Y-60880952D01*
X149148000Y-60971666D01*
X148573476Y-61515952D02*
X148543238Y-61455476D01*
X148543238Y-61334523D01*
X148573476Y-61274047D01*
X148603714Y-61243809D01*
X148664190Y-61213571D01*
X148845619Y-61213571D01*
X148906095Y-61243809D01*
X148936333Y-61274047D01*
X148966571Y-61334523D01*
X148966571Y-61455476D01*
X148936333Y-61515952D01*
D11*
X122820476Y-115627619D02*
X123296666Y-115627619D01*
X123296666Y-116627619D01*
X128122619Y-87121666D02*
X127122619Y-87455000D01*
X128122619Y-87788333D01*
X136952380Y-87838333D02*
X137952380Y-87505000D01*
X136952380Y-87171666D01*
D12*
X133266785Y-119370714D02*
X133295357Y-119380238D01*
X133304880Y-119389761D01*
X133314404Y-119408809D01*
X133314404Y-119437380D01*
X133304880Y-119456428D01*
X133295357Y-119465952D01*
X133276309Y-119475476D01*
X133200119Y-119475476D01*
X133200119Y-119275476D01*
X133266785Y-119275476D01*
X133285833Y-119285000D01*
X133295357Y-119294523D01*
X133304880Y-119313571D01*
X133304880Y-119332619D01*
X133295357Y-119351666D01*
X133285833Y-119361190D01*
X133266785Y-119370714D01*
X133200119Y-119370714D01*
X133495357Y-119475476D02*
X133400119Y-119475476D01*
X133400119Y-119275476D01*
X133562023Y-119275476D02*
X133562023Y-119437380D01*
X133571547Y-119456428D01*
X133581071Y-119465952D01*
X133600119Y-119475476D01*
X133638214Y-119475476D01*
X133657261Y-119465952D01*
X133666785Y-119456428D01*
X133676309Y-119437380D01*
X133676309Y-119275476D01*
X133771547Y-119370714D02*
X133838214Y-119370714D01*
X133866785Y-119475476D02*
X133771547Y-119475476D01*
X133771547Y-119275476D01*
X133866785Y-119275476D01*
X133923928Y-119275476D02*
X134038214Y-119275476D01*
X133981071Y-119475476D02*
X133981071Y-119275476D01*
X134142976Y-119275476D02*
X134181071Y-119275476D01*
X134200119Y-119285000D01*
X134219166Y-119304047D01*
X134228690Y-119342142D01*
X134228690Y-119408809D01*
X134219166Y-119446904D01*
X134200119Y-119465952D01*
X134181071Y-119475476D01*
X134142976Y-119475476D01*
X134123928Y-119465952D01*
X134104880Y-119446904D01*
X134095357Y-119408809D01*
X134095357Y-119342142D01*
X134104880Y-119304047D01*
X134123928Y-119285000D01*
X134142976Y-119275476D01*
X134352500Y-119275476D02*
X134390595Y-119275476D01*
X134409642Y-119285000D01*
X134428690Y-119304047D01*
X134438214Y-119342142D01*
X134438214Y-119408809D01*
X134428690Y-119446904D01*
X134409642Y-119465952D01*
X134390595Y-119475476D01*
X134352500Y-119475476D01*
X134333452Y-119465952D01*
X134314404Y-119446904D01*
X134304880Y-119408809D01*
X134304880Y-119342142D01*
X134314404Y-119304047D01*
X134333452Y-119285000D01*
X134352500Y-119275476D01*
X134495357Y-119275476D02*
X134609642Y-119275476D01*
X134552500Y-119475476D02*
X134552500Y-119275476D01*
X134676309Y-119475476D02*
X134676309Y-119275476D01*
X134676309Y-119370714D02*
X134790595Y-119370714D01*
X134790595Y-119475476D02*
X134790595Y-119275476D01*
X133190595Y-119815952D02*
X133219166Y-119825476D01*
X133266785Y-119825476D01*
X133285833Y-119815952D01*
X133295357Y-119806428D01*
X133304880Y-119787380D01*
X133304880Y-119768333D01*
X133295357Y-119749285D01*
X133285833Y-119739761D01*
X133266785Y-119730238D01*
X133228690Y-119720714D01*
X133209642Y-119711190D01*
X133200119Y-119701666D01*
X133190595Y-119682619D01*
X133190595Y-119663571D01*
X133200119Y-119644523D01*
X133209642Y-119635000D01*
X133228690Y-119625476D01*
X133276309Y-119625476D01*
X133304880Y-119635000D01*
X133362023Y-119625476D02*
X133476309Y-119625476D01*
X133419166Y-119825476D02*
X133419166Y-119625476D01*
X133533452Y-119768333D02*
X133628690Y-119768333D01*
X133514404Y-119825476D02*
X133581071Y-119625476D01*
X133647738Y-119825476D01*
X133685833Y-119625476D02*
X133800119Y-119625476D01*
X133742976Y-119825476D02*
X133742976Y-119625476D01*
X133866785Y-119625476D02*
X133866785Y-119787380D01*
X133876309Y-119806428D01*
X133885833Y-119815952D01*
X133904880Y-119825476D01*
X133942976Y-119825476D01*
X133962023Y-119815952D01*
X133971547Y-119806428D01*
X133981071Y-119787380D01*
X133981071Y-119625476D01*
X134066785Y-119815952D02*
X134095357Y-119825476D01*
X134142976Y-119825476D01*
X134162023Y-119815952D01*
X134171547Y-119806428D01*
X134181071Y-119787380D01*
X134181071Y-119768333D01*
X134171547Y-119749285D01*
X134162023Y-119739761D01*
X134142976Y-119730238D01*
X134104880Y-119720714D01*
X134085833Y-119711190D01*
X134076309Y-119701666D01*
X134066785Y-119682619D01*
X134066785Y-119663571D01*
X134076309Y-119644523D01*
X134085833Y-119635000D01*
X134104880Y-119625476D01*
X134152500Y-119625476D01*
X134181071Y-119635000D01*
D13*
X120352857Y-119614285D02*
X120324285Y-119642857D01*
X120238571Y-119671428D01*
X120181428Y-119671428D01*
X120095714Y-119642857D01*
X120038571Y-119585714D01*
X120010000Y-119528571D01*
X119981428Y-119414285D01*
X119981428Y-119328571D01*
X120010000Y-119214285D01*
X120038571Y-119157142D01*
X120095714Y-119100000D01*
X120181428Y-119071428D01*
X120238571Y-119071428D01*
X120324285Y-119100000D01*
X120352857Y-119128571D01*
X120610000Y-119671428D02*
X120610000Y-119071428D01*
X120610000Y-119357142D02*
X120952857Y-119357142D01*
X120952857Y-119671428D02*
X120952857Y-119071428D01*
X121210000Y-119500000D02*
X121495714Y-119500000D01*
X121152857Y-119671428D02*
X121352857Y-119071428D01*
X121552857Y-119671428D01*
X122095714Y-119671428D02*
X121895714Y-119385714D01*
X121752857Y-119671428D02*
X121752857Y-119071428D01*
X121981428Y-119071428D01*
X122038571Y-119100000D01*
X122067142Y-119128571D01*
X122095714Y-119185714D01*
X122095714Y-119271428D01*
X122067142Y-119328571D01*
X122038571Y-119357142D01*
X121981428Y-119385714D01*
X121752857Y-119385714D01*
X122667142Y-119100000D02*
X122610000Y-119071428D01*
X122524285Y-119071428D01*
X122438571Y-119100000D01*
X122381428Y-119157142D01*
X122352857Y-119214285D01*
X122324285Y-119328571D01*
X122324285Y-119414285D01*
X122352857Y-119528571D01*
X122381428Y-119585714D01*
X122438571Y-119642857D01*
X122524285Y-119671428D01*
X122581428Y-119671428D01*
X122667142Y-119642857D01*
X122695714Y-119614285D01*
X122695714Y-119414285D01*
X122581428Y-119414285D01*
X122952857Y-119357142D02*
X123152857Y-119357142D01*
X123238571Y-119671428D02*
X122952857Y-119671428D01*
X122952857Y-119071428D01*
X123238571Y-119071428D01*
X140202500Y-71741904D02*
X140202500Y-70941904D01*
X140431071Y-70941904D01*
X140488214Y-70980000D01*
X140516785Y-71018095D01*
X140545357Y-71094285D01*
X140545357Y-71208571D01*
X140516785Y-71284761D01*
X140488214Y-71322857D01*
X140431071Y-71360952D01*
X140202500Y-71360952D01*
X140802500Y-71741904D02*
X140802500Y-70941904D01*
X140945357Y-70941904D01*
X141031071Y-70980000D01*
X141088214Y-71056190D01*
X141116785Y-71132380D01*
X141145357Y-71284761D01*
X141145357Y-71399047D01*
X141116785Y-71551428D01*
X141088214Y-71627619D01*
X141031071Y-71703809D01*
X140945357Y-71741904D01*
X140802500Y-71741904D01*
X141402500Y-71741904D02*
X141402500Y-70941904D01*
X141602500Y-71513333D01*
X141802500Y-70941904D01*
X141802500Y-71741904D01*
X141945357Y-71818095D02*
X142402500Y-71818095D01*
X142545357Y-71741904D02*
X142545357Y-70941904D01*
X142688214Y-70941904D01*
X142773928Y-70980000D01*
X142831071Y-71056190D01*
X142859642Y-71132380D01*
X142888214Y-71284761D01*
X142888214Y-71399047D01*
X142859642Y-71551428D01*
X142831071Y-71627619D01*
X142773928Y-71703809D01*
X142688214Y-71741904D01*
X142545357Y-71741904D01*
X143116785Y-71513333D02*
X143402500Y-71513333D01*
X143059642Y-71741904D02*
X143259642Y-70941904D01*
X143459642Y-71741904D01*
X143573928Y-70941904D02*
X143916785Y-70941904D01*
X143745357Y-71741904D02*
X143745357Y-70941904D01*
X144259642Y-72008571D02*
X144259642Y-70865714D01*
X144631071Y-70941904D02*
X145002500Y-70941904D01*
X144802500Y-71246666D01*
X144888214Y-71246666D01*
X144945357Y-71284761D01*
X144973928Y-71322857D01*
X145002500Y-71399047D01*
X145002500Y-71589523D01*
X144973928Y-71665714D01*
X144945357Y-71703809D01*
X144888214Y-71741904D01*
X144716785Y-71741904D01*
X144659642Y-71703809D01*
X144631071Y-71665714D01*
X145173928Y-70941904D02*
X145373928Y-71741904D01*
X145573928Y-70941904D01*
X145716785Y-70941904D02*
X146088214Y-70941904D01*
X145888214Y-71246666D01*
X145973928Y-71246666D01*
X146031071Y-71284761D01*
X146059642Y-71322857D01*
X146088214Y-71399047D01*
X146088214Y-71589523D01*
X146059642Y-71665714D01*
X146031071Y-71703809D01*
X145973928Y-71741904D01*
X145802500Y-71741904D01*
X145745357Y-71703809D01*
X145716785Y-71665714D01*
X139431071Y-74441904D02*
X139431071Y-73641904D01*
X139659642Y-73641904D01*
X139716785Y-73680000D01*
X139745357Y-73718095D01*
X139773928Y-73794285D01*
X139773928Y-73908571D01*
X139745357Y-73984761D01*
X139716785Y-74022857D01*
X139659642Y-74060952D01*
X139431071Y-74060952D01*
X140031071Y-74441904D02*
X140031071Y-73641904D01*
X140173928Y-73641904D01*
X140259642Y-73680000D01*
X140316785Y-73756190D01*
X140345357Y-73832380D01*
X140373928Y-73984761D01*
X140373928Y-74099047D01*
X140345357Y-74251428D01*
X140316785Y-74327619D01*
X140259642Y-74403809D01*
X140173928Y-74441904D01*
X140031071Y-74441904D01*
X140631071Y-74441904D02*
X140631071Y-73641904D01*
X140831071Y-74213333D01*
X141031071Y-73641904D01*
X141031071Y-74441904D01*
X141173928Y-74518095D02*
X141631071Y-74518095D01*
X142116785Y-74365714D02*
X142088214Y-74403809D01*
X142002500Y-74441904D01*
X141945357Y-74441904D01*
X141859642Y-74403809D01*
X141802500Y-74327619D01*
X141773928Y-74251428D01*
X141745357Y-74099047D01*
X141745357Y-73984761D01*
X141773928Y-73832380D01*
X141802500Y-73756190D01*
X141859642Y-73680000D01*
X141945357Y-73641904D01*
X142002500Y-73641904D01*
X142088214Y-73680000D01*
X142116785Y-73718095D01*
X142659642Y-74441904D02*
X142373928Y-74441904D01*
X142373928Y-73641904D01*
X142859642Y-74441904D02*
X142859642Y-73641904D01*
X143202500Y-74441904D02*
X142945357Y-73984761D01*
X143202500Y-73641904D02*
X142859642Y-74099047D01*
X143602500Y-74708571D02*
X143602500Y-73565714D01*
X144031071Y-74441904D02*
X144031071Y-73641904D01*
X144173928Y-73641904D01*
X144259642Y-73680000D01*
X144316785Y-73756190D01*
X144345357Y-73832380D01*
X144373928Y-73984761D01*
X144373928Y-74099047D01*
X144345357Y-74251428D01*
X144316785Y-74327619D01*
X144259642Y-74403809D01*
X144173928Y-74441904D01*
X144031071Y-74441904D01*
X144745357Y-73641904D02*
X144859642Y-73641904D01*
X144916785Y-73680000D01*
X144973928Y-73756190D01*
X145002500Y-73908571D01*
X145002500Y-74175238D01*
X144973928Y-74327619D01*
X144916785Y-74403809D01*
X144859642Y-74441904D01*
X144745357Y-74441904D01*
X144688214Y-74403809D01*
X144631071Y-74327619D01*
X144602500Y-74175238D01*
X144602500Y-73908571D01*
X144631071Y-73756190D01*
X144688214Y-73680000D01*
X144745357Y-73641904D01*
X145259642Y-73641904D02*
X145259642Y-74289523D01*
X145288214Y-74365714D01*
X145316785Y-74403809D01*
X145373928Y-74441904D01*
X145488214Y-74441904D01*
X145545357Y-74403809D01*
X145573928Y-74365714D01*
X145602500Y-74289523D01*
X145602500Y-73641904D01*
X145802500Y-73641904D02*
X146145357Y-73641904D01*
X145973928Y-74441904D02*
X145973928Y-73641904D01*
X141059642Y-77141904D02*
X141059642Y-76341904D01*
X141259642Y-76913333D01*
X141459642Y-76341904D01*
X141459642Y-77141904D01*
X141745357Y-77141904D02*
X141745357Y-76341904D01*
X142002500Y-77103809D02*
X142088214Y-77141904D01*
X142231071Y-77141904D01*
X142288214Y-77103809D01*
X142316785Y-77065714D01*
X142345357Y-76989523D01*
X142345357Y-76913333D01*
X142316785Y-76837142D01*
X142288214Y-76799047D01*
X142231071Y-76760952D01*
X142116785Y-76722857D01*
X142059642Y-76684761D01*
X142031071Y-76646666D01*
X142002500Y-76570476D01*
X142002500Y-76494285D01*
X142031071Y-76418095D01*
X142059642Y-76380000D01*
X142116785Y-76341904D01*
X142259642Y-76341904D01*
X142345357Y-76380000D01*
X142716785Y-76341904D02*
X142831071Y-76341904D01*
X142888214Y-76380000D01*
X142945357Y-76456190D01*
X142973928Y-76608571D01*
X142973928Y-76875238D01*
X142945357Y-77027619D01*
X142888214Y-77103809D01*
X142831071Y-77141904D01*
X142716785Y-77141904D01*
X142659642Y-77103809D01*
X142602500Y-77027619D01*
X142573928Y-76875238D01*
X142573928Y-76608571D01*
X142602500Y-76456190D01*
X142659642Y-76380000D01*
X142716785Y-76341904D01*
X143088214Y-77218095D02*
X143545357Y-77218095D01*
X143659642Y-76418095D02*
X143688214Y-76380000D01*
X143745357Y-76341904D01*
X143888214Y-76341904D01*
X143945357Y-76380000D01*
X143973928Y-76418095D01*
X144002500Y-76494285D01*
X144002500Y-76570476D01*
X143973928Y-76684761D01*
X143631071Y-77141904D01*
X144002500Y-77141904D01*
X144402500Y-77408571D02*
X144402500Y-76265714D01*
X144831071Y-77141904D02*
X144831071Y-76341904D01*
X144973928Y-76341904D01*
X145059642Y-76380000D01*
X145116785Y-76456190D01*
X145145357Y-76532380D01*
X145173928Y-76684761D01*
X145173928Y-76799047D01*
X145145357Y-76951428D01*
X145116785Y-77027619D01*
X145059642Y-77103809D01*
X144973928Y-77141904D01*
X144831071Y-77141904D01*
X145431071Y-77141904D02*
X145431071Y-76341904D01*
X145716785Y-77141904D02*
X145716785Y-76341904D01*
X146059642Y-77141904D01*
X146059642Y-76341904D01*
X140316785Y-79841904D02*
X140316785Y-79041904D01*
X140516785Y-79613333D01*
X140716785Y-79041904D01*
X140716785Y-79841904D01*
X141116785Y-79041904D02*
X141231071Y-79041904D01*
X141288214Y-79080000D01*
X141345357Y-79156190D01*
X141373928Y-79308571D01*
X141373928Y-79575238D01*
X141345357Y-79727619D01*
X141288214Y-79803809D01*
X141231071Y-79841904D01*
X141116785Y-79841904D01*
X141059642Y-79803809D01*
X141002500Y-79727619D01*
X140973928Y-79575238D01*
X140973928Y-79308571D01*
X141002500Y-79156190D01*
X141059642Y-79080000D01*
X141116785Y-79041904D01*
X141602500Y-79803809D02*
X141688214Y-79841904D01*
X141831071Y-79841904D01*
X141888214Y-79803809D01*
X141916785Y-79765714D01*
X141945357Y-79689523D01*
X141945357Y-79613333D01*
X141916785Y-79537142D01*
X141888214Y-79499047D01*
X141831071Y-79460952D01*
X141716785Y-79422857D01*
X141659642Y-79384761D01*
X141631071Y-79346666D01*
X141602500Y-79270476D01*
X141602500Y-79194285D01*
X141631071Y-79118095D01*
X141659642Y-79080000D01*
X141716785Y-79041904D01*
X141859642Y-79041904D01*
X141945357Y-79080000D01*
X142202500Y-79841904D02*
X142202500Y-79041904D01*
X142345357Y-79918095D02*
X142802500Y-79918095D01*
X142916785Y-79118095D02*
X142945357Y-79080000D01*
X143002500Y-79041904D01*
X143145357Y-79041904D01*
X143202500Y-79080000D01*
X143231071Y-79118095D01*
X143259642Y-79194285D01*
X143259642Y-79270476D01*
X143231071Y-79384761D01*
X142888214Y-79841904D01*
X143259642Y-79841904D01*
X143659642Y-80108571D02*
X143659642Y-78965714D01*
X144059642Y-79803809D02*
X144145357Y-79841904D01*
X144288214Y-79841904D01*
X144345357Y-79803809D01*
X144373928Y-79765714D01*
X144402500Y-79689523D01*
X144402500Y-79613333D01*
X144373928Y-79537142D01*
X144345357Y-79499047D01*
X144288214Y-79460952D01*
X144173928Y-79422857D01*
X144116785Y-79384761D01*
X144088214Y-79346666D01*
X144059642Y-79270476D01*
X144059642Y-79194285D01*
X144088214Y-79118095D01*
X144116785Y-79080000D01*
X144173928Y-79041904D01*
X144316785Y-79041904D01*
X144402500Y-79080000D01*
X144659642Y-79841904D02*
X144659642Y-79041904D01*
X144802500Y-79041904D01*
X144888214Y-79080000D01*
X144945357Y-79156190D01*
X144973928Y-79232380D01*
X145002500Y-79384761D01*
X145002500Y-79499047D01*
X144973928Y-79651428D01*
X144945357Y-79727619D01*
X144888214Y-79803809D01*
X144802500Y-79841904D01*
X144659642Y-79841904D01*
X145231071Y-79613333D02*
X145516785Y-79613333D01*
X145173928Y-79841904D02*
X145373928Y-79041904D01*
X145573928Y-79841904D01*
X145745357Y-79118095D02*
X145773928Y-79080000D01*
X145831071Y-79041904D01*
X145973928Y-79041904D01*
X146031071Y-79080000D01*
X146059642Y-79118095D01*
X146088214Y-79194285D01*
X146088214Y-79270476D01*
X146059642Y-79384761D01*
X145716785Y-79841904D01*
X146088214Y-79841904D01*
X140716785Y-82503809D02*
X140802500Y-82541904D01*
X140945357Y-82541904D01*
X141002500Y-82503809D01*
X141031071Y-82465714D01*
X141059642Y-82389523D01*
X141059642Y-82313333D01*
X141031071Y-82237142D01*
X141002500Y-82199047D01*
X140945357Y-82160952D01*
X140831071Y-82122857D01*
X140773928Y-82084761D01*
X140745357Y-82046666D01*
X140716785Y-81970476D01*
X140716785Y-81894285D01*
X140745357Y-81818095D01*
X140773928Y-81780000D01*
X140831071Y-81741904D01*
X140973928Y-81741904D01*
X141059642Y-81780000D01*
X141659642Y-82465714D02*
X141631071Y-82503809D01*
X141545357Y-82541904D01*
X141488214Y-82541904D01*
X141402500Y-82503809D01*
X141345357Y-82427619D01*
X141316785Y-82351428D01*
X141288214Y-82199047D01*
X141288214Y-82084761D01*
X141316785Y-81932380D01*
X141345357Y-81856190D01*
X141402500Y-81780000D01*
X141488214Y-81741904D01*
X141545357Y-81741904D01*
X141631071Y-81780000D01*
X141659642Y-81818095D01*
X141916785Y-82541904D02*
X141916785Y-81741904D01*
X142259642Y-82541904D02*
X142002500Y-82084761D01*
X142259642Y-81741904D02*
X141916785Y-82199047D01*
X142373928Y-82618095D02*
X142831071Y-82618095D01*
X142945357Y-81818095D02*
X142973928Y-81780000D01*
X143031071Y-81741904D01*
X143173928Y-81741904D01*
X143231071Y-81780000D01*
X143259642Y-81818095D01*
X143288214Y-81894285D01*
X143288214Y-81970476D01*
X143259642Y-82084761D01*
X142916785Y-82541904D01*
X143288214Y-82541904D01*
X143688214Y-82808571D02*
X143688214Y-81665714D01*
X144088214Y-82503809D02*
X144173928Y-82541904D01*
X144316785Y-82541904D01*
X144373928Y-82503809D01*
X144402500Y-82465714D01*
X144431071Y-82389523D01*
X144431071Y-82313333D01*
X144402500Y-82237142D01*
X144373928Y-82199047D01*
X144316785Y-82160952D01*
X144202500Y-82122857D01*
X144145357Y-82084761D01*
X144116785Y-82046666D01*
X144088214Y-81970476D01*
X144088214Y-81894285D01*
X144116785Y-81818095D01*
X144145357Y-81780000D01*
X144202500Y-81741904D01*
X144345357Y-81741904D01*
X144431071Y-81780000D01*
X145031071Y-82465714D02*
X145002500Y-82503809D01*
X144916785Y-82541904D01*
X144859642Y-82541904D01*
X144773928Y-82503809D01*
X144716785Y-82427619D01*
X144688214Y-82351428D01*
X144659642Y-82199047D01*
X144659642Y-82084761D01*
X144688214Y-81932380D01*
X144716785Y-81856190D01*
X144773928Y-81780000D01*
X144859642Y-81741904D01*
X144916785Y-81741904D01*
X145002500Y-81780000D01*
X145031071Y-81818095D01*
X145573928Y-82541904D02*
X145288214Y-82541904D01*
X145288214Y-81741904D01*
X145745357Y-81818095D02*
X145773928Y-81780000D01*
X145831071Y-81741904D01*
X145973928Y-81741904D01*
X146031071Y-81780000D01*
X146059642Y-81818095D01*
X146088214Y-81894285D01*
X146088214Y-81970476D01*
X146059642Y-82084761D01*
X145716785Y-82541904D01*
X146088214Y-82541904D01*
X141745357Y-85203809D02*
X141831071Y-85241904D01*
X141973928Y-85241904D01*
X142031071Y-85203809D01*
X142059642Y-85165714D01*
X142088214Y-85089523D01*
X142088214Y-85013333D01*
X142059642Y-84937142D01*
X142031071Y-84899047D01*
X141973928Y-84860952D01*
X141859642Y-84822857D01*
X141802500Y-84784761D01*
X141773928Y-84746666D01*
X141745357Y-84670476D01*
X141745357Y-84594285D01*
X141773928Y-84518095D01*
X141802500Y-84480000D01*
X141859642Y-84441904D01*
X142002500Y-84441904D01*
X142088214Y-84480000D01*
X142316785Y-85203809D02*
X142402500Y-85241904D01*
X142545357Y-85241904D01*
X142602500Y-85203809D01*
X142631071Y-85165714D01*
X142659642Y-85089523D01*
X142659642Y-85013333D01*
X142631071Y-84937142D01*
X142602500Y-84899047D01*
X142545357Y-84860952D01*
X142431071Y-84822857D01*
X142373928Y-84784761D01*
X142345357Y-84746666D01*
X142316785Y-84670476D01*
X142316785Y-84594285D01*
X142345357Y-84518095D01*
X142373928Y-84480000D01*
X142431071Y-84441904D01*
X142573928Y-84441904D01*
X142659642Y-84480000D01*
X142773928Y-85318095D02*
X143231071Y-85318095D01*
X143345357Y-84518095D02*
X143373928Y-84480000D01*
X143431071Y-84441904D01*
X143573928Y-84441904D01*
X143631071Y-84480000D01*
X143659642Y-84518095D01*
X143688214Y-84594285D01*
X143688214Y-84670476D01*
X143659642Y-84784761D01*
X143316785Y-85241904D01*
X143688214Y-85241904D01*
X144088214Y-85508571D02*
X144088214Y-84365714D01*
X144831071Y-84480000D02*
X144773928Y-84441904D01*
X144688214Y-84441904D01*
X144602500Y-84480000D01*
X144545357Y-84556190D01*
X144516785Y-84632380D01*
X144488214Y-84784761D01*
X144488214Y-84899047D01*
X144516785Y-85051428D01*
X144545357Y-85127619D01*
X144602500Y-85203809D01*
X144688214Y-85241904D01*
X144745357Y-85241904D01*
X144831071Y-85203809D01*
X144859642Y-85165714D01*
X144859642Y-84899047D01*
X144745357Y-84899047D01*
X145116785Y-85241904D02*
X145116785Y-84441904D01*
X145459642Y-85241904D01*
X145459642Y-84441904D01*
X145745357Y-85241904D02*
X145745357Y-84441904D01*
X145888214Y-84441904D01*
X145973928Y-84480000D01*
X146031071Y-84556190D01*
X146059642Y-84632380D01*
X146088214Y-84784761D01*
X146088214Y-84899047D01*
X146059642Y-85051428D01*
X146031071Y-85127619D01*
X145973928Y-85203809D01*
X145888214Y-85241904D01*
X145745357Y-85241904D01*
X121044642Y-71441904D02*
X120701785Y-71441904D01*
X120873214Y-71441904D02*
X120873214Y-70641904D01*
X120816071Y-70756190D01*
X120758928Y-70832380D01*
X120701785Y-70870476D01*
X121216071Y-70641904D02*
X121416071Y-71441904D01*
X121616071Y-70641904D01*
X121901785Y-70984761D02*
X121844642Y-70946666D01*
X121816071Y-70908571D01*
X121787500Y-70832380D01*
X121787500Y-70794285D01*
X121816071Y-70718095D01*
X121844642Y-70680000D01*
X121901785Y-70641904D01*
X122016071Y-70641904D01*
X122073214Y-70680000D01*
X122101785Y-70718095D01*
X122130357Y-70794285D01*
X122130357Y-70832380D01*
X122101785Y-70908571D01*
X122073214Y-70946666D01*
X122016071Y-70984761D01*
X121901785Y-70984761D01*
X121844642Y-71022857D01*
X121816071Y-71060952D01*
X121787500Y-71137142D01*
X121787500Y-71289523D01*
X121816071Y-71365714D01*
X121844642Y-71403809D01*
X121901785Y-71441904D01*
X122016071Y-71441904D01*
X122073214Y-71403809D01*
X122101785Y-71365714D01*
X122130357Y-71289523D01*
X122130357Y-71137142D01*
X122101785Y-71060952D01*
X122073214Y-71022857D01*
X122016071Y-70984761D01*
X122530357Y-71708571D02*
X122530357Y-70565714D01*
X122958928Y-71441904D02*
X122958928Y-70641904D01*
X123158928Y-71213333D01*
X123358928Y-70641904D01*
X123358928Y-71441904D01*
X123501785Y-71518095D02*
X123958928Y-71518095D01*
X124301785Y-71022857D02*
X124387500Y-71060952D01*
X124416071Y-71099047D01*
X124444642Y-71175238D01*
X124444642Y-71289523D01*
X124416071Y-71365714D01*
X124387500Y-71403809D01*
X124330357Y-71441904D01*
X124101785Y-71441904D01*
X124101785Y-70641904D01*
X124301785Y-70641904D01*
X124358928Y-70680000D01*
X124387500Y-70718095D01*
X124416071Y-70794285D01*
X124416071Y-70870476D01*
X124387500Y-70946666D01*
X124358928Y-70984761D01*
X124301785Y-71022857D01*
X124101785Y-71022857D01*
X124701785Y-71441904D02*
X124701785Y-70641904D01*
X124958928Y-71213333D02*
X125244642Y-71213333D01*
X124901785Y-71441904D02*
X125101785Y-70641904D01*
X125301785Y-71441904D01*
X125473214Y-71403809D02*
X125558928Y-71441904D01*
X125701785Y-71441904D01*
X125758928Y-71403809D01*
X125787500Y-71365714D01*
X125816071Y-71289523D01*
X125816071Y-71213333D01*
X125787500Y-71137142D01*
X125758928Y-71099047D01*
X125701785Y-71060952D01*
X125587500Y-71022857D01*
X125530357Y-70984761D01*
X125501785Y-70946666D01*
X125473214Y-70870476D01*
X125473214Y-70794285D01*
X125501785Y-70718095D01*
X125530357Y-70680000D01*
X125587500Y-70641904D01*
X125730357Y-70641904D01*
X125816071Y-70680000D01*
X125930357Y-71518095D02*
X126387500Y-71518095D01*
X126844642Y-71441904D02*
X126501785Y-71441904D01*
X126673214Y-71441904D02*
X126673214Y-70641904D01*
X126616071Y-70756190D01*
X126558928Y-70832380D01*
X126501785Y-70870476D01*
X120730357Y-74141904D02*
X120730357Y-73341904D01*
X121016071Y-74141904D02*
X121016071Y-73341904D01*
X121358928Y-74141904D01*
X121358928Y-73341904D01*
X121958928Y-74141904D02*
X121616071Y-74141904D01*
X121787500Y-74141904D02*
X121787500Y-73341904D01*
X121730357Y-73456190D01*
X121673214Y-73532380D01*
X121616071Y-73570476D01*
X122073214Y-74218095D02*
X122530357Y-74218095D01*
X123016071Y-74141904D02*
X122816071Y-73760952D01*
X122673214Y-74141904D02*
X122673214Y-73341904D01*
X122901785Y-73341904D01*
X122958928Y-73380000D01*
X122987500Y-73418095D01*
X123016071Y-73494285D01*
X123016071Y-73608571D01*
X122987500Y-73684761D01*
X122958928Y-73722857D01*
X122901785Y-73760952D01*
X122673214Y-73760952D01*
X123416071Y-74408571D02*
X123416071Y-73265714D01*
X123844642Y-74141904D02*
X123844642Y-73341904D01*
X124044642Y-73913333D01*
X124244642Y-73341904D01*
X124244642Y-74141904D01*
X124873214Y-74065714D02*
X124844642Y-74103809D01*
X124758928Y-74141904D01*
X124701785Y-74141904D01*
X124616071Y-74103809D01*
X124558928Y-74027619D01*
X124530357Y-73951428D01*
X124501785Y-73799047D01*
X124501785Y-73684761D01*
X124530357Y-73532380D01*
X124558928Y-73456190D01*
X124616071Y-73380000D01*
X124701785Y-73341904D01*
X124758928Y-73341904D01*
X124844642Y-73380000D01*
X124873214Y-73418095D01*
X125416071Y-74141904D02*
X125130357Y-74141904D01*
X125130357Y-73341904D01*
X125616071Y-74141904D02*
X125616071Y-73341904D01*
X125958928Y-74141904D02*
X125701785Y-73684761D01*
X125958928Y-73341904D02*
X125616071Y-73799047D01*
X120730357Y-76841904D02*
X120730357Y-76041904D01*
X121016071Y-76841904D02*
X121016071Y-76041904D01*
X121358928Y-76841904D01*
X121358928Y-76041904D01*
X121958928Y-76841904D02*
X121616071Y-76841904D01*
X121787500Y-76841904D02*
X121787500Y-76041904D01*
X121730357Y-76156190D01*
X121673214Y-76232380D01*
X121616071Y-76270476D01*
X122073214Y-76918095D02*
X122530357Y-76918095D01*
X122958928Y-76841904D02*
X122673214Y-76841904D01*
X122673214Y-76041904D01*
X123301785Y-77108571D02*
X123301785Y-75965714D01*
X123930357Y-76422857D02*
X124016071Y-76460952D01*
X124044642Y-76499047D01*
X124073214Y-76575238D01*
X124073214Y-76689523D01*
X124044642Y-76765714D01*
X124016071Y-76803809D01*
X123958928Y-76841904D01*
X123730357Y-76841904D01*
X123730357Y-76041904D01*
X123930357Y-76041904D01*
X123987500Y-76080000D01*
X124016071Y-76118095D01*
X124044642Y-76194285D01*
X124044642Y-76270476D01*
X124016071Y-76346666D01*
X123987500Y-76384761D01*
X123930357Y-76422857D01*
X123730357Y-76422857D01*
X124673214Y-76765714D02*
X124644642Y-76803809D01*
X124558928Y-76841904D01*
X124501785Y-76841904D01*
X124416071Y-76803809D01*
X124358928Y-76727619D01*
X124330357Y-76651428D01*
X124301785Y-76499047D01*
X124301785Y-76384761D01*
X124330357Y-76232380D01*
X124358928Y-76156190D01*
X124416071Y-76080000D01*
X124501785Y-76041904D01*
X124558928Y-76041904D01*
X124644642Y-76080000D01*
X124673214Y-76118095D01*
X125216071Y-76841904D02*
X124930357Y-76841904D01*
X124930357Y-76041904D01*
X125416071Y-76841904D02*
X125416071Y-76041904D01*
X125758928Y-76841904D02*
X125501785Y-76384761D01*
X125758928Y-76041904D02*
X125416071Y-76499047D01*
X121016071Y-79541904D02*
X120730357Y-79541904D01*
X120730357Y-78741904D01*
X121330357Y-78741904D02*
X121444642Y-78741904D01*
X121501785Y-78780000D01*
X121558928Y-78856190D01*
X121587500Y-79008571D01*
X121587500Y-79275238D01*
X121558928Y-79427619D01*
X121501785Y-79503809D01*
X121444642Y-79541904D01*
X121330357Y-79541904D01*
X121273214Y-79503809D01*
X121216071Y-79427619D01*
X121187500Y-79275238D01*
X121187500Y-79008571D01*
X121216071Y-78856190D01*
X121273214Y-78780000D01*
X121330357Y-78741904D01*
X122130357Y-79541904D02*
X121844642Y-79541904D01*
X121844642Y-78741904D01*
X122473214Y-79808571D02*
X122473214Y-78665714D01*
X122844642Y-78741904D02*
X122987500Y-79541904D01*
X123101785Y-78970476D01*
X123216071Y-79541904D01*
X123358928Y-78741904D01*
X123930357Y-79465714D02*
X123901785Y-79503809D01*
X123816071Y-79541904D01*
X123758928Y-79541904D01*
X123673214Y-79503809D01*
X123616071Y-79427619D01*
X123587500Y-79351428D01*
X123558928Y-79199047D01*
X123558928Y-79084761D01*
X123587500Y-78932380D01*
X123616071Y-78856190D01*
X123673214Y-78780000D01*
X123758928Y-78741904D01*
X123816071Y-78741904D01*
X123901785Y-78780000D01*
X123930357Y-78818095D01*
X124473214Y-79541904D02*
X124187500Y-79541904D01*
X124187500Y-78741904D01*
X124673214Y-79541904D02*
X124673214Y-78741904D01*
X125016071Y-79541904D02*
X124758928Y-79084761D01*
X125016071Y-78741904D02*
X124673214Y-79199047D01*
X121016071Y-82241904D02*
X120730357Y-82241904D01*
X120730357Y-81441904D01*
X121330357Y-81441904D02*
X121444642Y-81441904D01*
X121501785Y-81480000D01*
X121558928Y-81556190D01*
X121587500Y-81708571D01*
X121587500Y-81975238D01*
X121558928Y-82127619D01*
X121501785Y-82203809D01*
X121444642Y-82241904D01*
X121330357Y-82241904D01*
X121273214Y-82203809D01*
X121216071Y-82127619D01*
X121187500Y-81975238D01*
X121187500Y-81708571D01*
X121216071Y-81556190D01*
X121273214Y-81480000D01*
X121330357Y-81441904D01*
X122187500Y-82241904D02*
X121987500Y-81860952D01*
X121844642Y-82241904D02*
X121844642Y-81441904D01*
X122073214Y-81441904D01*
X122130357Y-81480000D01*
X122158928Y-81518095D01*
X122187500Y-81594285D01*
X122187500Y-81708571D01*
X122158928Y-81784761D01*
X122130357Y-81822857D01*
X122073214Y-81860952D01*
X121844642Y-81860952D01*
X122587500Y-82508571D02*
X122587500Y-81365714D01*
X123358928Y-82241904D02*
X123158928Y-81860952D01*
X123016071Y-82241904D02*
X123016071Y-81441904D01*
X123244642Y-81441904D01*
X123301785Y-81480000D01*
X123330357Y-81518095D01*
X123358928Y-81594285D01*
X123358928Y-81708571D01*
X123330357Y-81784761D01*
X123301785Y-81822857D01*
X123244642Y-81860952D01*
X123016071Y-81860952D01*
X123587500Y-82203809D02*
X123673214Y-82241904D01*
X123816071Y-82241904D01*
X123873214Y-82203809D01*
X123901785Y-82165714D01*
X123930357Y-82089523D01*
X123930357Y-82013333D01*
X123901785Y-81937142D01*
X123873214Y-81899047D01*
X123816071Y-81860952D01*
X123701785Y-81822857D01*
X123644642Y-81784761D01*
X123616071Y-81746666D01*
X123587500Y-81670476D01*
X123587500Y-81594285D01*
X123616071Y-81518095D01*
X123644642Y-81480000D01*
X123701785Y-81441904D01*
X123844642Y-81441904D01*
X123930357Y-81480000D01*
X124101785Y-81441904D02*
X124444642Y-81441904D01*
X124273214Y-82241904D02*
X124273214Y-81441904D01*
X124501785Y-82318095D02*
X124958928Y-82318095D01*
X125416071Y-82241904D02*
X125073214Y-82241904D01*
X125244642Y-82241904D02*
X125244642Y-81441904D01*
X125187500Y-81556190D01*
X125130357Y-81632380D01*
X125073214Y-81670476D01*
X121044642Y-84180000D02*
X120987500Y-84141904D01*
X120901785Y-84141904D01*
X120816071Y-84180000D01*
X120758928Y-84256190D01*
X120730357Y-84332380D01*
X120701785Y-84484761D01*
X120701785Y-84599047D01*
X120730357Y-84751428D01*
X120758928Y-84827619D01*
X120816071Y-84903809D01*
X120901785Y-84941904D01*
X120958928Y-84941904D01*
X121044642Y-84903809D01*
X121073214Y-84865714D01*
X121073214Y-84599047D01*
X120958928Y-84599047D01*
X121330357Y-84941904D02*
X121330357Y-84141904D01*
X121673214Y-84941904D01*
X121673214Y-84141904D01*
X121958928Y-84941904D02*
X121958928Y-84141904D01*
X122101785Y-84141904D01*
X122187500Y-84180000D01*
X122244642Y-84256190D01*
X122273214Y-84332380D01*
X122301785Y-84484761D01*
X122301785Y-84599047D01*
X122273214Y-84751428D01*
X122244642Y-84827619D01*
X122187500Y-84903809D01*
X122101785Y-84941904D01*
X121958928Y-84941904D01*
X122701785Y-85208571D02*
X122701785Y-84065714D01*
X123444642Y-84180000D02*
X123387500Y-84141904D01*
X123301785Y-84141904D01*
X123216071Y-84180000D01*
X123158928Y-84256190D01*
X123130357Y-84332380D01*
X123101785Y-84484761D01*
X123101785Y-84599047D01*
X123130357Y-84751428D01*
X123158928Y-84827619D01*
X123216071Y-84903809D01*
X123301785Y-84941904D01*
X123358928Y-84941904D01*
X123444642Y-84903809D01*
X123473214Y-84865714D01*
X123473214Y-84599047D01*
X123358928Y-84599047D01*
X123730357Y-84941904D02*
X123730357Y-84141904D01*
X124073214Y-84941904D01*
X124073214Y-84141904D01*
X124358928Y-84941904D02*
X124358928Y-84141904D01*
X124501785Y-84141904D01*
X124587500Y-84180000D01*
X124644642Y-84256190D01*
X124673214Y-84332380D01*
X124701785Y-84484761D01*
X124701785Y-84599047D01*
X124673214Y-84751428D01*
X124644642Y-84827619D01*
X124587500Y-84903809D01*
X124501785Y-84941904D01*
X124358928Y-84941904D01*
D11*
X150402380Y-97758571D02*
X149735714Y-97758571D01*
X149830952Y-97758571D02*
X149783333Y-97710952D01*
X149735714Y-97615714D01*
X149735714Y-97472857D01*
X149783333Y-97377619D01*
X149878571Y-97330000D01*
X150402380Y-97330000D01*
X149878571Y-97330000D02*
X149783333Y-97282380D01*
X149735714Y-97187142D01*
X149735714Y-97044285D01*
X149783333Y-96949047D01*
X149878571Y-96901428D01*
X150402380Y-96901428D01*
X150402380Y-96425238D02*
X149735714Y-96425238D01*
X149402380Y-96425238D02*
X149450000Y-96472857D01*
X149497619Y-96425238D01*
X149450000Y-96377619D01*
X149402380Y-96425238D01*
X149497619Y-96425238D01*
X150354761Y-95520476D02*
X150402380Y-95615714D01*
X150402380Y-95806190D01*
X150354761Y-95901428D01*
X150307142Y-95949047D01*
X150211904Y-95996666D01*
X149926190Y-95996666D01*
X149830952Y-95949047D01*
X149783333Y-95901428D01*
X149735714Y-95806190D01*
X149735714Y-95615714D01*
X149783333Y-95520476D01*
X150402380Y-95091904D02*
X149735714Y-95091904D01*
X149926190Y-95091904D02*
X149830952Y-95044285D01*
X149783333Y-94996666D01*
X149735714Y-94901428D01*
X149735714Y-94806190D01*
X150402380Y-94330000D02*
X150354761Y-94425238D01*
X150307142Y-94472857D01*
X150211904Y-94520476D01*
X149926190Y-94520476D01*
X149830952Y-94472857D01*
X149783333Y-94425238D01*
X149735714Y-94330000D01*
X149735714Y-94187142D01*
X149783333Y-94091904D01*
X149830952Y-94044285D01*
X149926190Y-93996666D01*
X150211904Y-93996666D01*
X150307142Y-94044285D01*
X150354761Y-94091904D01*
X150402380Y-94187142D01*
X150402380Y-94330000D01*
X150354761Y-93615714D02*
X150402380Y-93472857D01*
X150402380Y-93234761D01*
X150354761Y-93139523D01*
X150307142Y-93091904D01*
X150211904Y-93044285D01*
X150116666Y-93044285D01*
X150021428Y-93091904D01*
X149973809Y-93139523D01*
X149926190Y-93234761D01*
X149878571Y-93425238D01*
X149830952Y-93520476D01*
X149783333Y-93568095D01*
X149688095Y-93615714D01*
X149592857Y-93615714D01*
X149497619Y-93568095D01*
X149450000Y-93520476D01*
X149402380Y-93425238D01*
X149402380Y-93187142D01*
X149450000Y-93044285D01*
X150402380Y-92615714D02*
X149402380Y-92615714D01*
X149402380Y-92377619D01*
X149450000Y-92234761D01*
X149545238Y-92139523D01*
X149640476Y-92091904D01*
X149830952Y-92044285D01*
X149973809Y-92044285D01*
X150164285Y-92091904D01*
X150259523Y-92139523D01*
X150354761Y-92234761D01*
X150402380Y-92377619D01*
X150402380Y-92615714D01*
X150307142Y-90282380D02*
X150354761Y-90330000D01*
X150402380Y-90472857D01*
X150402380Y-90568095D01*
X150354761Y-90710952D01*
X150259523Y-90806190D01*
X150164285Y-90853809D01*
X149973809Y-90901428D01*
X149830952Y-90901428D01*
X149640476Y-90853809D01*
X149545238Y-90806190D01*
X149450000Y-90710952D01*
X149402380Y-90568095D01*
X149402380Y-90472857D01*
X149450000Y-90330000D01*
X149497619Y-90282380D01*
X150402380Y-89425238D02*
X149878571Y-89425238D01*
X149783333Y-89472857D01*
X149735714Y-89568095D01*
X149735714Y-89758571D01*
X149783333Y-89853809D01*
X150354761Y-89425238D02*
X150402380Y-89520476D01*
X150402380Y-89758571D01*
X150354761Y-89853809D01*
X150259523Y-89901428D01*
X150164285Y-89901428D01*
X150069047Y-89853809D01*
X150021428Y-89758571D01*
X150021428Y-89520476D01*
X149973809Y-89425238D01*
X150402380Y-88949047D02*
X149735714Y-88949047D01*
X149926190Y-88949047D02*
X149830952Y-88901428D01*
X149783333Y-88853809D01*
X149735714Y-88758571D01*
X149735714Y-88663333D01*
X150402380Y-87901428D02*
X149402380Y-87901428D01*
X150354761Y-87901428D02*
X150402380Y-87996666D01*
X150402380Y-88187142D01*
X150354761Y-88282380D01*
X150307142Y-88330000D01*
X150211904Y-88377619D01*
X149926190Y-88377619D01*
X149830952Y-88330000D01*
X149783333Y-88282380D01*
X149735714Y-88187142D01*
X149735714Y-87996666D01*
X149783333Y-87901428D01*
X123919142Y-105812428D02*
X124790000Y-105812428D01*
X124354571Y-107336428D02*
X124354571Y-105812428D01*
X125588285Y-106610714D02*
X125588285Y-107336428D01*
X125080285Y-105812428D02*
X125588285Y-106610714D01*
X126096285Y-105812428D01*
X126604285Y-107336428D02*
X126604285Y-105812428D01*
X127112285Y-106901000D01*
X127620285Y-105812428D01*
X127620285Y-107336428D01*
X128346000Y-107336428D02*
X128346000Y-105812428D01*
X128926571Y-105812428D01*
X129071714Y-105885000D01*
X129144285Y-105957571D01*
X129216857Y-106102714D01*
X129216857Y-106320428D01*
X129144285Y-106465571D01*
X129071714Y-106538142D01*
X128926571Y-106610714D01*
X128346000Y-106610714D01*
X129797428Y-106901000D02*
X130523142Y-106901000D01*
X129652285Y-107336428D02*
X130160285Y-105812428D01*
X130668285Y-107336428D01*
X131176285Y-107336428D02*
X131176285Y-105812428D01*
X132047142Y-107336428D01*
X132047142Y-105812428D01*
X128128285Y-109822428D02*
X127620285Y-109096714D01*
X127257428Y-109822428D02*
X127257428Y-108298428D01*
X127838000Y-108298428D01*
X127983142Y-108371000D01*
X128055714Y-108443571D01*
X128128285Y-108588714D01*
X128128285Y-108806428D01*
X128055714Y-108951571D01*
X127983142Y-109024142D01*
X127838000Y-109096714D01*
X127257428Y-109096714D01*
X129362000Y-109749857D02*
X129216857Y-109822428D01*
X128926571Y-109822428D01*
X128781428Y-109749857D01*
X128708857Y-109604714D01*
X128708857Y-109024142D01*
X128781428Y-108879000D01*
X128926571Y-108806428D01*
X129216857Y-108806428D01*
X129362000Y-108879000D01*
X129434571Y-109024142D01*
X129434571Y-109169285D01*
X128708857Y-109314428D01*
X129942571Y-108806428D02*
X130305428Y-109822428D01*
X130668285Y-108806428D01*
X131248857Y-109822428D02*
X131248857Y-108298428D01*
X131611714Y-108298428D01*
X131829428Y-108371000D01*
X131974571Y-108516142D01*
X132047142Y-108661285D01*
X132119714Y-108951571D01*
X132119714Y-109169285D01*
X132047142Y-109459571D01*
X131974571Y-109604714D01*
X131829428Y-109749857D01*
X131611714Y-109822428D01*
X131248857Y-109822428D01*
D14*
X128434714Y-56419571D02*
X127672714Y-56419571D01*
X128434714Y-56056714D02*
X127672714Y-56056714D01*
X128434714Y-55621285D01*
X127672714Y-55621285D01*
X128434714Y-55258428D02*
X127672714Y-55258428D01*
X127672714Y-54968142D01*
X127709000Y-54895571D01*
X127745285Y-54859285D01*
X127817857Y-54823000D01*
X127926714Y-54823000D01*
X127999285Y-54859285D01*
X128035571Y-54895571D01*
X128071857Y-54968142D01*
X128071857Y-55258428D01*
X127672714Y-54496428D02*
X128289571Y-54496428D01*
X128362142Y-54460142D01*
X128398428Y-54423857D01*
X128434714Y-54351285D01*
X128434714Y-54206142D01*
X128398428Y-54133571D01*
X128362142Y-54097285D01*
X128289571Y-54061000D01*
X127672714Y-54061000D01*
X127672714Y-53807000D02*
X127672714Y-53371571D01*
X128434714Y-53589285D02*
X127672714Y-53589285D01*
X139552714Y-56182428D02*
X139552714Y-56037285D01*
X139589000Y-55964714D01*
X139661571Y-55892142D01*
X139806714Y-55855857D01*
X140060714Y-55855857D01*
X140205857Y-55892142D01*
X140278428Y-55964714D01*
X140314714Y-56037285D01*
X140314714Y-56182428D01*
X140278428Y-56255000D01*
X140205857Y-56327571D01*
X140060714Y-56363857D01*
X139806714Y-56363857D01*
X139661571Y-56327571D01*
X139589000Y-56255000D01*
X139552714Y-56182428D01*
X139552714Y-55529285D02*
X140169571Y-55529285D01*
X140242142Y-55493000D01*
X140278428Y-55456714D01*
X140314714Y-55384142D01*
X140314714Y-55239000D01*
X140278428Y-55166428D01*
X140242142Y-55130142D01*
X140169571Y-55093857D01*
X139552714Y-55093857D01*
X139552714Y-54839857D02*
X139552714Y-54404428D01*
X140314714Y-54622142D02*
X139552714Y-54622142D01*
X140314714Y-54150428D02*
X139552714Y-54150428D01*
X139552714Y-53860142D01*
X139589000Y-53787571D01*
X139625285Y-53751285D01*
X139697857Y-53715000D01*
X139806714Y-53715000D01*
X139879285Y-53751285D01*
X139915571Y-53787571D01*
X139951857Y-53860142D01*
X139951857Y-54150428D01*
X139552714Y-53388428D02*
X140169571Y-53388428D01*
X140242142Y-53352142D01*
X140278428Y-53315857D01*
X140314714Y-53243285D01*
X140314714Y-53098142D01*
X140278428Y-53025571D01*
X140242142Y-52989285D01*
X140169571Y-52953000D01*
X139552714Y-52953000D01*
X139552714Y-52699000D02*
X139552714Y-52263571D01*
X140314714Y-52481285D02*
X139552714Y-52481285D01*
X116834000Y-63324714D02*
X116580000Y-62961857D01*
X116398571Y-63324714D02*
X116398571Y-62562714D01*
X116688857Y-62562714D01*
X116761428Y-62599000D01*
X116797714Y-62635285D01*
X116834000Y-62707857D01*
X116834000Y-62816714D01*
X116797714Y-62889285D01*
X116761428Y-62925571D01*
X116688857Y-62961857D01*
X116398571Y-62961857D01*
X117160571Y-63324714D02*
X117160571Y-62562714D01*
X117922571Y-62599000D02*
X117850000Y-62562714D01*
X117741142Y-62562714D01*
X117632285Y-62599000D01*
X117559714Y-62671571D01*
X117523428Y-62744142D01*
X117487142Y-62889285D01*
X117487142Y-62998142D01*
X117523428Y-63143285D01*
X117559714Y-63215857D01*
X117632285Y-63288428D01*
X117741142Y-63324714D01*
X117813714Y-63324714D01*
X117922571Y-63288428D01*
X117958857Y-63252142D01*
X117958857Y-62998142D01*
X117813714Y-62998142D01*
X118285428Y-63324714D02*
X118285428Y-62562714D01*
X118285428Y-62925571D02*
X118720857Y-62925571D01*
X118720857Y-63324714D02*
X118720857Y-62562714D01*
X118974857Y-62562714D02*
X119410285Y-62562714D01*
X119192571Y-63324714D02*
X119192571Y-62562714D01*
X143144285Y-62164714D02*
X142781428Y-62164714D01*
X142781428Y-61402714D01*
X143398285Y-61765571D02*
X143652285Y-61765571D01*
X143761142Y-62164714D02*
X143398285Y-62164714D01*
X143398285Y-61402714D01*
X143761142Y-61402714D01*
X144341714Y-61765571D02*
X144087714Y-61765571D01*
X144087714Y-62164714D02*
X144087714Y-61402714D01*
X144450571Y-61402714D01*
X144632000Y-61402714D02*
X145067428Y-61402714D01*
X144849714Y-62164714D02*
X144849714Y-61402714D01*
D15*
X147750000Y-46380000D02*
X140750000Y-46380000D01*
X147750000Y-49880000D02*
X147750000Y-60880000D01*
X147750000Y-60880000D02*
X140750000Y-60880000D01*
X140750000Y-60880000D02*
X140750000Y-49880000D01*
X147750000Y-49880000D02*
X147750000Y-43880000D01*
X147750000Y-43880000D02*
X140750000Y-43880000D01*
X140750000Y-43880000D02*
X140750000Y-49880000D01*
D16*
X119984420Y-114532180D02*
X119484420Y-114532180D01*
X119484420Y-115592180D02*
X119984420Y-115592180D01*
D17*
X122128420Y-115849480D02*
X122128420Y-114249480D01*
X122128420Y-114249480D02*
X122928420Y-114249480D01*
X122928420Y-114249480D02*
X122928420Y-115849480D01*
X122928420Y-115849480D02*
X122128420Y-115849480D01*
D16*
X119300000Y-108975000D02*
X118800000Y-108975000D01*
X118800000Y-110035000D02*
X119300000Y-110035000D01*
D15*
X115770000Y-101820000D02*
X113770000Y-101820000D01*
X113770000Y-101820000D02*
X113770000Y-100320000D01*
X113770000Y-100320000D02*
X115770000Y-100320000D01*
X119270000Y-97820000D02*
X119270000Y-106320000D01*
X119270000Y-106320000D02*
X115770000Y-106320000D01*
X115770000Y-106320000D02*
X115770000Y-97820000D01*
X115770000Y-97820000D02*
X119270000Y-97820000D01*
D16*
X133000000Y-63480000D02*
X133000000Y-63980000D01*
X133940000Y-63980000D02*
X133940000Y-63480000D01*
X133660000Y-57720000D02*
X134360000Y-57720000D01*
X134360000Y-58920000D02*
X133660000Y-58920000D01*
X137800000Y-118190000D02*
X137800000Y-117690000D01*
X136740000Y-117690000D02*
X136740000Y-118190000D01*
X136430000Y-79780000D02*
X136430000Y-79280000D01*
X135370000Y-79280000D02*
X135370000Y-79780000D01*
D15*
X152550000Y-107880000D02*
X148800000Y-107880000D01*
X148800000Y-107880000D02*
X148800000Y-115880000D01*
X152550000Y-104080000D02*
X152550000Y-115880000D01*
X152550000Y-115880000D02*
X134550000Y-115880000D01*
X134550000Y-115880000D02*
X134550000Y-104080000D01*
X134550000Y-104080000D02*
X152550000Y-104080000D01*
D16*
X128650000Y-86410000D02*
X126650000Y-86410000D01*
X126650000Y-88450000D02*
X128650000Y-88450000D01*
X136400000Y-88500000D02*
X138400000Y-88500000D01*
X138400000Y-86460000D02*
X136400000Y-86460000D01*
X133670000Y-56080000D02*
X134370000Y-56080000D01*
X134370000Y-57280000D02*
X133670000Y-57280000D01*
X134380000Y-60500000D02*
X133680000Y-60500000D01*
X133680000Y-59300000D02*
X134380000Y-59300000D01*
X138050000Y-64240000D02*
X138050000Y-63540000D01*
X139250000Y-63540000D02*
X139250000Y-64240000D01*
X131200000Y-63540000D02*
X131200000Y-64240000D01*
X130000000Y-64240000D02*
X130000000Y-63540000D01*
X134390000Y-55730000D02*
X133690000Y-55730000D01*
X133690000Y-54530000D02*
X134390000Y-54530000D01*
D13*
X130569600Y-72422000D02*
X131069600Y-72422000D01*
X135819600Y-77672000D02*
X135319600Y-77672000D01*
X135819600Y-72422000D02*
X135319600Y-72422000D01*
X130569600Y-77672000D02*
X130569600Y-77172000D01*
X135819600Y-77672000D02*
X135819600Y-77172000D01*
X135819600Y-72422000D02*
X135819600Y-72922000D01*
X130569600Y-72422000D02*
X130569600Y-72922000D01*
D15*
X126950000Y-46380000D02*
X119950000Y-46380000D01*
X126950000Y-49880000D02*
X126950000Y-60880000D01*
X126950000Y-60880000D02*
X119950000Y-60880000D01*
X119950000Y-60880000D02*
X119950000Y-49880000D01*
X126950000Y-49880000D02*
X126950000Y-43880000D01*
X126950000Y-43880000D02*
X119950000Y-43880000D01*
X119950000Y-43880000D02*
X119950000Y-49880000D01*
D16*
X135670000Y-91080000D02*
X135670000Y-90580000D01*
X134730000Y-90580000D02*
X134730000Y-91080000D01*
X129587900Y-76719400D02*
X129587900Y-76219400D01*
X128647900Y-76219400D02*
X128647900Y-76719400D01*
X128530000Y-68780000D02*
X128530000Y-68280000D01*
X127590000Y-68280000D02*
X127590000Y-68780000D01*
X137540000Y-80040000D02*
X137540000Y-80540000D01*
X138480000Y-80540000D02*
X138480000Y-80040000D01*
X138860000Y-79960000D02*
X138860000Y-80460000D01*
X139800000Y-80460000D02*
X139800000Y-79960000D01*
X128296400Y-79619100D02*
X128796400Y-79619100D01*
X128796400Y-78679100D02*
X128296400Y-78679100D01*
X128296400Y-78641200D02*
X128796400Y-78641200D01*
X128796400Y-77701200D02*
X128296400Y-77701200D01*
X128470300Y-76719400D02*
X128470300Y-76219400D01*
X127530300Y-76219400D02*
X127530300Y-76719400D01*
X128200000Y-73150000D02*
X128700000Y-73150000D01*
X128700000Y-72210000D02*
X128200000Y-72210000D01*
X129100000Y-68350000D02*
X129100000Y-68850000D01*
X130040000Y-68850000D02*
X130040000Y-68350000D01*
X134960000Y-67580000D02*
X134960000Y-68080000D01*
X135900000Y-68080000D02*
X135900000Y-67580000D01*
X134350000Y-63410000D02*
X134350000Y-63910000D01*
X135290000Y-63910000D02*
X135290000Y-63410000D01*
X125100000Y-114550000D02*
X125600000Y-114550000D01*
X125600000Y-113610000D02*
X125100000Y-113610000D01*
X150100000Y-67260000D02*
X149600000Y-67260000D01*
X149600000Y-68200000D02*
X150100000Y-68200000D01*
X150100000Y-66260000D02*
X149600000Y-66260000D01*
X149600000Y-67200000D02*
X150100000Y-67200000D01*
X118100000Y-67260000D02*
X117600000Y-67260000D01*
X117600000Y-68200000D02*
X118100000Y-68200000D01*
X117600000Y-67200000D02*
X118100000Y-67200000D01*
X118100000Y-66260000D02*
X117600000Y-66260000D01*
X121103380Y-74840200D02*
X121103380Y-75340200D01*
X122043380Y-75340200D02*
X122043380Y-74840200D01*
X122066240Y-78802220D02*
X122066240Y-78302220D01*
X121126240Y-78302220D02*
X121126240Y-78802220D01*
X122033220Y-81009480D02*
X122033220Y-80509480D01*
X121093220Y-80509480D02*
X121093220Y-81009480D01*
X122109420Y-84057480D02*
X122109420Y-83557480D01*
X121169420Y-83557480D02*
X121169420Y-84057480D01*
X131180000Y-87930000D02*
X131180000Y-87430000D01*
X130120000Y-87430000D02*
X130120000Y-87930000D01*
X138000000Y-71450000D02*
X137500000Y-71450000D01*
X137500000Y-72510000D02*
X138000000Y-72510000D01*
X134980000Y-87930000D02*
X134980000Y-87430000D01*
X133920000Y-87430000D02*
X133920000Y-87930000D01*
X133220000Y-93530000D02*
X133220000Y-93030000D01*
X132280000Y-93030000D02*
X132280000Y-93530000D01*
X135200000Y-93910000D02*
X134700000Y-93910000D01*
X134700000Y-94850000D02*
X135200000Y-94850000D01*
X131370000Y-93530000D02*
X131370000Y-93030000D01*
X130430000Y-93030000D02*
X130430000Y-93530000D01*
X132270000Y-93530000D02*
X132270000Y-93030000D01*
X131330000Y-93030000D02*
X131330000Y-93530000D01*
X130655000Y-90955000D02*
X130655000Y-91455000D01*
X131595000Y-91455000D02*
X131595000Y-90955000D01*
X131655000Y-90955000D02*
X131655000Y-91455000D01*
X132595000Y-91455000D02*
X132595000Y-90955000D01*
D17*
X123800000Y-116180000D02*
X123800000Y-120530000D01*
X123800000Y-120530000D02*
X132400000Y-120530000D01*
X132400000Y-120530000D02*
X132400000Y-116180000D01*
D16*
X134450000Y-93010000D02*
X134950000Y-93010000D01*
X134950000Y-91950000D02*
X134450000Y-91950000D01*
X126870000Y-113530000D02*
X126870000Y-114030000D01*
X127930000Y-114030000D02*
X127930000Y-113530000D01*
X127870000Y-113530000D02*
X127870000Y-114030000D01*
X128930000Y-114030000D02*
X128930000Y-113530000D01*
X121480000Y-87720000D02*
X118820000Y-87720000D01*
X121480000Y-92860000D02*
X121480000Y-87720000D01*
X118820000Y-92860000D02*
X118820000Y-87720000D01*
X121480000Y-92860000D02*
X118820000Y-92860000D01*
X121480000Y-94130000D02*
X121480000Y-95460000D01*
X121480000Y-95460000D02*
X120150000Y-95460000D01*
X140970000Y-93880000D02*
X140970000Y-93380000D01*
X140030000Y-93380000D02*
X140030000Y-93880000D01*
X141645000Y-102255000D02*
X141645000Y-101755000D01*
X140705000Y-101755000D02*
X140705000Y-102255000D01*
X140520000Y-102230000D02*
X140520000Y-101730000D01*
X139580000Y-101730000D02*
X139580000Y-102230000D01*
D17*
X133950000Y-116680000D02*
G75*
G03X133950000Y-116680000I-200000J0D01*
G01*
X133750000Y-118880000D02*
X133750000Y-116880000D01*
X133950000Y-116680000D02*
X135950000Y-116680000D01*
X136150000Y-116880000D02*
X136150000Y-118880000D01*
X135950000Y-119080000D02*
X133950000Y-119080000D01*
D16*
X149720000Y-85810000D02*
X152380000Y-85810000D01*
X149720000Y-73050000D02*
X149720000Y-85810000D01*
X152380000Y-73050000D02*
X152380000Y-85810000D01*
X149720000Y-73050000D02*
X152380000Y-73050000D01*
X149720000Y-71780000D02*
X149720000Y-70450000D01*
X149720000Y-70450000D02*
X151050000Y-70450000D01*
X117838000Y-85810000D02*
X120498000Y-85810000D01*
X117838000Y-73050000D02*
X117838000Y-85810000D01*
X120498000Y-73050000D02*
X120498000Y-85810000D01*
X117838000Y-73050000D02*
X120498000Y-73050000D01*
X117838000Y-71780000D02*
X117838000Y-70450000D01*
X117838000Y-70450000D02*
X119168000Y-70450000D01*
X142225000Y-103085000D02*
X142725000Y-103085000D01*
X142725000Y-102025000D02*
X142225000Y-102025000D01*
X139000000Y-102000000D02*
X138500000Y-102000000D01*
X138500000Y-103060000D02*
X139000000Y-103060000D01*
X142725000Y-101025000D02*
X142225000Y-101025000D01*
X142225000Y-102085000D02*
X142725000Y-102085000D01*
X138500000Y-102035000D02*
X139000000Y-102035000D01*
X139000000Y-100975000D02*
X138500000Y-100975000D01*
X138860000Y-118250000D02*
X138860000Y-117750000D01*
X137800000Y-117750000D02*
X137800000Y-118250000D01*
X139900000Y-118280000D02*
X139900000Y-117780000D01*
X138840000Y-117780000D02*
X138840000Y-118280000D01*
X135200000Y-92960000D02*
X134700000Y-92960000D01*
X134700000Y-93900000D02*
X135200000Y-93900000D01*
X133380000Y-90580000D02*
X133380000Y-91080000D01*
X134320000Y-91080000D02*
X134320000Y-90580000D01*
X125600000Y-111510000D02*
X125100000Y-111510000D01*
X125100000Y-112450000D02*
X125600000Y-112450000D01*
X125600000Y-110610000D02*
X125100000Y-110610000D01*
X125100000Y-111550000D02*
X125600000Y-111550000D01*
X125600000Y-109710000D02*
X125100000Y-109710000D01*
X125100000Y-110650000D02*
X125600000Y-110650000D01*
X131450000Y-114360000D02*
X130950000Y-114360000D01*
X130950000Y-115300000D02*
X131450000Y-115300000D01*
X124800000Y-112430000D02*
X125500000Y-112430000D01*
X125500000Y-113630000D02*
X124800000Y-113630000D01*
X115298000Y-85810000D02*
X117958000Y-85810000D01*
X115298000Y-73050000D02*
X115298000Y-85810000D01*
X117958000Y-73050000D02*
X117958000Y-85810000D01*
X115298000Y-73050000D02*
X117958000Y-73050000D01*
X115298000Y-71780000D02*
X115298000Y-70450000D01*
X115298000Y-70450000D02*
X116628000Y-70450000D01*
X141772960Y-66521020D02*
X139872960Y-66521020D01*
X140372960Y-68841020D02*
X141772960Y-68841020D01*
X147020000Y-85803000D02*
X149680000Y-85803000D01*
X147020000Y-73043000D02*
X147020000Y-85803000D01*
X149680000Y-73043000D02*
X149680000Y-85803000D01*
X147020000Y-73043000D02*
X149680000Y-73043000D01*
X147020000Y-71773000D02*
X147020000Y-70443000D01*
X147020000Y-70443000D02*
X148350000Y-70443000D01*
D17*
X141250000Y-87280000D02*
X146750000Y-87280000D01*
X146750000Y-87280000D02*
X146750000Y-98680000D01*
X146750000Y-98680000D02*
X141250000Y-98680000D01*
X141250000Y-98680000D02*
X141250000Y-87280000D01*
D16*
X115590000Y-106620000D02*
X115590000Y-108740000D01*
X119650000Y-106620000D02*
X115590000Y-106620000D01*
X119650000Y-108740000D02*
X115590000Y-108740000D01*
X119650000Y-106620000D02*
X119650000Y-108740000D01*
X120650000Y-106620000D02*
X121710000Y-106620000D01*
X121710000Y-106620000D02*
X121710000Y-107680000D01*
X122237780Y-113224900D02*
X122737780Y-113224900D01*
X122737780Y-112164900D02*
X122237780Y-112164900D01*
X121172500Y-112867500D02*
X121172500Y-111067500D01*
X117952500Y-111067500D02*
X117952500Y-113517500D01*
D18*
G36*
X132276558Y-96461944D02*
G01*
X133147512Y-96684304D01*
X133652000Y-96892505D01*
X134131583Y-97192338D01*
X134608578Y-97611495D01*
X135039460Y-98104988D01*
X135380704Y-98627831D01*
X135437158Y-98737667D01*
X135555456Y-98986137D01*
X135636009Y-99187691D01*
X135685965Y-99384588D01*
X135712473Y-99619086D01*
X135722681Y-99933445D01*
X135723737Y-100369923D01*
X135723591Y-100431000D01*
X135719025Y-100904874D01*
X135704063Y-101253818D01*
X135672694Y-101522177D01*
X135618905Y-101754298D01*
X135536685Y-101994527D01*
X135498216Y-102093433D01*
X135053204Y-102993055D01*
X134459905Y-103816653D01*
X133942182Y-104362836D01*
X133323525Y-104907549D01*
X132722542Y-105336367D01*
X132083243Y-105682669D01*
X131349638Y-105979835D01*
X131069667Y-106075318D01*
X130627125Y-106180231D01*
X130077581Y-106250809D01*
X129480337Y-106284598D01*
X128894695Y-106279142D01*
X128379959Y-106231985D01*
X128180377Y-106194942D01*
X127402461Y-105937179D01*
X126688331Y-105543282D01*
X126065487Y-105032727D01*
X125561430Y-104424991D01*
X125463655Y-104270956D01*
X125147043Y-103583260D01*
X124976091Y-102835466D01*
X124955274Y-102253754D01*
X125185333Y-102253754D01*
X125264455Y-103046794D01*
X125495502Y-103775654D01*
X125868991Y-104427363D01*
X126375443Y-104988948D01*
X127005376Y-105447440D01*
X127749311Y-105789867D01*
X127776859Y-105799440D01*
X128201679Y-105928576D01*
X128480524Y-105973388D01*
X128614246Y-105933904D01*
X128612151Y-105828500D01*
X128577619Y-105676425D01*
X128542824Y-105407724D01*
X128514286Y-105074965D01*
X128509764Y-105003000D01*
X128506108Y-104876000D01*
X128783898Y-104876000D01*
X128791101Y-105361207D01*
X128828922Y-105699021D01*
X128922167Y-105911282D01*
X129095641Y-106019828D01*
X129374149Y-106046500D01*
X129782496Y-106013138D01*
X130039239Y-105981269D01*
X130334759Y-105937970D01*
X130557887Y-105895535D01*
X130661175Y-105863016D01*
X130661698Y-105862524D01*
X130668048Y-105751483D01*
X130611750Y-105532048D01*
X130508681Y-105245850D01*
X130374715Y-104934521D01*
X130225730Y-104639692D01*
X130140186Y-104495000D01*
X129927243Y-104200994D01*
X129682330Y-103924121D01*
X129439821Y-103697503D01*
X129234092Y-103554260D01*
X129129659Y-103521333D01*
X128995905Y-103602395D01*
X128891350Y-103834906D01*
X128820081Y-104202856D01*
X128786185Y-104690231D01*
X128783898Y-104876000D01*
X128506108Y-104876000D01*
X128498006Y-104594638D01*
X128524466Y-104283317D01*
X128597215Y-103999447D01*
X128639880Y-103881142D01*
X128719934Y-103631479D01*
X128749555Y-103450204D01*
X128733208Y-103389312D01*
X128694505Y-103324969D01*
X129335629Y-103324969D01*
X129664112Y-103588945D01*
X129982194Y-103905324D01*
X130302752Y-104326799D01*
X130586684Y-104794316D01*
X130794886Y-105248821D01*
X130828694Y-105347669D01*
X130921832Y-105596822D01*
X131012051Y-105763325D01*
X131063962Y-105806299D01*
X131179359Y-105773762D01*
X131406061Y-105688213D01*
X131700980Y-105566191D01*
X131791723Y-105526952D01*
X132612486Y-105110895D01*
X133328818Y-104615058D01*
X133990995Y-104002444D01*
X134251682Y-103716737D01*
X134681032Y-103161316D01*
X135027576Y-102581442D01*
X135284433Y-102000689D01*
X135444722Y-101442635D01*
X135501561Y-100930854D01*
X135448070Y-100488922D01*
X135290511Y-100157553D01*
X135066567Y-99897014D01*
X134830172Y-99726100D01*
X134535113Y-99624140D01*
X134135176Y-99570461D01*
X133951799Y-99558720D01*
X133566628Y-99526449D01*
X133348966Y-99484186D01*
X133298746Y-99439911D01*
X133415903Y-99401608D01*
X133700371Y-99377258D01*
X133953330Y-99372667D01*
X134293687Y-99359855D01*
X134508841Y-99325144D01*
X134586557Y-99274118D01*
X134514604Y-99212361D01*
X134392833Y-99172031D01*
X133948232Y-99121717D01*
X133471914Y-99179540D01*
X133226867Y-99256265D01*
X133013753Y-99333031D01*
X132879035Y-99365494D01*
X132858857Y-99362098D01*
X132595426Y-98900949D01*
X132480287Y-98424903D01*
X132513401Y-97961163D01*
X132694729Y-97536929D01*
X132861839Y-97325873D01*
X133002505Y-97172327D01*
X133030887Y-97104292D01*
X132953988Y-97087096D01*
X132910149Y-97086667D01*
X132695574Y-97165365D01*
X132498386Y-97377705D01*
X132340444Y-97688056D01*
X132243603Y-98060783D01*
X132228266Y-98198306D01*
X132216802Y-98481382D01*
X132244167Y-98694479D01*
X132329039Y-98905853D01*
X132490098Y-99183762D01*
X132504194Y-99206638D01*
X132709207Y-99574760D01*
X132794128Y-99848926D01*
X132752126Y-100061057D01*
X132576370Y-100243078D01*
X132260030Y-100426910D01*
X132241054Y-100436397D01*
X131542237Y-100852961D01*
X130865511Y-101384079D01*
X130253598Y-101990181D01*
X129749220Y-102631700D01*
X129580838Y-102900250D01*
X129335629Y-103324969D01*
X128694505Y-103324969D01*
X128654436Y-103258358D01*
X128725658Y-103060624D01*
X128943834Y-102801821D01*
X129141837Y-102621451D01*
X129636813Y-102174288D01*
X130111994Y-101695970D01*
X130550559Y-101207952D01*
X130935685Y-100731689D01*
X131250552Y-100288635D01*
X131384339Y-100060518D01*
X131789768Y-100060518D01*
X131845778Y-100162889D01*
X131961619Y-100217820D01*
X132029873Y-100118112D01*
X132043333Y-99975700D01*
X132085092Y-99760834D01*
X132170333Y-99626667D01*
X132282414Y-99490373D01*
X132272622Y-99394037D01*
X132198167Y-99372667D01*
X132022806Y-99445367D01*
X131878621Y-99623856D01*
X131792109Y-99848713D01*
X131789768Y-100060518D01*
X131384339Y-100060518D01*
X131478337Y-99900246D01*
X131602221Y-99587976D01*
X131620000Y-99460706D01*
X131547716Y-99264132D01*
X131350832Y-99025394D01*
X131059296Y-98771527D01*
X130703058Y-98529562D01*
X130416968Y-98374823D01*
X130092171Y-98235023D01*
X129668269Y-98075953D01*
X129210005Y-97921093D01*
X128927806Y-97834807D01*
X127998523Y-97564817D01*
X127432825Y-98014956D01*
X126748807Y-98647811D01*
X126172277Y-99362927D01*
X125716083Y-100136073D01*
X125393073Y-100943020D01*
X125216094Y-101759535D01*
X125185333Y-102253754D01*
X124955274Y-102253754D01*
X124947939Y-102048820D01*
X125059729Y-101244563D01*
X125308602Y-100443938D01*
X125691698Y-99668189D01*
X126176431Y-98974757D01*
X126552825Y-98547983D01*
X126995809Y-98099705D01*
X127440676Y-97693729D01*
X127650853Y-97520847D01*
X127896782Y-97360250D01*
X128250644Y-97168580D01*
X128660524Y-96970648D01*
X129074510Y-96791264D01*
X129440687Y-96655240D01*
X129503333Y-96635507D01*
X130421786Y-96435521D01*
X131357088Y-96378341D01*
X132276558Y-96461944D01*
G37*
X132276558Y-96461944D02*
X133147512Y-96684304D01*
X133652000Y-96892505D01*
X134131583Y-97192338D01*
X134608578Y-97611495D01*
X135039460Y-98104988D01*
X135380704Y-98627831D01*
X135437158Y-98737667D01*
X135555456Y-98986137D01*
X135636009Y-99187691D01*
X135685965Y-99384588D01*
X135712473Y-99619086D01*
X135722681Y-99933445D01*
X135723737Y-100369923D01*
X135723591Y-100431000D01*
X135719025Y-100904874D01*
X135704063Y-101253818D01*
X135672694Y-101522177D01*
X135618905Y-101754298D01*
X135536685Y-101994527D01*
X135498216Y-102093433D01*
X135053204Y-102993055D01*
X134459905Y-103816653D01*
X133942182Y-104362836D01*
X133323525Y-104907549D01*
X132722542Y-105336367D01*
X132083243Y-105682669D01*
X131349638Y-105979835D01*
X131069667Y-106075318D01*
X130627125Y-106180231D01*
X130077581Y-106250809D01*
X129480337Y-106284598D01*
X128894695Y-106279142D01*
X128379959Y-106231985D01*
X128180377Y-106194942D01*
X127402461Y-105937179D01*
X126688331Y-105543282D01*
X126065487Y-105032727D01*
X125561430Y-104424991D01*
X125463655Y-104270956D01*
X125147043Y-103583260D01*
X124976091Y-102835466D01*
X124955274Y-102253754D01*
X125185333Y-102253754D01*
X125264455Y-103046794D01*
X125495502Y-103775654D01*
X125868991Y-104427363D01*
X126375443Y-104988948D01*
X127005376Y-105447440D01*
X127749311Y-105789867D01*
X127776859Y-105799440D01*
X128201679Y-105928576D01*
X128480524Y-105973388D01*
X128614246Y-105933904D01*
X128612151Y-105828500D01*
X128577619Y-105676425D01*
X128542824Y-105407724D01*
X128514286Y-105074965D01*
X128509764Y-105003000D01*
X128506108Y-104876000D01*
X128783898Y-104876000D01*
X128791101Y-105361207D01*
X128828922Y-105699021D01*
X128922167Y-105911282D01*
X129095641Y-106019828D01*
X129374149Y-106046500D01*
X129782496Y-106013138D01*
X130039239Y-105981269D01*
X130334759Y-105937970D01*
X130557887Y-105895535D01*
X130661175Y-105863016D01*
X130661698Y-105862524D01*
X130668048Y-105751483D01*
X130611750Y-105532048D01*
X130508681Y-105245850D01*
X130374715Y-104934521D01*
X130225730Y-104639692D01*
X130140186Y-104495000D01*
X129927243Y-104200994D01*
X129682330Y-103924121D01*
X129439821Y-103697503D01*
X129234092Y-103554260D01*
X129129659Y-103521333D01*
X128995905Y-103602395D01*
X128891350Y-103834906D01*
X128820081Y-104202856D01*
X128786185Y-104690231D01*
X128783898Y-104876000D01*
X128506108Y-104876000D01*
X128498006Y-104594638D01*
X128524466Y-104283317D01*
X128597215Y-103999447D01*
X128639880Y-103881142D01*
X128719934Y-103631479D01*
X128749555Y-103450204D01*
X128733208Y-103389312D01*
X128694505Y-103324969D01*
X129335629Y-103324969D01*
X129664112Y-103588945D01*
X129982194Y-103905324D01*
X130302752Y-104326799D01*
X130586684Y-104794316D01*
X130794886Y-105248821D01*
X130828694Y-105347669D01*
X130921832Y-105596822D01*
X131012051Y-105763325D01*
X131063962Y-105806299D01*
X131179359Y-105773762D01*
X131406061Y-105688213D01*
X131700980Y-105566191D01*
X131791723Y-105526952D01*
X132612486Y-105110895D01*
X133328818Y-104615058D01*
X133990995Y-104002444D01*
X134251682Y-103716737D01*
X134681032Y-103161316D01*
X135027576Y-102581442D01*
X135284433Y-102000689D01*
X135444722Y-101442635D01*
X135501561Y-100930854D01*
X135448070Y-100488922D01*
X135290511Y-100157553D01*
X135066567Y-99897014D01*
X134830172Y-99726100D01*
X134535113Y-99624140D01*
X134135176Y-99570461D01*
X133951799Y-99558720D01*
X133566628Y-99526449D01*
X133348966Y-99484186D01*
X133298746Y-99439911D01*
X133415903Y-99401608D01*
X133700371Y-99377258D01*
X133953330Y-99372667D01*
X134293687Y-99359855D01*
X134508841Y-99325144D01*
X134586557Y-99274118D01*
X134514604Y-99212361D01*
X134392833Y-99172031D01*
X133948232Y-99121717D01*
X133471914Y-99179540D01*
X133226867Y-99256265D01*
X133013753Y-99333031D01*
X132879035Y-99365494D01*
X132858857Y-99362098D01*
X132595426Y-98900949D01*
X132480287Y-98424903D01*
X132513401Y-97961163D01*
X132694729Y-97536929D01*
X132861839Y-97325873D01*
X133002505Y-97172327D01*
X133030887Y-97104292D01*
X132953988Y-97087096D01*
X132910149Y-97086667D01*
X132695574Y-97165365D01*
X132498386Y-97377705D01*
X132340444Y-97688056D01*
X132243603Y-98060783D01*
X132228266Y-98198306D01*
X132216802Y-98481382D01*
X132244167Y-98694479D01*
X132329039Y-98905853D01*
X132490098Y-99183762D01*
X132504194Y-99206638D01*
X132709207Y-99574760D01*
X132794128Y-99848926D01*
X132752126Y-100061057D01*
X132576370Y-100243078D01*
X132260030Y-100426910D01*
X132241054Y-100436397D01*
X131542237Y-100852961D01*
X130865511Y-101384079D01*
X130253598Y-101990181D01*
X129749220Y-102631700D01*
X129580838Y-102900250D01*
X129335629Y-103324969D01*
X128694505Y-103324969D01*
X128654436Y-103258358D01*
X128725658Y-103060624D01*
X128943834Y-102801821D01*
X129141837Y-102621451D01*
X129636813Y-102174288D01*
X130111994Y-101695970D01*
X130550559Y-101207952D01*
X130935685Y-100731689D01*
X131250552Y-100288635D01*
X131384339Y-100060518D01*
X131789768Y-100060518D01*
X131845778Y-100162889D01*
X131961619Y-100217820D01*
X132029873Y-100118112D01*
X132043333Y-99975700D01*
X132085092Y-99760834D01*
X132170333Y-99626667D01*
X132282414Y-99490373D01*
X132272622Y-99394037D01*
X132198167Y-99372667D01*
X132022806Y-99445367D01*
X131878621Y-99623856D01*
X131792109Y-99848713D01*
X131789768Y-100060518D01*
X131384339Y-100060518D01*
X131478337Y-99900246D01*
X131602221Y-99587976D01*
X131620000Y-99460706D01*
X131547716Y-99264132D01*
X131350832Y-99025394D01*
X131059296Y-98771527D01*
X130703058Y-98529562D01*
X130416968Y-98374823D01*
X130092171Y-98235023D01*
X129668269Y-98075953D01*
X129210005Y-97921093D01*
X128927806Y-97834807D01*
X127998523Y-97564817D01*
X127432825Y-98014956D01*
X126748807Y-98647811D01*
X126172277Y-99362927D01*
X125716083Y-100136073D01*
X125393073Y-100943020D01*
X125216094Y-101759535D01*
X125185333Y-102253754D01*
X124955274Y-102253754D01*
X124947939Y-102048820D01*
X125059729Y-101244563D01*
X125308602Y-100443938D01*
X125691698Y-99668189D01*
X126176431Y-98974757D01*
X126552825Y-98547983D01*
X126995809Y-98099705D01*
X127440676Y-97693729D01*
X127650853Y-97520847D01*
X127896782Y-97360250D01*
X128250644Y-97168580D01*
X128660524Y-96970648D01*
X129074510Y-96791264D01*
X129440687Y-96655240D01*
X129503333Y-96635507D01*
X130421786Y-96435521D01*
X131357088Y-96378341D01*
X132276558Y-96461944D01*
D16*
X130620000Y-79280000D02*
X130620000Y-79780000D01*
X131680000Y-79780000D02*
X131680000Y-79280000D01*
X133580000Y-79780000D02*
X133580000Y-79280000D01*
X132520000Y-79280000D02*
X132520000Y-79780000D01*
X134530000Y-79780000D02*
X134530000Y-79280000D01*
X133470000Y-79280000D02*
X133470000Y-79780000D01*
X134420000Y-79280000D02*
X134420000Y-79780000D01*
X135480000Y-79780000D02*
X135480000Y-79280000D01*
X131570000Y-79280000D02*
X131570000Y-79780000D01*
X132630000Y-79780000D02*
X132630000Y-79280000D01*
X140596520Y-75009780D02*
X140096520Y-75009780D01*
X140096520Y-76069780D02*
X140596520Y-76069780D01*
X138170000Y-76980000D02*
X138670000Y-76980000D01*
X138670000Y-75920000D02*
X138170000Y-75920000D01*
X122500000Y-110880000D02*
X123200000Y-110880000D01*
X123200000Y-112080000D02*
X122500000Y-112080000D01*
D10*
X148813333Y-47607261D02*
X148813333Y-48060833D01*
X148783095Y-48151547D01*
X148722619Y-48212023D01*
X148631904Y-48242261D01*
X148571428Y-48242261D01*
X149448333Y-48242261D02*
X149085476Y-48242261D01*
X149266904Y-48242261D02*
X149266904Y-47607261D01*
X149206428Y-47697976D01*
X149145952Y-47758452D01*
X149085476Y-47788690D01*
D12*
X118311428Y-115140476D02*
X118244761Y-115045238D01*
X118197142Y-115140476D02*
X118197142Y-114940476D01*
X118273333Y-114940476D01*
X118292380Y-114950000D01*
X118301904Y-114959523D01*
X118311428Y-114978571D01*
X118311428Y-115007142D01*
X118301904Y-115026190D01*
X118292380Y-115035714D01*
X118273333Y-115045238D01*
X118197142Y-115045238D01*
X118501904Y-115140476D02*
X118387619Y-115140476D01*
X118444761Y-115140476D02*
X118444761Y-114940476D01*
X118425714Y-114969047D01*
X118406666Y-114988095D01*
X118387619Y-114997619D01*
X118692380Y-115140476D02*
X118578095Y-115140476D01*
X118635238Y-115140476D02*
X118635238Y-114940476D01*
X118616190Y-114969047D01*
X118597142Y-114988095D01*
X118578095Y-114997619D01*
X121382380Y-115060476D02*
X121382380Y-114860476D01*
X121430000Y-114860476D01*
X121458571Y-114870000D01*
X121477619Y-114889047D01*
X121487142Y-114908095D01*
X121496666Y-114946190D01*
X121496666Y-114974761D01*
X121487142Y-115012857D01*
X121477619Y-115031904D01*
X121458571Y-115050952D01*
X121430000Y-115060476D01*
X121382380Y-115060476D01*
X121687142Y-115060476D02*
X121572857Y-115060476D01*
X121630000Y-115060476D02*
X121630000Y-114860476D01*
X121610952Y-114889047D01*
X121591904Y-114908095D01*
X121572857Y-114917619D01*
X117766666Y-109680476D02*
X117700000Y-109585238D01*
X117652380Y-109680476D02*
X117652380Y-109480476D01*
X117728571Y-109480476D01*
X117747619Y-109490000D01*
X117757142Y-109499523D01*
X117766666Y-109518571D01*
X117766666Y-109547142D01*
X117757142Y-109566190D01*
X117747619Y-109575714D01*
X117728571Y-109585238D01*
X117652380Y-109585238D01*
X117880952Y-109566190D02*
X117861904Y-109556666D01*
X117852380Y-109547142D01*
X117842857Y-109528095D01*
X117842857Y-109518571D01*
X117852380Y-109499523D01*
X117861904Y-109490000D01*
X117880952Y-109480476D01*
X117919047Y-109480476D01*
X117938095Y-109490000D01*
X117947619Y-109499523D01*
X117957142Y-109518571D01*
X117957142Y-109528095D01*
X117947619Y-109547142D01*
X117938095Y-109556666D01*
X117919047Y-109566190D01*
X117880952Y-109566190D01*
X117861904Y-109575714D01*
X117852380Y-109585238D01*
X117842857Y-109604285D01*
X117842857Y-109642380D01*
X117852380Y-109661428D01*
X117861904Y-109670952D01*
X117880952Y-109680476D01*
X117919047Y-109680476D01*
X117938095Y-109670952D01*
X117947619Y-109661428D01*
X117957142Y-109642380D01*
X117957142Y-109604285D01*
X117947619Y-109585238D01*
X117938095Y-109575714D01*
X117919047Y-109566190D01*
D10*
X121203023Y-102784666D02*
X121233261Y-102693952D01*
X121233261Y-102542761D01*
X121203023Y-102482285D01*
X121172785Y-102452047D01*
X121112309Y-102421809D01*
X121051833Y-102421809D01*
X120991357Y-102452047D01*
X120961119Y-102482285D01*
X120930880Y-102542761D01*
X120900642Y-102663714D01*
X120870404Y-102724190D01*
X120840166Y-102754428D01*
X120779690Y-102784666D01*
X120719214Y-102784666D01*
X120658738Y-102754428D01*
X120628500Y-102724190D01*
X120598261Y-102663714D01*
X120598261Y-102512523D01*
X120628500Y-102421809D01*
X120598261Y-102210142D02*
X121233261Y-102058952D01*
X120779690Y-101938000D01*
X121233261Y-101817047D01*
X120598261Y-101665857D01*
X121233261Y-101091333D02*
X121233261Y-101454190D01*
X121233261Y-101272761D02*
X120598261Y-101272761D01*
X120688976Y-101333238D01*
X120749452Y-101393714D01*
X120779690Y-101454190D01*
X132766785Y-62388214D02*
X132797023Y-62418452D01*
X132827261Y-62509166D01*
X132827261Y-62569642D01*
X132797023Y-62660357D01*
X132736547Y-62720833D01*
X132676071Y-62751071D01*
X132555119Y-62781309D01*
X132464404Y-62781309D01*
X132343452Y-62751071D01*
X132282976Y-62720833D01*
X132222500Y-62660357D01*
X132192261Y-62569642D01*
X132192261Y-62509166D01*
X132222500Y-62418452D01*
X132252738Y-62388214D01*
X132827261Y-61783452D02*
X132827261Y-62146309D01*
X132827261Y-61964880D02*
X132192261Y-61964880D01*
X132282976Y-62025357D01*
X132343452Y-62085833D01*
X132373690Y-62146309D01*
X132192261Y-61571785D02*
X132192261Y-61178690D01*
X132434166Y-61390357D01*
X132434166Y-61299642D01*
X132464404Y-61239166D01*
X132494642Y-61208928D01*
X132555119Y-61178690D01*
X132706309Y-61178690D01*
X132766785Y-61208928D01*
X132797023Y-61239166D01*
X132827261Y-61299642D01*
X132827261Y-61481071D01*
X132797023Y-61541547D01*
X132766785Y-61571785D01*
X131311785Y-58147261D02*
X131100119Y-57844880D01*
X130948928Y-58147261D02*
X130948928Y-57512261D01*
X131190833Y-57512261D01*
X131251309Y-57542500D01*
X131281547Y-57572738D01*
X131311785Y-57633214D01*
X131311785Y-57723928D01*
X131281547Y-57784404D01*
X131251309Y-57814642D01*
X131190833Y-57844880D01*
X130948928Y-57844880D01*
X131916547Y-58147261D02*
X131553690Y-58147261D01*
X131735119Y-58147261D02*
X131735119Y-57512261D01*
X131674642Y-57602976D01*
X131614166Y-57663452D01*
X131553690Y-57693690D01*
X132158452Y-57572738D02*
X132188690Y-57542500D01*
X132249166Y-57512261D01*
X132400357Y-57512261D01*
X132460833Y-57542500D01*
X132491071Y-57572738D01*
X132521309Y-57633214D01*
X132521309Y-57693690D01*
X132491071Y-57784404D01*
X132128214Y-58147261D01*
X132521309Y-58147261D01*
D12*
X136621428Y-116950476D02*
X136554761Y-116855238D01*
X136507142Y-116950476D02*
X136507142Y-116750476D01*
X136583333Y-116750476D01*
X136602380Y-116760000D01*
X136611904Y-116769523D01*
X136621428Y-116788571D01*
X136621428Y-116817142D01*
X136611904Y-116836190D01*
X136602380Y-116845714D01*
X136583333Y-116855238D01*
X136507142Y-116855238D01*
X136688095Y-116750476D02*
X136811904Y-116750476D01*
X136745238Y-116826666D01*
X136773809Y-116826666D01*
X136792857Y-116836190D01*
X136802380Y-116845714D01*
X136811904Y-116864761D01*
X136811904Y-116912380D01*
X136802380Y-116931428D01*
X136792857Y-116940952D01*
X136773809Y-116950476D01*
X136716666Y-116950476D01*
X136697619Y-116940952D01*
X136688095Y-116931428D01*
X136983333Y-116750476D02*
X136945238Y-116750476D01*
X136926190Y-116760000D01*
X136916666Y-116769523D01*
X136897619Y-116798095D01*
X136888095Y-116836190D01*
X136888095Y-116912380D01*
X136897619Y-116931428D01*
X136907142Y-116940952D01*
X136926190Y-116950476D01*
X136964285Y-116950476D01*
X136983333Y-116940952D01*
X136992857Y-116931428D01*
X137002380Y-116912380D01*
X137002380Y-116864761D01*
X136992857Y-116845714D01*
X136983333Y-116836190D01*
X136964285Y-116826666D01*
X136926190Y-116826666D01*
X136907142Y-116836190D01*
X136897619Y-116845714D01*
X136888095Y-116864761D01*
D10*
X136177261Y-82105833D02*
X135874880Y-82317500D01*
X136177261Y-82468690D02*
X135542261Y-82468690D01*
X135542261Y-82226785D01*
X135572500Y-82166309D01*
X135602738Y-82136071D01*
X135663214Y-82105833D01*
X135753928Y-82105833D01*
X135814404Y-82136071D01*
X135844642Y-82166309D01*
X135874880Y-82226785D01*
X135874880Y-82468690D01*
X135542261Y-81561547D02*
X135542261Y-81682500D01*
X135572500Y-81742976D01*
X135602738Y-81773214D01*
X135693452Y-81833690D01*
X135814404Y-81863928D01*
X136056309Y-81863928D01*
X136116785Y-81833690D01*
X136147023Y-81803452D01*
X136177261Y-81742976D01*
X136177261Y-81622023D01*
X136147023Y-81561547D01*
X136116785Y-81531309D01*
X136056309Y-81501071D01*
X135905119Y-81501071D01*
X135844642Y-81531309D01*
X135814404Y-81561547D01*
X135784166Y-81622023D01*
X135784166Y-81742976D01*
X135814404Y-81803452D01*
X135844642Y-81833690D01*
X135905119Y-81863928D01*
X150230119Y-117242261D02*
X150230119Y-116607261D01*
X150895357Y-117181785D02*
X150865119Y-117212023D01*
X150774404Y-117242261D01*
X150713928Y-117242261D01*
X150623214Y-117212023D01*
X150562738Y-117151547D01*
X150532500Y-117091071D01*
X150502261Y-116970119D01*
X150502261Y-116879404D01*
X150532500Y-116758452D01*
X150562738Y-116697976D01*
X150623214Y-116637500D01*
X150713928Y-116607261D01*
X150774404Y-116607261D01*
X150865119Y-116637500D01*
X150895357Y-116667738D01*
X151107023Y-116607261D02*
X151500119Y-116607261D01*
X151288452Y-116849166D01*
X151379166Y-116849166D01*
X151439642Y-116879404D01*
X151469880Y-116909642D01*
X151500119Y-116970119D01*
X151500119Y-117121309D01*
X151469880Y-117181785D01*
X151439642Y-117212023D01*
X151379166Y-117242261D01*
X151197738Y-117242261D01*
X151137261Y-117212023D01*
X151107023Y-117181785D01*
D13*
X150946428Y-114660952D02*
X150346428Y-114660952D01*
X150946428Y-114203809D02*
X150603571Y-114546666D01*
X150346428Y-114203809D02*
X150689285Y-114660952D01*
X150632142Y-113860952D02*
X150632142Y-113594285D01*
X150946428Y-113480000D02*
X150946428Y-113860952D01*
X150346428Y-113860952D01*
X150346428Y-113480000D01*
X150632142Y-113137142D02*
X150632142Y-112870476D01*
X150946428Y-112756190D02*
X150946428Y-113137142D01*
X150346428Y-113137142D01*
X150346428Y-112756190D01*
X150946428Y-112413333D02*
X150346428Y-112413333D01*
X150346428Y-112108571D01*
X150375000Y-112032380D01*
X150403571Y-111994285D01*
X150460714Y-111956190D01*
X150546428Y-111956190D01*
X150603571Y-111994285D01*
X150632142Y-112032380D01*
X150660714Y-112108571D01*
X150660714Y-112413333D01*
X150346428Y-110851428D02*
X150346428Y-110699047D01*
X150375000Y-110622857D01*
X150432142Y-110546666D01*
X150546428Y-110508571D01*
X150746428Y-110508571D01*
X150860714Y-110546666D01*
X150917857Y-110622857D01*
X150946428Y-110699047D01*
X150946428Y-110851428D01*
X150917857Y-110927619D01*
X150860714Y-111003809D01*
X150746428Y-111041904D01*
X150546428Y-111041904D01*
X150432142Y-111003809D01*
X150375000Y-110927619D01*
X150346428Y-110851428D01*
X150346428Y-110165714D02*
X150832142Y-110165714D01*
X150889285Y-110127619D01*
X150917857Y-110089523D01*
X150946428Y-110013333D01*
X150946428Y-109860952D01*
X150917857Y-109784761D01*
X150889285Y-109746666D01*
X150832142Y-109708571D01*
X150346428Y-109708571D01*
X150346428Y-109441904D02*
X150346428Y-108984761D01*
X150946428Y-109213333D02*
X150346428Y-109213333D01*
D10*
X127181309Y-86167261D02*
X127181309Y-85532261D01*
X127332500Y-85532261D01*
X127423214Y-85562500D01*
X127483690Y-85622976D01*
X127513928Y-85683452D01*
X127544166Y-85804404D01*
X127544166Y-85895119D01*
X127513928Y-86016071D01*
X127483690Y-86076547D01*
X127423214Y-86137023D01*
X127332500Y-86167261D01*
X127181309Y-86167261D01*
X127786071Y-85592738D02*
X127816309Y-85562500D01*
X127876785Y-85532261D01*
X128027976Y-85532261D01*
X128088452Y-85562500D01*
X128118690Y-85592738D01*
X128148928Y-85653214D01*
X128148928Y-85713690D01*
X128118690Y-85804404D01*
X127755833Y-86167261D01*
X128148928Y-86167261D01*
X136981309Y-86167261D02*
X136981309Y-85532261D01*
X137132500Y-85532261D01*
X137223214Y-85562500D01*
X137283690Y-85622976D01*
X137313928Y-85683452D01*
X137344166Y-85804404D01*
X137344166Y-85895119D01*
X137313928Y-86016071D01*
X137283690Y-86076547D01*
X137223214Y-86137023D01*
X137132500Y-86167261D01*
X136981309Y-86167261D01*
X137555833Y-85532261D02*
X137948928Y-85532261D01*
X137737261Y-85774166D01*
X137827976Y-85774166D01*
X137888452Y-85804404D01*
X137918690Y-85834642D01*
X137948928Y-85895119D01*
X137948928Y-86046309D01*
X137918690Y-86106785D01*
X137888452Y-86137023D01*
X137827976Y-86167261D01*
X137646547Y-86167261D01*
X137586071Y-86137023D01*
X137555833Y-86106785D01*
X135991785Y-56977261D02*
X135780119Y-56674880D01*
X135628928Y-56977261D02*
X135628928Y-56342261D01*
X135870833Y-56342261D01*
X135931309Y-56372500D01*
X135961547Y-56402738D01*
X135991785Y-56463214D01*
X135991785Y-56553928D01*
X135961547Y-56614404D01*
X135931309Y-56644642D01*
X135870833Y-56674880D01*
X135628928Y-56674880D01*
X136596547Y-56977261D02*
X136233690Y-56977261D01*
X136415119Y-56977261D02*
X136415119Y-56342261D01*
X136354642Y-56432976D01*
X136294166Y-56493452D01*
X136233690Y-56523690D01*
X136808214Y-56342261D02*
X137201309Y-56342261D01*
X136989642Y-56584166D01*
X137080357Y-56584166D01*
X137140833Y-56614404D01*
X137171071Y-56644642D01*
X137201309Y-56705119D01*
X137201309Y-56856309D01*
X137171071Y-56916785D01*
X137140833Y-56947023D01*
X137080357Y-56977261D01*
X136898928Y-56977261D01*
X136838452Y-56947023D01*
X136808214Y-56916785D01*
X136041785Y-60127261D02*
X135830119Y-59824880D01*
X135678928Y-60127261D02*
X135678928Y-59492261D01*
X135920833Y-59492261D01*
X135981309Y-59522500D01*
X136011547Y-59552738D01*
X136041785Y-59613214D01*
X136041785Y-59703928D01*
X136011547Y-59764404D01*
X135981309Y-59794642D01*
X135920833Y-59824880D01*
X135678928Y-59824880D01*
X136646547Y-60127261D02*
X136283690Y-60127261D01*
X136465119Y-60127261D02*
X136465119Y-59492261D01*
X136404642Y-59582976D01*
X136344166Y-59643452D01*
X136283690Y-59673690D01*
X137190833Y-59703928D02*
X137190833Y-60127261D01*
X137039642Y-59462023D02*
X136888452Y-59915595D01*
X137281547Y-59915595D01*
X140547261Y-63808214D02*
X140244880Y-64019880D01*
X140547261Y-64171071D02*
X139912261Y-64171071D01*
X139912261Y-63929166D01*
X139942500Y-63868690D01*
X139972738Y-63838452D01*
X140033214Y-63808214D01*
X140123928Y-63808214D01*
X140184404Y-63838452D01*
X140214642Y-63868690D01*
X140244880Y-63929166D01*
X140244880Y-64171071D01*
X140547261Y-63203452D02*
X140547261Y-63566309D01*
X140547261Y-63384880D02*
X139912261Y-63384880D01*
X140002976Y-63445357D01*
X140063452Y-63505833D01*
X140093690Y-63566309D01*
X139912261Y-62628928D02*
X139912261Y-62931309D01*
X140214642Y-62961547D01*
X140184404Y-62931309D01*
X140154166Y-62870833D01*
X140154166Y-62719642D01*
X140184404Y-62659166D01*
X140214642Y-62628928D01*
X140275119Y-62598690D01*
X140426309Y-62598690D01*
X140486785Y-62628928D01*
X140517023Y-62659166D01*
X140547261Y-62719642D01*
X140547261Y-62870833D01*
X140517023Y-62931309D01*
X140486785Y-62961547D01*
X129267261Y-64878214D02*
X128964880Y-65089880D01*
X129267261Y-65241071D02*
X128632261Y-65241071D01*
X128632261Y-64999166D01*
X128662500Y-64938690D01*
X128692738Y-64908452D01*
X128753214Y-64878214D01*
X128843928Y-64878214D01*
X128904404Y-64908452D01*
X128934642Y-64938690D01*
X128964880Y-64999166D01*
X128964880Y-65241071D01*
X129267261Y-64273452D02*
X129267261Y-64636309D01*
X129267261Y-64454880D02*
X128632261Y-64454880D01*
X128722976Y-64515357D01*
X128783452Y-64575833D01*
X128813690Y-64636309D01*
X128632261Y-63729166D02*
X128632261Y-63850119D01*
X128662500Y-63910595D01*
X128692738Y-63940833D01*
X128783452Y-64001309D01*
X128904404Y-64031547D01*
X129146309Y-64031547D01*
X129206785Y-64001309D01*
X129237023Y-63971071D01*
X129267261Y-63910595D01*
X129267261Y-63789642D01*
X129237023Y-63729166D01*
X129206785Y-63698928D01*
X129146309Y-63668690D01*
X128995119Y-63668690D01*
X128934642Y-63698928D01*
X128904404Y-63729166D01*
X128874166Y-63789642D01*
X128874166Y-63910595D01*
X128904404Y-63971071D01*
X128934642Y-64001309D01*
X128995119Y-64031547D01*
X131241785Y-55497261D02*
X131030119Y-55194880D01*
X130878928Y-55497261D02*
X130878928Y-54862261D01*
X131120833Y-54862261D01*
X131181309Y-54892500D01*
X131211547Y-54922738D01*
X131241785Y-54983214D01*
X131241785Y-55073928D01*
X131211547Y-55134404D01*
X131181309Y-55164642D01*
X131120833Y-55194880D01*
X130878928Y-55194880D01*
X131846547Y-55497261D02*
X131483690Y-55497261D01*
X131665119Y-55497261D02*
X131665119Y-54862261D01*
X131604642Y-54952976D01*
X131544166Y-55013452D01*
X131483690Y-55043690D01*
X132058214Y-54862261D02*
X132481547Y-54862261D01*
X132209404Y-55497261D01*
X129852261Y-79363809D02*
X130366309Y-79363809D01*
X130426785Y-79333571D01*
X130457023Y-79303333D01*
X130487261Y-79242857D01*
X130487261Y-79121904D01*
X130457023Y-79061428D01*
X130426785Y-79031190D01*
X130366309Y-79000952D01*
X129852261Y-79000952D01*
X129912738Y-78728809D02*
X129882500Y-78698571D01*
X129852261Y-78638095D01*
X129852261Y-78486904D01*
X129882500Y-78426428D01*
X129912738Y-78396190D01*
X129973214Y-78365952D01*
X130033690Y-78365952D01*
X130124404Y-78396190D01*
X130487261Y-78759047D01*
X130487261Y-78365952D01*
X127861133Y-47500261D02*
X127861133Y-47953833D01*
X127830895Y-48044547D01*
X127770419Y-48105023D01*
X127679704Y-48135261D01*
X127619228Y-48135261D01*
X128133276Y-47560738D02*
X128163514Y-47530500D01*
X128223990Y-47500261D01*
X128375180Y-47500261D01*
X128435657Y-47530500D01*
X128465895Y-47560738D01*
X128496133Y-47621214D01*
X128496133Y-47681690D01*
X128465895Y-47772404D01*
X128103038Y-48135261D01*
X128496133Y-48135261D01*
X135426785Y-89235833D02*
X135457023Y-89266071D01*
X135487261Y-89356785D01*
X135487261Y-89417261D01*
X135457023Y-89507976D01*
X135396547Y-89568452D01*
X135336071Y-89598690D01*
X135215119Y-89628928D01*
X135124404Y-89628928D01*
X135003452Y-89598690D01*
X134942976Y-89568452D01*
X134882500Y-89507976D01*
X134852261Y-89417261D01*
X134852261Y-89356785D01*
X134882500Y-89266071D01*
X134912738Y-89235833D01*
X135487261Y-88631071D02*
X135487261Y-88993928D01*
X135487261Y-88812500D02*
X134852261Y-88812500D01*
X134942976Y-88872976D01*
X135003452Y-88933452D01*
X135033690Y-88993928D01*
X129357385Y-74860733D02*
X129387623Y-74890971D01*
X129417861Y-74981685D01*
X129417861Y-75042161D01*
X129387623Y-75132876D01*
X129327147Y-75193352D01*
X129266671Y-75223590D01*
X129145719Y-75253828D01*
X129055004Y-75253828D01*
X128934052Y-75223590D01*
X128873576Y-75193352D01*
X128813100Y-75132876D01*
X128782861Y-75042161D01*
X128782861Y-74981685D01*
X128813100Y-74890971D01*
X128843338Y-74860733D01*
X128843338Y-74618828D02*
X128813100Y-74588590D01*
X128782861Y-74528114D01*
X128782861Y-74376923D01*
X128813100Y-74316447D01*
X128843338Y-74286209D01*
X128903814Y-74255971D01*
X128964290Y-74255971D01*
X129055004Y-74286209D01*
X129417861Y-74649066D01*
X129417861Y-74255971D01*
X127258085Y-68597733D02*
X127288323Y-68627971D01*
X127318561Y-68718685D01*
X127318561Y-68779161D01*
X127288323Y-68869876D01*
X127227847Y-68930352D01*
X127167371Y-68960590D01*
X127046419Y-68990828D01*
X126955704Y-68990828D01*
X126834752Y-68960590D01*
X126774276Y-68930352D01*
X126713800Y-68869876D01*
X126683561Y-68779161D01*
X126683561Y-68718685D01*
X126713800Y-68627971D01*
X126744038Y-68597733D01*
X126683561Y-68386066D02*
X126683561Y-67992971D01*
X126925466Y-68204638D01*
X126925466Y-68113923D01*
X126955704Y-68053447D01*
X126985942Y-68023209D01*
X127046419Y-67992971D01*
X127197609Y-67992971D01*
X127258085Y-68023209D01*
X127288323Y-68053447D01*
X127318561Y-68113923D01*
X127318561Y-68295352D01*
X127288323Y-68355828D01*
X127258085Y-68386066D01*
X136934166Y-81856785D02*
X136903928Y-81887023D01*
X136813214Y-81917261D01*
X136752738Y-81917261D01*
X136662023Y-81887023D01*
X136601547Y-81826547D01*
X136571309Y-81766071D01*
X136541071Y-81645119D01*
X136541071Y-81554404D01*
X136571309Y-81433452D01*
X136601547Y-81372976D01*
X136662023Y-81312500D01*
X136752738Y-81282261D01*
X136813214Y-81282261D01*
X136903928Y-81312500D01*
X136934166Y-81342738D01*
X137478452Y-81493928D02*
X137478452Y-81917261D01*
X137327261Y-81252023D02*
X137176071Y-81705595D01*
X137569166Y-81705595D01*
X139494166Y-82016785D02*
X139463928Y-82047023D01*
X139373214Y-82077261D01*
X139312738Y-82077261D01*
X139222023Y-82047023D01*
X139161547Y-81986547D01*
X139131309Y-81926071D01*
X139101071Y-81805119D01*
X139101071Y-81714404D01*
X139131309Y-81593452D01*
X139161547Y-81532976D01*
X139222023Y-81472500D01*
X139312738Y-81442261D01*
X139373214Y-81442261D01*
X139463928Y-81472500D01*
X139494166Y-81502738D01*
X140068690Y-81442261D02*
X139766309Y-81442261D01*
X139736071Y-81744642D01*
X139766309Y-81714404D01*
X139826785Y-81684166D01*
X139977976Y-81684166D01*
X140038452Y-81714404D01*
X140068690Y-81744642D01*
X140098928Y-81805119D01*
X140098928Y-81956309D01*
X140068690Y-82016785D01*
X140038452Y-82047023D01*
X139977976Y-82077261D01*
X139826785Y-82077261D01*
X139766309Y-82047023D01*
X139736071Y-82016785D01*
X126794166Y-79406785D02*
X126763928Y-79437023D01*
X126673214Y-79467261D01*
X126612738Y-79467261D01*
X126522023Y-79437023D01*
X126461547Y-79376547D01*
X126431309Y-79316071D01*
X126401071Y-79195119D01*
X126401071Y-79104404D01*
X126431309Y-78983452D01*
X126461547Y-78922976D01*
X126522023Y-78862500D01*
X126612738Y-78832261D01*
X126673214Y-78832261D01*
X126763928Y-78862500D01*
X126794166Y-78892738D01*
X127338452Y-78832261D02*
X127217500Y-78832261D01*
X127157023Y-78862500D01*
X127126785Y-78892738D01*
X127066309Y-78983452D01*
X127036071Y-79104404D01*
X127036071Y-79346309D01*
X127066309Y-79406785D01*
X127096547Y-79437023D01*
X127157023Y-79467261D01*
X127277976Y-79467261D01*
X127338452Y-79437023D01*
X127368690Y-79406785D01*
X127398928Y-79346309D01*
X127398928Y-79195119D01*
X127368690Y-79134642D01*
X127338452Y-79104404D01*
X127277976Y-79074166D01*
X127157023Y-79074166D01*
X127096547Y-79104404D01*
X127066309Y-79134642D01*
X127036071Y-79195119D01*
X126774166Y-78416785D02*
X126743928Y-78447023D01*
X126653214Y-78477261D01*
X126592738Y-78477261D01*
X126502023Y-78447023D01*
X126441547Y-78386547D01*
X126411309Y-78326071D01*
X126381071Y-78205119D01*
X126381071Y-78114404D01*
X126411309Y-77993452D01*
X126441547Y-77932976D01*
X126502023Y-77872500D01*
X126592738Y-77842261D01*
X126653214Y-77842261D01*
X126743928Y-77872500D01*
X126774166Y-77902738D01*
X126985833Y-77842261D02*
X127409166Y-77842261D01*
X127137023Y-78477261D01*
X128265185Y-74898833D02*
X128295423Y-74929071D01*
X128325661Y-75019785D01*
X128325661Y-75080261D01*
X128295423Y-75170976D01*
X128234947Y-75231452D01*
X128174471Y-75261690D01*
X128053519Y-75291928D01*
X127962804Y-75291928D01*
X127841852Y-75261690D01*
X127781376Y-75231452D01*
X127720900Y-75170976D01*
X127690661Y-75080261D01*
X127690661Y-75019785D01*
X127720900Y-74929071D01*
X127751138Y-74898833D01*
X127962804Y-74535976D02*
X127932566Y-74596452D01*
X127902328Y-74626690D01*
X127841852Y-74656928D01*
X127811614Y-74656928D01*
X127751138Y-74626690D01*
X127720900Y-74596452D01*
X127690661Y-74535976D01*
X127690661Y-74415023D01*
X127720900Y-74354547D01*
X127751138Y-74324309D01*
X127811614Y-74294071D01*
X127841852Y-74294071D01*
X127902328Y-74324309D01*
X127932566Y-74354547D01*
X127962804Y-74415023D01*
X127962804Y-74535976D01*
X127993042Y-74596452D01*
X128023280Y-74626690D01*
X128083757Y-74656928D01*
X128204709Y-74656928D01*
X128265185Y-74626690D01*
X128295423Y-74596452D01*
X128325661Y-74535976D01*
X128325661Y-74415023D01*
X128295423Y-74354547D01*
X128265185Y-74324309D01*
X128204709Y-74294071D01*
X128083757Y-74294071D01*
X128023280Y-74324309D01*
X127993042Y-74354547D01*
X127962804Y-74415023D01*
X128244166Y-73906785D02*
X128213928Y-73937023D01*
X128123214Y-73967261D01*
X128062738Y-73967261D01*
X127972023Y-73937023D01*
X127911547Y-73876547D01*
X127881309Y-73816071D01*
X127851071Y-73695119D01*
X127851071Y-73604404D01*
X127881309Y-73483452D01*
X127911547Y-73422976D01*
X127972023Y-73362500D01*
X128062738Y-73332261D01*
X128123214Y-73332261D01*
X128213928Y-73362500D01*
X128244166Y-73392738D01*
X128546547Y-73967261D02*
X128667500Y-73967261D01*
X128727976Y-73937023D01*
X128758214Y-73906785D01*
X128818690Y-73816071D01*
X128848928Y-73695119D01*
X128848928Y-73453214D01*
X128818690Y-73392738D01*
X128788452Y-73362500D01*
X128727976Y-73332261D01*
X128607023Y-73332261D01*
X128546547Y-73362500D01*
X128516309Y-73392738D01*
X128486071Y-73453214D01*
X128486071Y-73604404D01*
X128516309Y-73664880D01*
X128546547Y-73695119D01*
X128607023Y-73725357D01*
X128727976Y-73725357D01*
X128788452Y-73695119D01*
X128818690Y-73664880D01*
X128848928Y-73604404D01*
X130816785Y-68948214D02*
X130847023Y-68978452D01*
X130877261Y-69069166D01*
X130877261Y-69129642D01*
X130847023Y-69220357D01*
X130786547Y-69280833D01*
X130726071Y-69311071D01*
X130605119Y-69341309D01*
X130514404Y-69341309D01*
X130393452Y-69311071D01*
X130332976Y-69280833D01*
X130272500Y-69220357D01*
X130242261Y-69129642D01*
X130242261Y-69069166D01*
X130272500Y-68978452D01*
X130302738Y-68948214D01*
X130877261Y-68343452D02*
X130877261Y-68706309D01*
X130877261Y-68524880D02*
X130242261Y-68524880D01*
X130332976Y-68585357D01*
X130393452Y-68645833D01*
X130423690Y-68706309D01*
X130242261Y-67950357D02*
X130242261Y-67889880D01*
X130272500Y-67829404D01*
X130302738Y-67799166D01*
X130363214Y-67768928D01*
X130484166Y-67738690D01*
X130635357Y-67738690D01*
X130756309Y-67768928D01*
X130816785Y-67799166D01*
X130847023Y-67829404D01*
X130877261Y-67889880D01*
X130877261Y-67950357D01*
X130847023Y-68010833D01*
X130816785Y-68041071D01*
X130756309Y-68071309D01*
X130635357Y-68101547D01*
X130484166Y-68101547D01*
X130363214Y-68071309D01*
X130302738Y-68041071D01*
X130272500Y-68010833D01*
X130242261Y-67950357D01*
X136706785Y-68188214D02*
X136737023Y-68218452D01*
X136767261Y-68309166D01*
X136767261Y-68369642D01*
X136737023Y-68460357D01*
X136676547Y-68520833D01*
X136616071Y-68551071D01*
X136495119Y-68581309D01*
X136404404Y-68581309D01*
X136283452Y-68551071D01*
X136222976Y-68520833D01*
X136162500Y-68460357D01*
X136132261Y-68369642D01*
X136132261Y-68309166D01*
X136162500Y-68218452D01*
X136192738Y-68188214D01*
X136767261Y-67583452D02*
X136767261Y-67946309D01*
X136767261Y-67764880D02*
X136132261Y-67764880D01*
X136222976Y-67825357D01*
X136283452Y-67885833D01*
X136313690Y-67946309D01*
X136767261Y-66978690D02*
X136767261Y-67341547D01*
X136767261Y-67160119D02*
X136132261Y-67160119D01*
X136222976Y-67220595D01*
X136283452Y-67281071D01*
X136313690Y-67341547D01*
X136066785Y-62338214D02*
X136097023Y-62368452D01*
X136127261Y-62459166D01*
X136127261Y-62519642D01*
X136097023Y-62610357D01*
X136036547Y-62670833D01*
X135976071Y-62701071D01*
X135855119Y-62731309D01*
X135764404Y-62731309D01*
X135643452Y-62701071D01*
X135582976Y-62670833D01*
X135522500Y-62610357D01*
X135492261Y-62519642D01*
X135492261Y-62459166D01*
X135522500Y-62368452D01*
X135552738Y-62338214D01*
X136127261Y-61733452D02*
X136127261Y-62096309D01*
X136127261Y-61914880D02*
X135492261Y-61914880D01*
X135582976Y-61975357D01*
X135643452Y-62035833D01*
X135673690Y-62096309D01*
X135552738Y-61491547D02*
X135522500Y-61461309D01*
X135492261Y-61400833D01*
X135492261Y-61249642D01*
X135522500Y-61189166D01*
X135552738Y-61158928D01*
X135613214Y-61128690D01*
X135673690Y-61128690D01*
X135764404Y-61158928D01*
X136127261Y-61521785D01*
X136127261Y-61128690D01*
D12*
X126181428Y-114791428D02*
X126171904Y-114800952D01*
X126143333Y-114810476D01*
X126124285Y-114810476D01*
X126095714Y-114800952D01*
X126076666Y-114781904D01*
X126067142Y-114762857D01*
X126057619Y-114724761D01*
X126057619Y-114696190D01*
X126067142Y-114658095D01*
X126076666Y-114639047D01*
X126095714Y-114620000D01*
X126124285Y-114610476D01*
X126143333Y-114610476D01*
X126171904Y-114620000D01*
X126181428Y-114629523D01*
X126371904Y-114810476D02*
X126257619Y-114810476D01*
X126314761Y-114810476D02*
X126314761Y-114610476D01*
X126295714Y-114639047D01*
X126276666Y-114658095D01*
X126257619Y-114667619D01*
X126552857Y-114610476D02*
X126457619Y-114610476D01*
X126448095Y-114705714D01*
X126457619Y-114696190D01*
X126476666Y-114686666D01*
X126524285Y-114686666D01*
X126543333Y-114696190D01*
X126552857Y-114705714D01*
X126562380Y-114724761D01*
X126562380Y-114772380D01*
X126552857Y-114791428D01*
X126543333Y-114800952D01*
X126524285Y-114810476D01*
X126476666Y-114810476D01*
X126457619Y-114800952D01*
X126448095Y-114791428D01*
D10*
X147111785Y-68296785D02*
X147081547Y-68327023D01*
X146990833Y-68357261D01*
X146930357Y-68357261D01*
X146839642Y-68327023D01*
X146779166Y-68266547D01*
X146748928Y-68206071D01*
X146718690Y-68085119D01*
X146718690Y-67994404D01*
X146748928Y-67873452D01*
X146779166Y-67812976D01*
X146839642Y-67752500D01*
X146930357Y-67722261D01*
X146990833Y-67722261D01*
X147081547Y-67752500D01*
X147111785Y-67782738D01*
X147716547Y-68357261D02*
X147353690Y-68357261D01*
X147535119Y-68357261D02*
X147535119Y-67722261D01*
X147474642Y-67812976D01*
X147414166Y-67873452D01*
X147353690Y-67903690D01*
X148260833Y-67722261D02*
X148139880Y-67722261D01*
X148079404Y-67752500D01*
X148049166Y-67782738D01*
X147988690Y-67873452D01*
X147958452Y-67994404D01*
X147958452Y-68236309D01*
X147988690Y-68296785D01*
X148018928Y-68327023D01*
X148079404Y-68357261D01*
X148200357Y-68357261D01*
X148260833Y-68327023D01*
X148291071Y-68296785D01*
X148321309Y-68236309D01*
X148321309Y-68085119D01*
X148291071Y-68024642D01*
X148260833Y-67994404D01*
X148200357Y-67964166D01*
X148079404Y-67964166D01*
X148018928Y-67994404D01*
X147988690Y-68024642D01*
X147958452Y-68085119D01*
X147111785Y-66066785D02*
X147081547Y-66097023D01*
X146990833Y-66127261D01*
X146930357Y-66127261D01*
X146839642Y-66097023D01*
X146779166Y-66036547D01*
X146748928Y-65976071D01*
X146718690Y-65855119D01*
X146718690Y-65764404D01*
X146748928Y-65643452D01*
X146779166Y-65582976D01*
X146839642Y-65522500D01*
X146930357Y-65492261D01*
X146990833Y-65492261D01*
X147081547Y-65522500D01*
X147111785Y-65552738D01*
X147716547Y-66127261D02*
X147353690Y-66127261D01*
X147535119Y-66127261D02*
X147535119Y-65492261D01*
X147474642Y-65582976D01*
X147414166Y-65643452D01*
X147353690Y-65673690D01*
X147928214Y-65492261D02*
X148351547Y-65492261D01*
X148079404Y-66127261D01*
X120391785Y-68046785D02*
X120361547Y-68077023D01*
X120270833Y-68107261D01*
X120210357Y-68107261D01*
X120119642Y-68077023D01*
X120059166Y-68016547D01*
X120028928Y-67956071D01*
X119998690Y-67835119D01*
X119998690Y-67744404D01*
X120028928Y-67623452D01*
X120059166Y-67562976D01*
X120119642Y-67502500D01*
X120210357Y-67472261D01*
X120270833Y-67472261D01*
X120361547Y-67502500D01*
X120391785Y-67532738D01*
X120996547Y-68107261D02*
X120633690Y-68107261D01*
X120815119Y-68107261D02*
X120815119Y-67472261D01*
X120754642Y-67562976D01*
X120694166Y-67623452D01*
X120633690Y-67653690D01*
X121359404Y-67744404D02*
X121298928Y-67714166D01*
X121268690Y-67683928D01*
X121238452Y-67623452D01*
X121238452Y-67593214D01*
X121268690Y-67532738D01*
X121298928Y-67502500D01*
X121359404Y-67472261D01*
X121480357Y-67472261D01*
X121540833Y-67502500D01*
X121571071Y-67532738D01*
X121601309Y-67593214D01*
X121601309Y-67623452D01*
X121571071Y-67683928D01*
X121540833Y-67714166D01*
X121480357Y-67744404D01*
X121359404Y-67744404D01*
X121298928Y-67774642D01*
X121268690Y-67804880D01*
X121238452Y-67865357D01*
X121238452Y-67986309D01*
X121268690Y-68046785D01*
X121298928Y-68077023D01*
X121359404Y-68107261D01*
X121480357Y-68107261D01*
X121540833Y-68077023D01*
X121571071Y-68046785D01*
X121601309Y-67986309D01*
X121601309Y-67865357D01*
X121571071Y-67804880D01*
X121540833Y-67774642D01*
X121480357Y-67744404D01*
X120291785Y-66726785D02*
X120261547Y-66757023D01*
X120170833Y-66787261D01*
X120110357Y-66787261D01*
X120019642Y-66757023D01*
X119959166Y-66696547D01*
X119928928Y-66636071D01*
X119898690Y-66515119D01*
X119898690Y-66424404D01*
X119928928Y-66303452D01*
X119959166Y-66242976D01*
X120019642Y-66182500D01*
X120110357Y-66152261D01*
X120170833Y-66152261D01*
X120261547Y-66182500D01*
X120291785Y-66212738D01*
X120896547Y-66787261D02*
X120533690Y-66787261D01*
X120715119Y-66787261D02*
X120715119Y-66152261D01*
X120654642Y-66242976D01*
X120594166Y-66303452D01*
X120533690Y-66333690D01*
X121198928Y-66787261D02*
X121319880Y-66787261D01*
X121380357Y-66757023D01*
X121410595Y-66726785D01*
X121471071Y-66636071D01*
X121501309Y-66515119D01*
X121501309Y-66273214D01*
X121471071Y-66212738D01*
X121440833Y-66182500D01*
X121380357Y-66152261D01*
X121259404Y-66152261D01*
X121198928Y-66182500D01*
X121168690Y-66212738D01*
X121138452Y-66273214D01*
X121138452Y-66424404D01*
X121168690Y-66484880D01*
X121198928Y-66515119D01*
X121259404Y-66545357D01*
X121380357Y-66545357D01*
X121440833Y-66515119D01*
X121471071Y-66484880D01*
X121501309Y-66424404D01*
D12*
X122401428Y-75011428D02*
X122391904Y-75020952D01*
X122363333Y-75030476D01*
X122344285Y-75030476D01*
X122315714Y-75020952D01*
X122296666Y-75001904D01*
X122287142Y-74982857D01*
X122277619Y-74944761D01*
X122277619Y-74916190D01*
X122287142Y-74878095D01*
X122296666Y-74859047D01*
X122315714Y-74840000D01*
X122344285Y-74830476D01*
X122363333Y-74830476D01*
X122391904Y-74840000D01*
X122401428Y-74849523D01*
X122477619Y-74849523D02*
X122487142Y-74840000D01*
X122506190Y-74830476D01*
X122553809Y-74830476D01*
X122572857Y-74840000D01*
X122582380Y-74849523D01*
X122591904Y-74868571D01*
X122591904Y-74887619D01*
X122582380Y-74916190D01*
X122468095Y-75030476D01*
X122591904Y-75030476D01*
X122658571Y-74830476D02*
X122782380Y-74830476D01*
X122715714Y-74906666D01*
X122744285Y-74906666D01*
X122763333Y-74916190D01*
X122772857Y-74925714D01*
X122782380Y-74944761D01*
X122782380Y-74992380D01*
X122772857Y-75011428D01*
X122763333Y-75020952D01*
X122744285Y-75030476D01*
X122687142Y-75030476D01*
X122668095Y-75020952D01*
X122658571Y-75011428D01*
X122311428Y-77771428D02*
X122301904Y-77780952D01*
X122273333Y-77790476D01*
X122254285Y-77790476D01*
X122225714Y-77780952D01*
X122206666Y-77761904D01*
X122197142Y-77742857D01*
X122187619Y-77704761D01*
X122187619Y-77676190D01*
X122197142Y-77638095D01*
X122206666Y-77619047D01*
X122225714Y-77600000D01*
X122254285Y-77590476D01*
X122273333Y-77590476D01*
X122301904Y-77600000D01*
X122311428Y-77609523D01*
X122387619Y-77609523D02*
X122397142Y-77600000D01*
X122416190Y-77590476D01*
X122463809Y-77590476D01*
X122482857Y-77600000D01*
X122492380Y-77609523D01*
X122501904Y-77628571D01*
X122501904Y-77647619D01*
X122492380Y-77676190D01*
X122378095Y-77790476D01*
X122501904Y-77790476D01*
X122673333Y-77657142D02*
X122673333Y-77790476D01*
X122625714Y-77580952D02*
X122578095Y-77723809D01*
X122701904Y-77723809D01*
X122411428Y-80971428D02*
X122401904Y-80980952D01*
X122373333Y-80990476D01*
X122354285Y-80990476D01*
X122325714Y-80980952D01*
X122306666Y-80961904D01*
X122297142Y-80942857D01*
X122287619Y-80904761D01*
X122287619Y-80876190D01*
X122297142Y-80838095D01*
X122306666Y-80819047D01*
X122325714Y-80800000D01*
X122354285Y-80790476D01*
X122373333Y-80790476D01*
X122401904Y-80800000D01*
X122411428Y-80809523D01*
X122487619Y-80809523D02*
X122497142Y-80800000D01*
X122516190Y-80790476D01*
X122563809Y-80790476D01*
X122582857Y-80800000D01*
X122592380Y-80809523D01*
X122601904Y-80828571D01*
X122601904Y-80847619D01*
X122592380Y-80876190D01*
X122478095Y-80990476D01*
X122601904Y-80990476D01*
X122782857Y-80790476D02*
X122687619Y-80790476D01*
X122678095Y-80885714D01*
X122687619Y-80876190D01*
X122706666Y-80866666D01*
X122754285Y-80866666D01*
X122773333Y-80876190D01*
X122782857Y-80885714D01*
X122792380Y-80904761D01*
X122792380Y-80952380D01*
X122782857Y-80971428D01*
X122773333Y-80980952D01*
X122754285Y-80990476D01*
X122706666Y-80990476D01*
X122687619Y-80980952D01*
X122678095Y-80971428D01*
X122501428Y-83721428D02*
X122491904Y-83730952D01*
X122463333Y-83740476D01*
X122444285Y-83740476D01*
X122415714Y-83730952D01*
X122396666Y-83711904D01*
X122387142Y-83692857D01*
X122377619Y-83654761D01*
X122377619Y-83626190D01*
X122387142Y-83588095D01*
X122396666Y-83569047D01*
X122415714Y-83550000D01*
X122444285Y-83540476D01*
X122463333Y-83540476D01*
X122491904Y-83550000D01*
X122501428Y-83559523D01*
X122577619Y-83559523D02*
X122587142Y-83550000D01*
X122606190Y-83540476D01*
X122653809Y-83540476D01*
X122672857Y-83550000D01*
X122682380Y-83559523D01*
X122691904Y-83578571D01*
X122691904Y-83597619D01*
X122682380Y-83626190D01*
X122568095Y-83740476D01*
X122691904Y-83740476D01*
X122863333Y-83540476D02*
X122825238Y-83540476D01*
X122806190Y-83550000D01*
X122796666Y-83559523D01*
X122777619Y-83588095D01*
X122768095Y-83626190D01*
X122768095Y-83702380D01*
X122777619Y-83721428D01*
X122787142Y-83730952D01*
X122806190Y-83740476D01*
X122844285Y-83740476D01*
X122863333Y-83730952D01*
X122872857Y-83721428D01*
X122882380Y-83702380D01*
X122882380Y-83654761D01*
X122872857Y-83635714D01*
X122863333Y-83626190D01*
X122844285Y-83616666D01*
X122806190Y-83616666D01*
X122787142Y-83626190D01*
X122777619Y-83635714D01*
X122768095Y-83654761D01*
D10*
X130937261Y-86338214D02*
X130634880Y-86549880D01*
X130937261Y-86701071D02*
X130302261Y-86701071D01*
X130302261Y-86459166D01*
X130332500Y-86398690D01*
X130362738Y-86368452D01*
X130423214Y-86338214D01*
X130513928Y-86338214D01*
X130574404Y-86368452D01*
X130604642Y-86398690D01*
X130634880Y-86459166D01*
X130634880Y-86701071D01*
X130937261Y-85733452D02*
X130937261Y-86096309D01*
X130937261Y-85914880D02*
X130302261Y-85914880D01*
X130392976Y-85975357D01*
X130453452Y-86035833D01*
X130483690Y-86096309D01*
X130574404Y-85370595D02*
X130544166Y-85431071D01*
X130513928Y-85461309D01*
X130453452Y-85491547D01*
X130423214Y-85491547D01*
X130362738Y-85461309D01*
X130332500Y-85431071D01*
X130302261Y-85370595D01*
X130302261Y-85249642D01*
X130332500Y-85189166D01*
X130362738Y-85158928D01*
X130423214Y-85128690D01*
X130453452Y-85128690D01*
X130513928Y-85158928D01*
X130544166Y-85189166D01*
X130574404Y-85249642D01*
X130574404Y-85370595D01*
X130604642Y-85431071D01*
X130634880Y-85461309D01*
X130695357Y-85491547D01*
X130816309Y-85491547D01*
X130876785Y-85461309D01*
X130907023Y-85431071D01*
X130937261Y-85370595D01*
X130937261Y-85249642D01*
X130907023Y-85189166D01*
X130876785Y-85158928D01*
X130816309Y-85128690D01*
X130695357Y-85128690D01*
X130634880Y-85158928D01*
X130604642Y-85189166D01*
X130574404Y-85249642D01*
X138311785Y-71167261D02*
X138100119Y-70864880D01*
X137948928Y-71167261D02*
X137948928Y-70532261D01*
X138190833Y-70532261D01*
X138251309Y-70562500D01*
X138281547Y-70592738D01*
X138311785Y-70653214D01*
X138311785Y-70743928D01*
X138281547Y-70804404D01*
X138251309Y-70834642D01*
X138190833Y-70864880D01*
X137948928Y-70864880D01*
X138916547Y-71167261D02*
X138553690Y-71167261D01*
X138735119Y-71167261D02*
X138735119Y-70532261D01*
X138674642Y-70622976D01*
X138614166Y-70683452D01*
X138553690Y-70713690D01*
X139218928Y-71167261D02*
X139339880Y-71167261D01*
X139400357Y-71137023D01*
X139430595Y-71106785D01*
X139491071Y-71016071D01*
X139521309Y-70895119D01*
X139521309Y-70653214D01*
X139491071Y-70592738D01*
X139460833Y-70562500D01*
X139400357Y-70532261D01*
X139279404Y-70532261D01*
X139218928Y-70562500D01*
X139188690Y-70592738D01*
X139158452Y-70653214D01*
X139158452Y-70804404D01*
X139188690Y-70864880D01*
X139218928Y-70895119D01*
X139279404Y-70925357D01*
X139400357Y-70925357D01*
X139460833Y-70895119D01*
X139491071Y-70864880D01*
X139521309Y-70804404D01*
X134787261Y-86288214D02*
X134484880Y-86499880D01*
X134787261Y-86651071D02*
X134152261Y-86651071D01*
X134152261Y-86409166D01*
X134182500Y-86348690D01*
X134212738Y-86318452D01*
X134273214Y-86288214D01*
X134363928Y-86288214D01*
X134424404Y-86318452D01*
X134454642Y-86348690D01*
X134484880Y-86409166D01*
X134484880Y-86651071D01*
X134212738Y-86046309D02*
X134182500Y-86016071D01*
X134152261Y-85955595D01*
X134152261Y-85804404D01*
X134182500Y-85743928D01*
X134212738Y-85713690D01*
X134273214Y-85683452D01*
X134333690Y-85683452D01*
X134424404Y-85713690D01*
X134787261Y-86076547D01*
X134787261Y-85683452D01*
X134787261Y-85078690D02*
X134787261Y-85441547D01*
X134787261Y-85260119D02*
X134152261Y-85260119D01*
X134242976Y-85320595D01*
X134303452Y-85381071D01*
X134333690Y-85441547D01*
X130176785Y-93588214D02*
X130207023Y-93618452D01*
X130237261Y-93709166D01*
X130237261Y-93769642D01*
X130207023Y-93860357D01*
X130146547Y-93920833D01*
X130086071Y-93951071D01*
X129965119Y-93981309D01*
X129874404Y-93981309D01*
X129753452Y-93951071D01*
X129692976Y-93920833D01*
X129632500Y-93860357D01*
X129602261Y-93769642D01*
X129602261Y-93709166D01*
X129632500Y-93618452D01*
X129662738Y-93588214D01*
X129662738Y-93346309D02*
X129632500Y-93316071D01*
X129602261Y-93255595D01*
X129602261Y-93104404D01*
X129632500Y-93043928D01*
X129662738Y-93013690D01*
X129723214Y-92983452D01*
X129783690Y-92983452D01*
X129874404Y-93013690D01*
X130237261Y-93376547D01*
X130237261Y-92983452D01*
X129602261Y-92771785D02*
X129602261Y-92348452D01*
X130237261Y-92620595D01*
X136541785Y-94606785D02*
X136511547Y-94637023D01*
X136420833Y-94667261D01*
X136360357Y-94667261D01*
X136269642Y-94637023D01*
X136209166Y-94576547D01*
X136178928Y-94516071D01*
X136148690Y-94395119D01*
X136148690Y-94304404D01*
X136178928Y-94183452D01*
X136209166Y-94122976D01*
X136269642Y-94062500D01*
X136360357Y-94032261D01*
X136420833Y-94032261D01*
X136511547Y-94062500D01*
X136541785Y-94092738D01*
X136783690Y-94092738D02*
X136813928Y-94062500D01*
X136874404Y-94032261D01*
X137025595Y-94032261D01*
X137086071Y-94062500D01*
X137116309Y-94092738D01*
X137146547Y-94153214D01*
X137146547Y-94213690D01*
X137116309Y-94304404D01*
X136753452Y-94667261D01*
X137146547Y-94667261D01*
X137509404Y-94304404D02*
X137448928Y-94274166D01*
X137418690Y-94243928D01*
X137388452Y-94183452D01*
X137388452Y-94153214D01*
X137418690Y-94092738D01*
X137448928Y-94062500D01*
X137509404Y-94032261D01*
X137630357Y-94032261D01*
X137690833Y-94062500D01*
X137721071Y-94092738D01*
X137751309Y-94153214D01*
X137751309Y-94183452D01*
X137721071Y-94243928D01*
X137690833Y-94274166D01*
X137630357Y-94304404D01*
X137509404Y-94304404D01*
X137448928Y-94334642D01*
X137418690Y-94364880D01*
X137388452Y-94425357D01*
X137388452Y-94546309D01*
X137418690Y-94606785D01*
X137448928Y-94637023D01*
X137509404Y-94667261D01*
X137630357Y-94667261D01*
X137690833Y-94637023D01*
X137721071Y-94606785D01*
X137751309Y-94546309D01*
X137751309Y-94425357D01*
X137721071Y-94364880D01*
X137690833Y-94334642D01*
X137630357Y-94304404D01*
X128176785Y-93588214D02*
X128207023Y-93618452D01*
X128237261Y-93709166D01*
X128237261Y-93769642D01*
X128207023Y-93860357D01*
X128146547Y-93920833D01*
X128086071Y-93951071D01*
X127965119Y-93981309D01*
X127874404Y-93981309D01*
X127753452Y-93951071D01*
X127692976Y-93920833D01*
X127632500Y-93860357D01*
X127602261Y-93769642D01*
X127602261Y-93709166D01*
X127632500Y-93618452D01*
X127662738Y-93588214D01*
X127662738Y-93346309D02*
X127632500Y-93316071D01*
X127602261Y-93255595D01*
X127602261Y-93104404D01*
X127632500Y-93043928D01*
X127662738Y-93013690D01*
X127723214Y-92983452D01*
X127783690Y-92983452D01*
X127874404Y-93013690D01*
X128237261Y-93376547D01*
X128237261Y-92983452D01*
X128237261Y-92681071D02*
X128237261Y-92560119D01*
X128207023Y-92499642D01*
X128176785Y-92469404D01*
X128086071Y-92408928D01*
X127965119Y-92378690D01*
X127723214Y-92378690D01*
X127662738Y-92408928D01*
X127632500Y-92439166D01*
X127602261Y-92499642D01*
X127602261Y-92620595D01*
X127632500Y-92681071D01*
X127662738Y-92711309D01*
X127723214Y-92741547D01*
X127874404Y-92741547D01*
X127934880Y-92711309D01*
X127965119Y-92681071D01*
X127995357Y-92620595D01*
X127995357Y-92499642D01*
X127965119Y-92439166D01*
X127934880Y-92408928D01*
X127874404Y-92378690D01*
X129176785Y-93588214D02*
X129207023Y-93618452D01*
X129237261Y-93709166D01*
X129237261Y-93769642D01*
X129207023Y-93860357D01*
X129146547Y-93920833D01*
X129086071Y-93951071D01*
X128965119Y-93981309D01*
X128874404Y-93981309D01*
X128753452Y-93951071D01*
X128692976Y-93920833D01*
X128632500Y-93860357D01*
X128602261Y-93769642D01*
X128602261Y-93709166D01*
X128632500Y-93618452D01*
X128662738Y-93588214D01*
X128602261Y-93376547D02*
X128602261Y-92983452D01*
X128844166Y-93195119D01*
X128844166Y-93104404D01*
X128874404Y-93043928D01*
X128904642Y-93013690D01*
X128965119Y-92983452D01*
X129116309Y-92983452D01*
X129176785Y-93013690D01*
X129207023Y-93043928D01*
X129237261Y-93104404D01*
X129237261Y-93285833D01*
X129207023Y-93346309D01*
X129176785Y-93376547D01*
X128602261Y-92590357D02*
X128602261Y-92529880D01*
X128632500Y-92469404D01*
X128662738Y-92439166D01*
X128723214Y-92408928D01*
X128844166Y-92378690D01*
X128995357Y-92378690D01*
X129116309Y-92408928D01*
X129176785Y-92439166D01*
X129207023Y-92469404D01*
X129237261Y-92529880D01*
X129237261Y-92590357D01*
X129207023Y-92650833D01*
X129176785Y-92681071D01*
X129116309Y-92711309D01*
X128995357Y-92741547D01*
X128844166Y-92741547D01*
X128723214Y-92711309D01*
X128662738Y-92681071D01*
X128632500Y-92650833D01*
X128602261Y-92590357D01*
X130376785Y-91588214D02*
X130407023Y-91618452D01*
X130437261Y-91709166D01*
X130437261Y-91769642D01*
X130407023Y-91860357D01*
X130346547Y-91920833D01*
X130286071Y-91951071D01*
X130165119Y-91981309D01*
X130074404Y-91981309D01*
X129953452Y-91951071D01*
X129892976Y-91920833D01*
X129832500Y-91860357D01*
X129802261Y-91769642D01*
X129802261Y-91709166D01*
X129832500Y-91618452D01*
X129862738Y-91588214D01*
X129802261Y-91376547D02*
X129802261Y-90983452D01*
X130044166Y-91195119D01*
X130044166Y-91104404D01*
X130074404Y-91043928D01*
X130104642Y-91013690D01*
X130165119Y-90983452D01*
X130316309Y-90983452D01*
X130376785Y-91013690D01*
X130407023Y-91043928D01*
X130437261Y-91104404D01*
X130437261Y-91285833D01*
X130407023Y-91346309D01*
X130376785Y-91376547D01*
X130437261Y-90378690D02*
X130437261Y-90741547D01*
X130437261Y-90560119D02*
X129802261Y-90560119D01*
X129892976Y-90620595D01*
X129953452Y-90681071D01*
X129983690Y-90741547D01*
X132376785Y-89588214D02*
X132407023Y-89618452D01*
X132437261Y-89709166D01*
X132437261Y-89769642D01*
X132407023Y-89860357D01*
X132346547Y-89920833D01*
X132286071Y-89951071D01*
X132165119Y-89981309D01*
X132074404Y-89981309D01*
X131953452Y-89951071D01*
X131892976Y-89920833D01*
X131832500Y-89860357D01*
X131802261Y-89769642D01*
X131802261Y-89709166D01*
X131832500Y-89618452D01*
X131862738Y-89588214D01*
X131802261Y-89376547D02*
X131802261Y-88983452D01*
X132044166Y-89195119D01*
X132044166Y-89104404D01*
X132074404Y-89043928D01*
X132104642Y-89013690D01*
X132165119Y-88983452D01*
X132316309Y-88983452D01*
X132376785Y-89013690D01*
X132407023Y-89043928D01*
X132437261Y-89104404D01*
X132437261Y-89285833D01*
X132407023Y-89346309D01*
X132376785Y-89376547D01*
X131862738Y-88741547D02*
X131832500Y-88711309D01*
X131802261Y-88650833D01*
X131802261Y-88499642D01*
X131832500Y-88439166D01*
X131862738Y-88408928D01*
X131923214Y-88378690D01*
X131983690Y-88378690D01*
X132074404Y-88408928D01*
X132437261Y-88771785D01*
X132437261Y-88378690D01*
X122361309Y-118237261D02*
X122361309Y-117602261D01*
X122603214Y-117602261D01*
X122663690Y-117632500D01*
X122693928Y-117662738D01*
X122724166Y-117723214D01*
X122724166Y-117813928D01*
X122693928Y-117874404D01*
X122663690Y-117904642D01*
X122603214Y-117934880D01*
X122361309Y-117934880D01*
X123328928Y-118237261D02*
X122966071Y-118237261D01*
X123147500Y-118237261D02*
X123147500Y-117602261D01*
X123087023Y-117692976D01*
X123026547Y-117753452D01*
X122966071Y-117783690D01*
X136041785Y-92767261D02*
X135830119Y-92464880D01*
X135678928Y-92767261D02*
X135678928Y-92132261D01*
X135920833Y-92132261D01*
X135981309Y-92162500D01*
X136011547Y-92192738D01*
X136041785Y-92253214D01*
X136041785Y-92343928D01*
X136011547Y-92404404D01*
X135981309Y-92434642D01*
X135920833Y-92464880D01*
X135678928Y-92464880D01*
X136283690Y-92192738D02*
X136313928Y-92162500D01*
X136374404Y-92132261D01*
X136525595Y-92132261D01*
X136586071Y-92162500D01*
X136616309Y-92192738D01*
X136646547Y-92253214D01*
X136646547Y-92313690D01*
X136616309Y-92404404D01*
X136253452Y-92767261D01*
X136646547Y-92767261D01*
X137221071Y-92132261D02*
X136918690Y-92132261D01*
X136888452Y-92434642D01*
X136918690Y-92404404D01*
X136979166Y-92374166D01*
X137130357Y-92374166D01*
X137190833Y-92404404D01*
X137221071Y-92434642D01*
X137251309Y-92495119D01*
X137251309Y-92646309D01*
X137221071Y-92706785D01*
X137190833Y-92737023D01*
X137130357Y-92767261D01*
X136979166Y-92767261D01*
X136918690Y-92737023D01*
X136888452Y-92706785D01*
D12*
X126720476Y-113858571D02*
X126625238Y-113925238D01*
X126720476Y-113972857D02*
X126520476Y-113972857D01*
X126520476Y-113896666D01*
X126530000Y-113877619D01*
X126539523Y-113868095D01*
X126558571Y-113858571D01*
X126587142Y-113858571D01*
X126606190Y-113868095D01*
X126615714Y-113877619D01*
X126625238Y-113896666D01*
X126625238Y-113972857D01*
X126539523Y-113782380D02*
X126530000Y-113772857D01*
X126520476Y-113753809D01*
X126520476Y-113706190D01*
X126530000Y-113687142D01*
X126539523Y-113677619D01*
X126558571Y-113668095D01*
X126577619Y-113668095D01*
X126606190Y-113677619D01*
X126720476Y-113791904D01*
X126720476Y-113668095D01*
X126520476Y-113496666D02*
X126520476Y-113534761D01*
X126530000Y-113553809D01*
X126539523Y-113563333D01*
X126568095Y-113582380D01*
X126606190Y-113591904D01*
X126682380Y-113591904D01*
X126701428Y-113582380D01*
X126710952Y-113572857D01*
X126720476Y-113553809D01*
X126720476Y-113515714D01*
X126710952Y-113496666D01*
X126701428Y-113487142D01*
X126682380Y-113477619D01*
X126634761Y-113477619D01*
X126615714Y-113487142D01*
X126606190Y-113496666D01*
X126596666Y-113515714D01*
X126596666Y-113553809D01*
X126606190Y-113572857D01*
X126615714Y-113582380D01*
X126634761Y-113591904D01*
X129300476Y-113778571D02*
X129205238Y-113845238D01*
X129300476Y-113892857D02*
X129100476Y-113892857D01*
X129100476Y-113816666D01*
X129110000Y-113797619D01*
X129119523Y-113788095D01*
X129138571Y-113778571D01*
X129167142Y-113778571D01*
X129186190Y-113788095D01*
X129195714Y-113797619D01*
X129205238Y-113816666D01*
X129205238Y-113892857D01*
X129119523Y-113702380D02*
X129110000Y-113692857D01*
X129100476Y-113673809D01*
X129100476Y-113626190D01*
X129110000Y-113607142D01*
X129119523Y-113597619D01*
X129138571Y-113588095D01*
X129157619Y-113588095D01*
X129186190Y-113597619D01*
X129300476Y-113711904D01*
X129300476Y-113588095D01*
X129100476Y-113521428D02*
X129100476Y-113388095D01*
X129300476Y-113473809D01*
D10*
X148503333Y-99317023D02*
X148594047Y-99347261D01*
X148745238Y-99347261D01*
X148805714Y-99317023D01*
X148835952Y-99286785D01*
X148866190Y-99226309D01*
X148866190Y-99165833D01*
X148835952Y-99105357D01*
X148805714Y-99075119D01*
X148745238Y-99044880D01*
X148624285Y-99014642D01*
X148563809Y-98984404D01*
X148533571Y-98954166D01*
X148503333Y-98893690D01*
X148503333Y-98833214D01*
X148533571Y-98772738D01*
X148563809Y-98742500D01*
X148624285Y-98712261D01*
X148775476Y-98712261D01*
X148866190Y-98742500D01*
X149077857Y-98712261D02*
X149229047Y-99347261D01*
X149350000Y-98893690D01*
X149470952Y-99347261D01*
X149622142Y-98712261D01*
X149833809Y-98772738D02*
X149864047Y-98742500D01*
X149924523Y-98712261D01*
X150075714Y-98712261D01*
X150136190Y-98742500D01*
X150166428Y-98772738D01*
X150196666Y-98833214D01*
X150196666Y-98893690D01*
X150166428Y-98984404D01*
X149803571Y-99347261D01*
X150196666Y-99347261D01*
X122503261Y-92663976D02*
X122200880Y-92875642D01*
X122503261Y-93026833D02*
X121868261Y-93026833D01*
X121868261Y-92784928D01*
X121898500Y-92724452D01*
X121928738Y-92694214D01*
X121989214Y-92663976D01*
X122079928Y-92663976D01*
X122140404Y-92694214D01*
X122170642Y-92724452D01*
X122200880Y-92784928D01*
X122200880Y-93026833D01*
X121868261Y-92482547D02*
X122503261Y-92270880D01*
X121868261Y-92059214D01*
X122503261Y-91514928D02*
X122503261Y-91877785D01*
X122503261Y-91696357D02*
X121868261Y-91696357D01*
X121958976Y-91756833D01*
X122019452Y-91817309D01*
X122049690Y-91877785D01*
X139676785Y-93988214D02*
X139707023Y-94018452D01*
X139737261Y-94109166D01*
X139737261Y-94169642D01*
X139707023Y-94260357D01*
X139646547Y-94320833D01*
X139586071Y-94351071D01*
X139465119Y-94381309D01*
X139374404Y-94381309D01*
X139253452Y-94351071D01*
X139192976Y-94320833D01*
X139132500Y-94260357D01*
X139102261Y-94169642D01*
X139102261Y-94109166D01*
X139132500Y-94018452D01*
X139162738Y-93988214D01*
X139102261Y-93776547D02*
X139102261Y-93383452D01*
X139344166Y-93595119D01*
X139344166Y-93504404D01*
X139374404Y-93443928D01*
X139404642Y-93413690D01*
X139465119Y-93383452D01*
X139616309Y-93383452D01*
X139676785Y-93413690D01*
X139707023Y-93443928D01*
X139737261Y-93504404D01*
X139737261Y-93685833D01*
X139707023Y-93746309D01*
X139676785Y-93776547D01*
X139102261Y-93171785D02*
X139102261Y-92778690D01*
X139344166Y-92990357D01*
X139344166Y-92899642D01*
X139374404Y-92839166D01*
X139404642Y-92808928D01*
X139465119Y-92778690D01*
X139616309Y-92778690D01*
X139676785Y-92808928D01*
X139707023Y-92839166D01*
X139737261Y-92899642D01*
X139737261Y-93081071D01*
X139707023Y-93141547D01*
X139676785Y-93171785D01*
X141296785Y-99668214D02*
X141327023Y-99698452D01*
X141357261Y-99789166D01*
X141357261Y-99849642D01*
X141327023Y-99940357D01*
X141266547Y-100000833D01*
X141206071Y-100031071D01*
X141085119Y-100061309D01*
X140994404Y-100061309D01*
X140873452Y-100031071D01*
X140812976Y-100000833D01*
X140752500Y-99940357D01*
X140722261Y-99849642D01*
X140722261Y-99789166D01*
X140752500Y-99698452D01*
X140782738Y-99668214D01*
X140722261Y-99456547D02*
X140722261Y-99063452D01*
X140964166Y-99275119D01*
X140964166Y-99184404D01*
X140994404Y-99123928D01*
X141024642Y-99093690D01*
X141085119Y-99063452D01*
X141236309Y-99063452D01*
X141296785Y-99093690D01*
X141327023Y-99123928D01*
X141357261Y-99184404D01*
X141357261Y-99365833D01*
X141327023Y-99426309D01*
X141296785Y-99456547D01*
X140722261Y-98851785D02*
X140722261Y-98428452D01*
X141357261Y-98700595D01*
X140376785Y-99688214D02*
X140407023Y-99718452D01*
X140437261Y-99809166D01*
X140437261Y-99869642D01*
X140407023Y-99960357D01*
X140346547Y-100020833D01*
X140286071Y-100051071D01*
X140165119Y-100081309D01*
X140074404Y-100081309D01*
X139953452Y-100051071D01*
X139892976Y-100020833D01*
X139832500Y-99960357D01*
X139802261Y-99869642D01*
X139802261Y-99809166D01*
X139832500Y-99718452D01*
X139862738Y-99688214D01*
X139802261Y-99476547D02*
X139802261Y-99083452D01*
X140044166Y-99295119D01*
X140044166Y-99204404D01*
X140074404Y-99143928D01*
X140104642Y-99113690D01*
X140165119Y-99083452D01*
X140316309Y-99083452D01*
X140376785Y-99113690D01*
X140407023Y-99143928D01*
X140437261Y-99204404D01*
X140437261Y-99385833D01*
X140407023Y-99446309D01*
X140376785Y-99476547D01*
X140437261Y-98781071D02*
X140437261Y-98660119D01*
X140407023Y-98599642D01*
X140376785Y-98569404D01*
X140286071Y-98508928D01*
X140165119Y-98478690D01*
X139923214Y-98478690D01*
X139862738Y-98508928D01*
X139832500Y-98539166D01*
X139802261Y-98599642D01*
X139802261Y-98720595D01*
X139832500Y-98781071D01*
X139862738Y-98811309D01*
X139923214Y-98841547D01*
X140074404Y-98841547D01*
X140134880Y-98811309D01*
X140165119Y-98781071D01*
X140195357Y-98720595D01*
X140195357Y-98599642D01*
X140165119Y-98539166D01*
X140134880Y-98508928D01*
X140074404Y-98478690D01*
X132831309Y-116167261D02*
X132831309Y-115532261D01*
X132982500Y-115532261D01*
X133073214Y-115562500D01*
X133133690Y-115622976D01*
X133163928Y-115683452D01*
X133194166Y-115804404D01*
X133194166Y-115895119D01*
X133163928Y-116016071D01*
X133133690Y-116076547D01*
X133073214Y-116137023D01*
X132982500Y-116167261D01*
X132831309Y-116167261D01*
X133738452Y-115532261D02*
X133617500Y-115532261D01*
X133557023Y-115562500D01*
X133526785Y-115592738D01*
X133466309Y-115683452D01*
X133436071Y-115804404D01*
X133436071Y-116046309D01*
X133466309Y-116106785D01*
X133496547Y-116137023D01*
X133557023Y-116167261D01*
X133677976Y-116167261D01*
X133738452Y-116137023D01*
X133768690Y-116106785D01*
X133798928Y-116046309D01*
X133798928Y-115895119D01*
X133768690Y-115834642D01*
X133738452Y-115804404D01*
X133677976Y-115774166D01*
X133557023Y-115774166D01*
X133496547Y-115804404D01*
X133466309Y-115834642D01*
X133436071Y-115895119D01*
X149701309Y-70127261D02*
X149701309Y-69492261D01*
X149943214Y-69492261D01*
X150003690Y-69522500D01*
X150033928Y-69552738D01*
X150064166Y-69613214D01*
X150064166Y-69703928D01*
X150033928Y-69764404D01*
X150003690Y-69794642D01*
X149943214Y-69824880D01*
X149701309Y-69824880D01*
X150275833Y-69492261D02*
X150668928Y-69492261D01*
X150457261Y-69734166D01*
X150547976Y-69734166D01*
X150608452Y-69764404D01*
X150638690Y-69794642D01*
X150668928Y-69855119D01*
X150668928Y-70006309D01*
X150638690Y-70066785D01*
X150608452Y-70097023D01*
X150547976Y-70127261D01*
X150366547Y-70127261D01*
X150306071Y-70097023D01*
X150275833Y-70066785D01*
X118699309Y-69737261D02*
X118699309Y-69102261D01*
X118941214Y-69102261D01*
X119001690Y-69132500D01*
X119031928Y-69162738D01*
X119062166Y-69223214D01*
X119062166Y-69313928D01*
X119031928Y-69374404D01*
X119001690Y-69404642D01*
X118941214Y-69434880D01*
X118699309Y-69434880D01*
X119606452Y-69313928D02*
X119606452Y-69737261D01*
X119455261Y-69072023D02*
X119304071Y-69525595D01*
X119697166Y-69525595D01*
X143816785Y-102917261D02*
X143605119Y-102614880D01*
X143453928Y-102917261D02*
X143453928Y-102282261D01*
X143695833Y-102282261D01*
X143756309Y-102312500D01*
X143786547Y-102342738D01*
X143816785Y-102403214D01*
X143816785Y-102493928D01*
X143786547Y-102554404D01*
X143756309Y-102584642D01*
X143695833Y-102614880D01*
X143453928Y-102614880D01*
X144028452Y-102282261D02*
X144421547Y-102282261D01*
X144209880Y-102524166D01*
X144300595Y-102524166D01*
X144361071Y-102554404D01*
X144391309Y-102584642D01*
X144421547Y-102645119D01*
X144421547Y-102796309D01*
X144391309Y-102856785D01*
X144361071Y-102887023D01*
X144300595Y-102917261D01*
X144119166Y-102917261D01*
X144058690Y-102887023D01*
X144028452Y-102856785D01*
X144814642Y-102282261D02*
X144875119Y-102282261D01*
X144935595Y-102312500D01*
X144965833Y-102342738D01*
X144996071Y-102403214D01*
X145026309Y-102524166D01*
X145026309Y-102675357D01*
X144996071Y-102796309D01*
X144965833Y-102856785D01*
X144935595Y-102887023D01*
X144875119Y-102917261D01*
X144814642Y-102917261D01*
X144754166Y-102887023D01*
X144723928Y-102856785D01*
X144693690Y-102796309D01*
X144663452Y-102675357D01*
X144663452Y-102524166D01*
X144693690Y-102403214D01*
X144723928Y-102342738D01*
X144754166Y-102312500D01*
X144814642Y-102282261D01*
X136541785Y-102817261D02*
X136330119Y-102514880D01*
X136178928Y-102817261D02*
X136178928Y-102182261D01*
X136420833Y-102182261D01*
X136481309Y-102212500D01*
X136511547Y-102242738D01*
X136541785Y-102303214D01*
X136541785Y-102393928D01*
X136511547Y-102454404D01*
X136481309Y-102484642D01*
X136420833Y-102514880D01*
X136178928Y-102514880D01*
X136753452Y-102182261D02*
X137146547Y-102182261D01*
X136934880Y-102424166D01*
X137025595Y-102424166D01*
X137086071Y-102454404D01*
X137116309Y-102484642D01*
X137146547Y-102545119D01*
X137146547Y-102696309D01*
X137116309Y-102756785D01*
X137086071Y-102787023D01*
X137025595Y-102817261D01*
X136844166Y-102817261D01*
X136783690Y-102787023D01*
X136753452Y-102756785D01*
X137751309Y-102817261D02*
X137388452Y-102817261D01*
X137569880Y-102817261D02*
X137569880Y-102182261D01*
X137509404Y-102272976D01*
X137448928Y-102333452D01*
X137388452Y-102363690D01*
X143816785Y-101892261D02*
X143605119Y-101589880D01*
X143453928Y-101892261D02*
X143453928Y-101257261D01*
X143695833Y-101257261D01*
X143756309Y-101287500D01*
X143786547Y-101317738D01*
X143816785Y-101378214D01*
X143816785Y-101468928D01*
X143786547Y-101529404D01*
X143756309Y-101559642D01*
X143695833Y-101589880D01*
X143453928Y-101589880D01*
X144028452Y-101257261D02*
X144421547Y-101257261D01*
X144209880Y-101499166D01*
X144300595Y-101499166D01*
X144361071Y-101529404D01*
X144391309Y-101559642D01*
X144421547Y-101620119D01*
X144421547Y-101771309D01*
X144391309Y-101831785D01*
X144361071Y-101862023D01*
X144300595Y-101892261D01*
X144119166Y-101892261D01*
X144058690Y-101862023D01*
X144028452Y-101831785D01*
X144663452Y-101317738D02*
X144693690Y-101287500D01*
X144754166Y-101257261D01*
X144905357Y-101257261D01*
X144965833Y-101287500D01*
X144996071Y-101317738D01*
X145026309Y-101378214D01*
X145026309Y-101438690D01*
X144996071Y-101529404D01*
X144633214Y-101892261D01*
X145026309Y-101892261D01*
X136491785Y-101817261D02*
X136280119Y-101514880D01*
X136128928Y-101817261D02*
X136128928Y-101182261D01*
X136370833Y-101182261D01*
X136431309Y-101212500D01*
X136461547Y-101242738D01*
X136491785Y-101303214D01*
X136491785Y-101393928D01*
X136461547Y-101454404D01*
X136431309Y-101484642D01*
X136370833Y-101514880D01*
X136128928Y-101514880D01*
X136703452Y-101182261D02*
X137096547Y-101182261D01*
X136884880Y-101424166D01*
X136975595Y-101424166D01*
X137036071Y-101454404D01*
X137066309Y-101484642D01*
X137096547Y-101545119D01*
X137096547Y-101696309D01*
X137066309Y-101756785D01*
X137036071Y-101787023D01*
X136975595Y-101817261D01*
X136794166Y-101817261D01*
X136733690Y-101787023D01*
X136703452Y-101756785D01*
X137308214Y-101182261D02*
X137701309Y-101182261D01*
X137489642Y-101424166D01*
X137580357Y-101424166D01*
X137640833Y-101454404D01*
X137671071Y-101484642D01*
X137701309Y-101545119D01*
X137701309Y-101696309D01*
X137671071Y-101756785D01*
X137640833Y-101787023D01*
X137580357Y-101817261D01*
X137398928Y-101817261D01*
X137338452Y-101787023D01*
X137308214Y-101756785D01*
D12*
X138691428Y-119150476D02*
X138624761Y-119055238D01*
X138577142Y-119150476D02*
X138577142Y-118950476D01*
X138653333Y-118950476D01*
X138672380Y-118960000D01*
X138681904Y-118969523D01*
X138691428Y-118988571D01*
X138691428Y-119017142D01*
X138681904Y-119036190D01*
X138672380Y-119045714D01*
X138653333Y-119055238D01*
X138577142Y-119055238D01*
X138758095Y-118950476D02*
X138881904Y-118950476D01*
X138815238Y-119026666D01*
X138843809Y-119026666D01*
X138862857Y-119036190D01*
X138872380Y-119045714D01*
X138881904Y-119064761D01*
X138881904Y-119112380D01*
X138872380Y-119131428D01*
X138862857Y-119140952D01*
X138843809Y-119150476D01*
X138786666Y-119150476D01*
X138767619Y-119140952D01*
X138758095Y-119131428D01*
X139053333Y-119017142D02*
X139053333Y-119150476D01*
X139005714Y-118940952D02*
X138958095Y-119083809D01*
X139081904Y-119083809D01*
X140061428Y-118870476D02*
X139994761Y-118775238D01*
X139947142Y-118870476D02*
X139947142Y-118670476D01*
X140023333Y-118670476D01*
X140042380Y-118680000D01*
X140051904Y-118689523D01*
X140061428Y-118708571D01*
X140061428Y-118737142D01*
X140051904Y-118756190D01*
X140042380Y-118765714D01*
X140023333Y-118775238D01*
X139947142Y-118775238D01*
X140128095Y-118670476D02*
X140251904Y-118670476D01*
X140185238Y-118746666D01*
X140213809Y-118746666D01*
X140232857Y-118756190D01*
X140242380Y-118765714D01*
X140251904Y-118784761D01*
X140251904Y-118832380D01*
X140242380Y-118851428D01*
X140232857Y-118860952D01*
X140213809Y-118870476D01*
X140156666Y-118870476D01*
X140137619Y-118860952D01*
X140128095Y-118851428D01*
X140432857Y-118670476D02*
X140337619Y-118670476D01*
X140328095Y-118765714D01*
X140337619Y-118756190D01*
X140356666Y-118746666D01*
X140404285Y-118746666D01*
X140423333Y-118756190D01*
X140432857Y-118765714D01*
X140442380Y-118784761D01*
X140442380Y-118832380D01*
X140432857Y-118851428D01*
X140423333Y-118860952D01*
X140404285Y-118870476D01*
X140356666Y-118870476D01*
X140337619Y-118860952D01*
X140328095Y-118851428D01*
D10*
X136444166Y-93667261D02*
X136141785Y-93667261D01*
X136141785Y-93032261D01*
X136988452Y-93667261D02*
X136625595Y-93667261D01*
X136807023Y-93667261D02*
X136807023Y-93032261D01*
X136746547Y-93122976D01*
X136686071Y-93183452D01*
X136625595Y-93213690D01*
X134087261Y-89285833D02*
X134087261Y-89588214D01*
X133452261Y-89588214D01*
X133512738Y-89104404D02*
X133482500Y-89074166D01*
X133452261Y-89013690D01*
X133452261Y-88862500D01*
X133482500Y-88802023D01*
X133512738Y-88771785D01*
X133573214Y-88741547D01*
X133633690Y-88741547D01*
X133724404Y-88771785D01*
X134087261Y-89134642D01*
X134087261Y-88741547D01*
D12*
X126651428Y-112161428D02*
X126641904Y-112170952D01*
X126613333Y-112180476D01*
X126594285Y-112180476D01*
X126565714Y-112170952D01*
X126546666Y-112151904D01*
X126537142Y-112132857D01*
X126527619Y-112094761D01*
X126527619Y-112066190D01*
X126537142Y-112028095D01*
X126546666Y-112009047D01*
X126565714Y-111990000D01*
X126594285Y-111980476D01*
X126613333Y-111980476D01*
X126641904Y-111990000D01*
X126651428Y-111999523D01*
X126718095Y-111980476D02*
X126841904Y-111980476D01*
X126775238Y-112056666D01*
X126803809Y-112056666D01*
X126822857Y-112066190D01*
X126832380Y-112075714D01*
X126841904Y-112094761D01*
X126841904Y-112142380D01*
X126832380Y-112161428D01*
X126822857Y-112170952D01*
X126803809Y-112180476D01*
X126746666Y-112180476D01*
X126727619Y-112170952D01*
X126718095Y-112161428D01*
X127022857Y-111980476D02*
X126927619Y-111980476D01*
X126918095Y-112075714D01*
X126927619Y-112066190D01*
X126946666Y-112056666D01*
X126994285Y-112056666D01*
X127013333Y-112066190D01*
X127022857Y-112075714D01*
X127032380Y-112094761D01*
X127032380Y-112142380D01*
X127022857Y-112161428D01*
X127013333Y-112170952D01*
X126994285Y-112180476D01*
X126946666Y-112180476D01*
X126927619Y-112170952D01*
X126918095Y-112161428D01*
X126711428Y-111081428D02*
X126701904Y-111090952D01*
X126673333Y-111100476D01*
X126654285Y-111100476D01*
X126625714Y-111090952D01*
X126606666Y-111071904D01*
X126597142Y-111052857D01*
X126587619Y-111014761D01*
X126587619Y-110986190D01*
X126597142Y-110948095D01*
X126606666Y-110929047D01*
X126625714Y-110910000D01*
X126654285Y-110900476D01*
X126673333Y-110900476D01*
X126701904Y-110910000D01*
X126711428Y-110919523D01*
X126882857Y-110967142D02*
X126882857Y-111100476D01*
X126835238Y-110890952D02*
X126787619Y-111033809D01*
X126911428Y-111033809D01*
X127025714Y-110900476D02*
X127044761Y-110900476D01*
X127063809Y-110910000D01*
X127073333Y-110919523D01*
X127082857Y-110938571D01*
X127092380Y-110976666D01*
X127092380Y-111024285D01*
X127082857Y-111062380D01*
X127073333Y-111081428D01*
X127063809Y-111090952D01*
X127044761Y-111100476D01*
X127025714Y-111100476D01*
X127006666Y-111090952D01*
X126997142Y-111081428D01*
X126987619Y-111062380D01*
X126978095Y-111024285D01*
X126978095Y-110976666D01*
X126987619Y-110938571D01*
X126997142Y-110919523D01*
X127006666Y-110910000D01*
X127025714Y-110900476D01*
X126651428Y-110221428D02*
X126641904Y-110230952D01*
X126613333Y-110240476D01*
X126594285Y-110240476D01*
X126565714Y-110230952D01*
X126546666Y-110211904D01*
X126537142Y-110192857D01*
X126527619Y-110154761D01*
X126527619Y-110126190D01*
X126537142Y-110088095D01*
X126546666Y-110069047D01*
X126565714Y-110050000D01*
X126594285Y-110040476D01*
X126613333Y-110040476D01*
X126641904Y-110050000D01*
X126651428Y-110059523D01*
X126822857Y-110107142D02*
X126822857Y-110240476D01*
X126775238Y-110030952D02*
X126727619Y-110173809D01*
X126851428Y-110173809D01*
X127032380Y-110240476D02*
X126918095Y-110240476D01*
X126975238Y-110240476D02*
X126975238Y-110040476D01*
X126956190Y-110069047D01*
X126937142Y-110088095D01*
X126918095Y-110097619D01*
X131101428Y-113981428D02*
X131091904Y-113990952D01*
X131063333Y-114000476D01*
X131044285Y-114000476D01*
X131015714Y-113990952D01*
X130996666Y-113971904D01*
X130987142Y-113952857D01*
X130977619Y-113914761D01*
X130977619Y-113886190D01*
X130987142Y-113848095D01*
X130996666Y-113829047D01*
X131015714Y-113810000D01*
X131044285Y-113800476D01*
X131063333Y-113800476D01*
X131091904Y-113810000D01*
X131101428Y-113819523D01*
X131272857Y-113867142D02*
X131272857Y-114000476D01*
X131225238Y-113790952D02*
X131177619Y-113933809D01*
X131301428Y-113933809D01*
X131368095Y-113819523D02*
X131377619Y-113810000D01*
X131396666Y-113800476D01*
X131444285Y-113800476D01*
X131463333Y-113810000D01*
X131472857Y-113819523D01*
X131482380Y-113838571D01*
X131482380Y-113857619D01*
X131472857Y-113886190D01*
X131358571Y-114000476D01*
X131482380Y-114000476D01*
X126686666Y-112890476D02*
X126591428Y-112890476D01*
X126591428Y-112690476D01*
X126734285Y-112690476D02*
X126858095Y-112690476D01*
X126791428Y-112766666D01*
X126820000Y-112766666D01*
X126839047Y-112776190D01*
X126848571Y-112785714D01*
X126858095Y-112804761D01*
X126858095Y-112852380D01*
X126848571Y-112871428D01*
X126839047Y-112880952D01*
X126820000Y-112890476D01*
X126762857Y-112890476D01*
X126743809Y-112880952D01*
X126734285Y-112871428D01*
D10*
X116159309Y-69737261D02*
X116159309Y-69102261D01*
X116401214Y-69102261D01*
X116461690Y-69132500D01*
X116491928Y-69162738D01*
X116522166Y-69223214D01*
X116522166Y-69313928D01*
X116491928Y-69374404D01*
X116461690Y-69404642D01*
X116401214Y-69434880D01*
X116159309Y-69434880D01*
X117096690Y-69102261D02*
X116794309Y-69102261D01*
X116764071Y-69404642D01*
X116794309Y-69374404D01*
X116854785Y-69344166D01*
X117005976Y-69344166D01*
X117066452Y-69374404D01*
X117096690Y-69404642D01*
X117126928Y-69465119D01*
X117126928Y-69616309D01*
X117096690Y-69676785D01*
X117066452Y-69707023D01*
X117005976Y-69737261D01*
X116854785Y-69737261D01*
X116794309Y-69707023D01*
X116764071Y-69676785D01*
X140686190Y-65492261D02*
X140686190Y-66006309D01*
X140716428Y-66066785D01*
X140746666Y-66097023D01*
X140807142Y-66127261D01*
X140928095Y-66127261D01*
X140988571Y-66097023D01*
X141018809Y-66066785D01*
X141049047Y-66006309D01*
X141049047Y-65492261D01*
X141290952Y-65492261D02*
X141684047Y-65492261D01*
X141472380Y-65734166D01*
X141563095Y-65734166D01*
X141623571Y-65764404D01*
X141653809Y-65794642D01*
X141684047Y-65855119D01*
X141684047Y-66006309D01*
X141653809Y-66066785D01*
X141623571Y-66097023D01*
X141563095Y-66127261D01*
X141381666Y-66127261D01*
X141321190Y-66097023D01*
X141290952Y-66066785D01*
X147491309Y-70127261D02*
X147491309Y-69492261D01*
X147733214Y-69492261D01*
X147793690Y-69522500D01*
X147823928Y-69552738D01*
X147854166Y-69613214D01*
X147854166Y-69703928D01*
X147823928Y-69764404D01*
X147793690Y-69794642D01*
X147733214Y-69824880D01*
X147491309Y-69824880D01*
X148096071Y-69552738D02*
X148126309Y-69522500D01*
X148186785Y-69492261D01*
X148337976Y-69492261D01*
X148398452Y-69522500D01*
X148428690Y-69552738D01*
X148458928Y-69613214D01*
X148458928Y-69673690D01*
X148428690Y-69764404D01*
X148065833Y-70127261D01*
X148458928Y-70127261D01*
X140906785Y-88983690D02*
X140937023Y-89013928D01*
X140967261Y-89104642D01*
X140967261Y-89165119D01*
X140937023Y-89255833D01*
X140876547Y-89316309D01*
X140816071Y-89346547D01*
X140695119Y-89376785D01*
X140604404Y-89376785D01*
X140483452Y-89346547D01*
X140422976Y-89316309D01*
X140362500Y-89255833D01*
X140332261Y-89165119D01*
X140332261Y-89104642D01*
X140362500Y-89013928D01*
X140392738Y-88983690D01*
X140332261Y-88590595D02*
X140332261Y-88469642D01*
X140362500Y-88409166D01*
X140422976Y-88348690D01*
X140543928Y-88318452D01*
X140755595Y-88318452D01*
X140876547Y-88348690D01*
X140937023Y-88409166D01*
X140967261Y-88469642D01*
X140967261Y-88590595D01*
X140937023Y-88651071D01*
X140876547Y-88711547D01*
X140755595Y-88741785D01*
X140543928Y-88741785D01*
X140422976Y-88711547D01*
X140362500Y-88651071D01*
X140332261Y-88590595D01*
X140967261Y-88046309D02*
X140332261Y-88046309D01*
X140967261Y-87683452D01*
X140332261Y-87683452D01*
X140967261Y-87381071D02*
X140332261Y-87381071D01*
X140967261Y-87018214D01*
X140332261Y-87018214D01*
X140967261Y-86383214D02*
X140967261Y-86746071D01*
X140967261Y-86564642D02*
X140332261Y-86564642D01*
X140422976Y-86625119D01*
X140483452Y-86685595D01*
X140513690Y-86746071D01*
X120408690Y-106052738D02*
X120408690Y-105427738D01*
X120646785Y-105427738D01*
X120706309Y-105457500D01*
X120736071Y-105487261D01*
X120765833Y-105546785D01*
X120765833Y-105636071D01*
X120736071Y-105695595D01*
X120706309Y-105725357D01*
X120646785Y-105755119D01*
X120408690Y-105755119D01*
X121301547Y-105427738D02*
X121182500Y-105427738D01*
X121122976Y-105457500D01*
X121093214Y-105487261D01*
X121033690Y-105576547D01*
X121003928Y-105695595D01*
X121003928Y-105933690D01*
X121033690Y-105993214D01*
X121063452Y-106022976D01*
X121122976Y-106052738D01*
X121242023Y-106052738D01*
X121301547Y-106022976D01*
X121331309Y-105993214D01*
X121361071Y-105933690D01*
X121361071Y-105784880D01*
X121331309Y-105725357D01*
X121301547Y-105695595D01*
X121242023Y-105665833D01*
X121122976Y-105665833D01*
X121063452Y-105695595D01*
X121033690Y-105725357D01*
X121003928Y-105784880D01*
D12*
X122496666Y-113520476D02*
X122430000Y-113425238D01*
X122382380Y-113520476D02*
X122382380Y-113320476D01*
X122458571Y-113320476D01*
X122477619Y-113330000D01*
X122487142Y-113339523D01*
X122496666Y-113358571D01*
X122496666Y-113387142D01*
X122487142Y-113406190D01*
X122477619Y-113415714D01*
X122458571Y-113425238D01*
X122382380Y-113425238D01*
X122687142Y-113520476D02*
X122572857Y-113520476D01*
X122630000Y-113520476D02*
X122630000Y-113320476D01*
X122610952Y-113349047D01*
X122591904Y-113368095D01*
X122572857Y-113377619D01*
D13*
X116814761Y-113526309D02*
X117328809Y-113526309D01*
X117389285Y-113496071D01*
X117419523Y-113465833D01*
X117449761Y-113405357D01*
X117449761Y-113284404D01*
X117419523Y-113223928D01*
X117389285Y-113193690D01*
X117328809Y-113163452D01*
X116814761Y-113163452D01*
X116814761Y-112558690D02*
X116814761Y-112861071D01*
X117117142Y-112891309D01*
X117086904Y-112861071D01*
X117056666Y-112800595D01*
X117056666Y-112649404D01*
X117086904Y-112588928D01*
X117117142Y-112558690D01*
X117177619Y-112528452D01*
X117328809Y-112528452D01*
X117389285Y-112558690D01*
X117419523Y-112588928D01*
X117449761Y-112649404D01*
X117449761Y-112800595D01*
X117419523Y-112861071D01*
X117389285Y-112891309D01*
D10*
X131347261Y-81915833D02*
X131044880Y-82127500D01*
X131347261Y-82278690D02*
X130712261Y-82278690D01*
X130712261Y-82036785D01*
X130742500Y-81976309D01*
X130772738Y-81946071D01*
X130833214Y-81915833D01*
X130923928Y-81915833D01*
X130984404Y-81946071D01*
X131014642Y-81976309D01*
X131044880Y-82036785D01*
X131044880Y-82278690D01*
X130772738Y-81673928D02*
X130742500Y-81643690D01*
X130712261Y-81583214D01*
X130712261Y-81432023D01*
X130742500Y-81371547D01*
X130772738Y-81341309D01*
X130833214Y-81311071D01*
X130893690Y-81311071D01*
X130984404Y-81341309D01*
X131347261Y-81704166D01*
X131347261Y-81311071D01*
X133437261Y-82095833D02*
X133134880Y-82307500D01*
X133437261Y-82458690D02*
X132802261Y-82458690D01*
X132802261Y-82216785D01*
X132832500Y-82156309D01*
X132862738Y-82126071D01*
X132923214Y-82095833D01*
X133013928Y-82095833D01*
X133074404Y-82126071D01*
X133104642Y-82156309D01*
X133134880Y-82216785D01*
X133134880Y-82458690D01*
X132802261Y-81884166D02*
X132802261Y-81491071D01*
X133044166Y-81702738D01*
X133044166Y-81612023D01*
X133074404Y-81551547D01*
X133104642Y-81521309D01*
X133165119Y-81491071D01*
X133316309Y-81491071D01*
X133376785Y-81521309D01*
X133407023Y-81551547D01*
X133437261Y-81612023D01*
X133437261Y-81793452D01*
X133407023Y-81853928D01*
X133376785Y-81884166D01*
X134357261Y-82125833D02*
X134054880Y-82337500D01*
X134357261Y-82488690D02*
X133722261Y-82488690D01*
X133722261Y-82246785D01*
X133752500Y-82186309D01*
X133782738Y-82156071D01*
X133843214Y-82125833D01*
X133933928Y-82125833D01*
X133994404Y-82156071D01*
X134024642Y-82186309D01*
X134054880Y-82246785D01*
X134054880Y-82488690D01*
X133933928Y-81581547D02*
X134357261Y-81581547D01*
X133692023Y-81732738D02*
X134145595Y-81883928D01*
X134145595Y-81490833D01*
X135247261Y-82135833D02*
X134944880Y-82347500D01*
X135247261Y-82498690D02*
X134612261Y-82498690D01*
X134612261Y-82256785D01*
X134642500Y-82196309D01*
X134672738Y-82166071D01*
X134733214Y-82135833D01*
X134823928Y-82135833D01*
X134884404Y-82166071D01*
X134914642Y-82196309D01*
X134944880Y-82256785D01*
X134944880Y-82498690D01*
X134612261Y-81561309D02*
X134612261Y-81863690D01*
X134914642Y-81893928D01*
X134884404Y-81863690D01*
X134854166Y-81803214D01*
X134854166Y-81652023D01*
X134884404Y-81591547D01*
X134914642Y-81561309D01*
X134975119Y-81531071D01*
X135126309Y-81531071D01*
X135186785Y-81561309D01*
X135217023Y-81591547D01*
X135247261Y-81652023D01*
X135247261Y-81803214D01*
X135217023Y-81863690D01*
X135186785Y-81893928D01*
X132407261Y-82055833D02*
X132104880Y-82267500D01*
X132407261Y-82418690D02*
X131772261Y-82418690D01*
X131772261Y-82176785D01*
X131802500Y-82116309D01*
X131832738Y-82086071D01*
X131893214Y-82055833D01*
X131983928Y-82055833D01*
X132044404Y-82086071D01*
X132074642Y-82116309D01*
X132104880Y-82176785D01*
X132104880Y-82418690D01*
X131772261Y-81844166D02*
X131772261Y-81420833D01*
X132407261Y-81692976D01*
X141764166Y-75857261D02*
X141552500Y-75554880D01*
X141401309Y-75857261D02*
X141401309Y-75222261D01*
X141643214Y-75222261D01*
X141703690Y-75252500D01*
X141733928Y-75282738D01*
X141764166Y-75343214D01*
X141764166Y-75433928D01*
X141733928Y-75494404D01*
X141703690Y-75524642D01*
X141643214Y-75554880D01*
X141401309Y-75554880D01*
X142066547Y-75857261D02*
X142187500Y-75857261D01*
X142247976Y-75827023D01*
X142278214Y-75796785D01*
X142338690Y-75706071D01*
X142368928Y-75585119D01*
X142368928Y-75343214D01*
X142338690Y-75282738D01*
X142308452Y-75252500D01*
X142247976Y-75222261D01*
X142127023Y-75222261D01*
X142066547Y-75252500D01*
X142036309Y-75282738D01*
X142006071Y-75343214D01*
X142006071Y-75494404D01*
X142036309Y-75554880D01*
X142066547Y-75585119D01*
X142127023Y-75615357D01*
X142247976Y-75615357D01*
X142308452Y-75585119D01*
X142338690Y-75554880D01*
X142368928Y-75494404D01*
X137932485Y-77659361D02*
X137720819Y-77356980D01*
X137569628Y-77659361D02*
X137569628Y-77024361D01*
X137811533Y-77024361D01*
X137872009Y-77054600D01*
X137902247Y-77084838D01*
X137932485Y-77145314D01*
X137932485Y-77236028D01*
X137902247Y-77296504D01*
X137872009Y-77326742D01*
X137811533Y-77356980D01*
X137569628Y-77356980D01*
X138537247Y-77659361D02*
X138174390Y-77659361D01*
X138355819Y-77659361D02*
X138355819Y-77024361D01*
X138295342Y-77115076D01*
X138234866Y-77175552D01*
X138174390Y-77205790D01*
X138930342Y-77024361D02*
X138990819Y-77024361D01*
X139051295Y-77054600D01*
X139081533Y-77084838D01*
X139111771Y-77145314D01*
X139142009Y-77266266D01*
X139142009Y-77417457D01*
X139111771Y-77538409D01*
X139081533Y-77598885D01*
X139051295Y-77629123D01*
X138990819Y-77659361D01*
X138930342Y-77659361D01*
X138869866Y-77629123D01*
X138839628Y-77598885D01*
X138809390Y-77538409D01*
X138779152Y-77417457D01*
X138779152Y-77266266D01*
X138809390Y-77145314D01*
X138839628Y-77084838D01*
X138869866Y-77054600D01*
X138930342Y-77024361D01*
D12*
X122367142Y-110350476D02*
X122433809Y-110550476D01*
X122500476Y-110350476D01*
X122519523Y-110569523D02*
X122671904Y-110569523D01*
X122719523Y-110350476D02*
X122719523Y-110512380D01*
X122729047Y-110531428D01*
X122738571Y-110540952D01*
X122757619Y-110550476D01*
X122795714Y-110550476D01*
X122814761Y-110540952D01*
X122824285Y-110531428D01*
X122833809Y-110512380D01*
X122833809Y-110350476D01*
X122919523Y-110540952D02*
X122948095Y-110550476D01*
X122995714Y-110550476D01*
X123014761Y-110540952D01*
X123024285Y-110531428D01*
X123033809Y-110512380D01*
X123033809Y-110493333D01*
X123024285Y-110474285D01*
X123014761Y-110464761D01*
X122995714Y-110455238D01*
X122957619Y-110445714D01*
X122938571Y-110436190D01*
X122929047Y-110426666D01*
X122919523Y-110407619D01*
X122919523Y-110388571D01*
X122929047Y-110369523D01*
X122938571Y-110360000D01*
X122957619Y-110350476D01*
X123005238Y-110350476D01*
X123033809Y-110360000D01*
X123186190Y-110445714D02*
X123214761Y-110455238D01*
X123224285Y-110464761D01*
X123233809Y-110483809D01*
X123233809Y-110512380D01*
X123224285Y-110531428D01*
X123214761Y-110540952D01*
X123195714Y-110550476D01*
X123119523Y-110550476D01*
X123119523Y-110350476D01*
X123186190Y-110350476D01*
X123205238Y-110360000D01*
X123214761Y-110369523D01*
X123224285Y-110388571D01*
X123224285Y-110407619D01*
X123214761Y-110426666D01*
X123205238Y-110436190D01*
X123186190Y-110445714D01*
X123119523Y-110445714D01*
M02*
