M48
; DRILL file {KiCad (5.1.5)-3} date 05/06/20 16:42:33
; FORMAT={-:-/ absolute / metric / decimal}
; #@! TF.CreationDate,2020-05-06T16:42:33+05:30
; #@! TF.GenerationSoftware,Kicad,Pcbnew,(5.1.5)-3
; #@! TF.FileFunction,Plated,1,4,PTH
FMAT,2
METRIC
T1C0.400
T2C0.800
T3C1.000
%
G90
G05
T1
X1.1Y55.05
X1.3Y53.8
X1.7Y27.65
X2.1Y22.55
X2.75Y17.64
X3.25Y25.5
X3.8Y19.55
X3.9Y22.5
X4.4Y51.9
X5.4Y53.85
X5.6Y56.3
X6.4Y4.33
X6.7Y60.8
X7.17Y7.89
X7.2Y17.45
X7.7Y46.1
X7.7Y43.6
X8.2Y7.14
X8.25Y15.05
X8.625Y49.9
X8.625Y38.45
X8.7Y10.4
X8.92Y6.28
X8.975Y5.425
X9.0Y16.8
X9.35Y51.6
X9.35Y41.175
X9.35Y15.65
X9.4Y56.0
X10.1Y46.5
X10.125Y28.875
X10.175Y31.675
X10.2Y5.4
X10.3Y11.65
X11.088Y28.962
X11.125Y41.7
X11.2Y56.1
X11.225Y28.075
X12.1Y18.05
X12.2Y67.5
X12.25Y43.575
X12.275Y42.65
X12.55Y15.75
X13.2Y50.5
X13.55Y15.75
X13.6Y48.5
X14.275Y46.7
X14.55Y7.15
X14.6Y11.95
X14.7Y22.05
X15.025Y62.7
X15.05Y61.825
X15.05Y48.25
X15.075Y40.8
X15.225Y35.25
X15.55Y22.05
X15.9Y52.925
X16.1Y50.6
X16.25Y35.1
X17.0Y49.4
X17.1Y51.55
X17.125Y39.65
X17.25Y50.5
X17.395Y46.383
X17.395Y44.483
X18.15Y18.75
X18.15Y36.225
X18.15Y34.975
X18.175Y39.65
X18.2Y8.9
X18.35Y2.35
X18.5Y3.375
X18.55Y10.6
X18.55Y1.45
X18.8Y18.15
X19.075Y39.575
X19.295Y46.383
X19.295Y44.483
X19.4Y3.7
X20.075Y39.625
X20.15Y59.0
X20.6Y49.2
X20.65Y35.25
X20.85Y48.225
X21.3Y21.15
X21.4Y52.3
X21.45Y15.125
X21.55Y51.15
X21.63Y54.69
X21.7Y37.0
X21.7Y18.4
X21.8Y65.1
X22.2Y3.8
X22.4Y6.85
X22.6Y18.3
X22.65Y8.225
X22.8Y47.34
X22.81Y46.54
X22.9Y15.125
X23.09Y40.22
X23.14Y41.418
X23.2Y3.75
X23.2Y1.45
X23.475Y7.55
X23.95Y38.95
X24.0Y0.8
X24.03Y43.9
X24.05Y44.811
X24.15Y43.05
X24.2Y3.75
X24.225Y23.4
X24.23Y46.77
X24.275Y27.75
X24.35Y30.5
X24.55Y48.11
X24.63Y46.052
X25.0Y12.25
X25.125Y2.6
X25.2Y20.0
X25.3Y49.7
X25.35Y37.5
X25.575Y69.85
X25.625Y52.425
X25.625Y33.475
X25.825Y1.825
X26.325Y20.0
X26.425Y31.025
X26.45Y28.875
X26.475Y29.95
X26.486Y36.55
X26.5Y24.45
X26.525Y26.7
X26.6Y10.45
X26.675Y3.2
X27.05Y12.4
X27.175Y5.95
X27.28Y47.4
X27.94Y45.36
X28.0Y5.925
X28.15Y20.45
X28.475Y54.325
X28.49Y48.1
X28.6Y35.902
X28.775Y44.925
X29.225Y35.25
X29.275Y37.325
X29.95Y41.15
X30.35Y28.4
X30.65Y43.7
X31.0Y13.8
X31.275Y30.775
X32.25Y56.35
X33.3Y28.4
X33.45Y54.3
X33.6Y71.65
X33.65Y33.15
X33.65Y31.85
X34.05Y13.85
X34.85Y34.35
X35.15Y19.65
X36.5Y54.1
X36.6Y51.7
X36.75Y57.6
T2
X1.8Y12.8
X3.8Y12.8
X5.8Y12.8
T3
X1.778Y48.7
X1.778Y46.16
X1.778Y43.62
X1.778Y41.08
X1.778Y38.54
X1.778Y36.0
X5.3Y31.43
X5.3Y28.89
X5.3Y26.35
X9.95Y1.4
X16.55Y1.4
X4.318Y48.7
X4.318Y46.16
X4.318Y43.62
X4.318Y41.08
X4.318Y38.54
X4.318Y36.0
X36.2Y48.7
X36.2Y46.16
X36.2Y43.62
X36.2Y41.08
X36.2Y38.54
X36.2Y36.0
X33.5Y48.707
X33.5Y46.167
X33.5Y43.627
X33.5Y41.087
X33.5Y38.547
X33.5Y36.007
T0
M30
