M48
; DRILL file {KiCad (5.1.5)-3} date 08/10/20 10:15:24
; FORMAT={-:-/ absolute / metric / decimal}
; #@! TF.CreationDate,2020-08-10T10:15:24+05:30
; #@! TF.GenerationSoftware,Kicad,Pcbnew,(5.1.5)-3
; #@! TF.FileFunction,Plated,3,4,Blind
FMAT,2
METRIC
T1C0.150
%
G90
G05
T1
X126.17Y-95.77
X127.53Y-87.17
X127.6Y-96.13
X127.62Y-93.19
X127.63Y-94.22
X128.5Y-88.13
X128.57Y-92.14
X128.6Y-90.14
X129.55Y-90.18
X129.59Y-95.08
X130.5Y-98.9
X130.56Y-95.16
X130.59Y-89.16
X130.59Y-91.12
X130.61Y-88.18
X131.62Y-96.15
X131.67Y-91.3
X132.566Y-87.176
X132.57Y-97.13
X132.59Y-90.15
X132.63Y-94.2
X132.64Y-96.11
X133.55Y-92.2
X133.58Y-96.14
X133.59Y-95.12
X133.63Y-93.07
X134.56Y-94.18
X134.57Y-90.17
X134.58Y-92.17
X135.55Y-95.17
X135.67Y-90.23
X135.68Y-88.25
X136.51Y-90.07
X136.57Y-94.14
X136.58Y-88.16
X137.51Y-90.08
X137.53Y-95.14
X137.54Y-91.06
X137.54Y-94.19
X138.56Y-94.1
T0
M30
